<svg id="Componente_10_1" data-name="Componente 10 – 1" xmlns="http://www.w3.org/2000/svg" xmlns:xlink="http://www.w3.org/1999/xlink" width="288.483" height="60.694" viewBox="0 0 288.483 60.694">
  <defs>
    <clipPath id="clip-path">
      <rect id="Rectángulo_24" data-name="Rectángulo 24" width="143.808" height="51.548" fill="none"/>
    </clipPath>
  </defs>
  <g id="Grupo_78" data-name="Grupo 78" transform="translate(144.675 2.098)">
    <g id="Grupo_77" data-name="Grupo 77" transform="translate(0)" clip-path="url(#clip-path)">
      <g id="Grupo_69" data-name="Grupo 69" transform="translate(26.127 0)">
        <path id="Trazado_375" data-name="Trazado 375" d="M829.968,365.463s.109-6.23-.256-7.5-2.95-4.263-4.189-5.975-1.166-2.659-1.967-3.788a13.183,13.183,0,0,1-1.6-2.55c-.328-.8-1.239-1.712-.438-2.077s1.53-.328,2.624.875,2,3.424,2.877,3.315,1.166-1.311,1.057-3.133-.8-2.514-.947-3.68-.692-4.7-.729-5.683.256-1.858.765-1.93,1.093.328,1.493,2.222.906,3.46,1.327,5.464.9,1.894,1.151,1.639.036-2.768,0-4.189.135-5.319.122-6.266.461-1.457,1.116-1.348.947.364.911,1.748.511,5.137.511,6.084-.328,4.007.546,4.08l.255-.037s.291-3.57.291-4.663-.4-4.954.219-5.5,1.421-.547,1.566,1.312.365,3.424.547,4.845a14.749,14.749,0,0,1,0,3.169c-.036.62-.218,2.113.437,2.186s1.129-2.732,1.458-3.971.547-4.043,1.749-3.788.364,3.643.145,5.283a45.354,45.354,0,0,0-.582,5.719A22.97,22.97,0,0,1,839,355.754c-1.311,3.17-.437,49.7-.273,52.054h-8.8Z" transform="translate(-821.194 -330.84)" fill="#f3c42e" opacity="0.9"/>
      </g>
      <g id="Grupo_70" data-name="Grupo 70" transform="translate(18.474 26.682)">
        <path id="Trazado_376" data-name="Trazado 376" d="M816.191,399.335a39.4,39.4,0,0,1,.174-5.122c.249-.87,2.014-2.909,2.859-4.077s.8-1.815,1.343-2.586a9.027,9.027,0,0,0,1.094-1.74c.224-.547.845-1.169.3-1.417s-1.044-.224-1.791.6-1.367,2.337-1.964,2.262-.8-.894-.721-2.138a16.363,16.363,0,0,1,.646-2.511c.1-.8.472-3.207.5-3.878s-.174-1.268-.522-1.318-.746.224-1.019,1.517-.619,2.362-.906,3.729-.611,1.293-.786,1.119a13.194,13.194,0,0,1,0-2.859c.025-.969-.092-3.63-.083-4.277s-.315-.994-.762-.919-.646.249-.622,1.193-.348,3.506-.348,4.152.224,2.734-.373,2.784l-.174-.025s-.2-2.437-.2-3.182.273-3.381-.149-3.754-.969-.373-1.069.9-.249,2.337-.373,3.306a10.1,10.1,0,0,0,0,2.163c.025.423.149,1.443-.3,1.492s-.771-1.864-.995-2.709-.373-2.759-1.194-2.585-.249,2.486-.1,3.6a30.934,30.934,0,0,1,.4,3.9,15.665,15.665,0,0,0,.97,5.756c.894,2.164.3,33.922.186,35.525h6Z" transform="translate(-808.325 -375.705)" fill="#3fb2a5"/>
      </g>
      <g id="Grupo_71" data-name="Grupo 71" transform="translate(85.507 25.819)" opacity="0.9">
        <path id="Trazado_377" data-name="Trazado 377" d="M927.029,397.885a39.375,39.375,0,0,0-.174-5.122c-.249-.871-2.014-2.909-2.859-4.078s-.8-1.814-1.343-2.586a9.022,9.022,0,0,1-1.094-1.74c-.224-.547-.845-1.169-.3-1.417s1.044-.224,1.79.6,1.367,2.337,1.964,2.262.8-.9.721-2.139a16.334,16.334,0,0,0-.646-2.511c-.1-.8-.472-3.207-.5-3.879s.174-1.268.522-1.317.746.224,1.019,1.517.618,2.362.905,3.729.611,1.293.786,1.119a13.165,13.165,0,0,0,0-2.859c-.025-.969.092-3.63.083-4.276s.315-.994.762-.92.646.249.621,1.194.349,3.506.349,4.152-.224,2.735.373,2.785l.174-.025s.2-2.437.2-3.183-.273-3.381.149-3.754.969-.373,1.069.9.249,2.337.373,3.307a10.055,10.055,0,0,1,0,2.163c-.024.423-.149,1.442.3,1.492s.771-1.864.994-2.709.373-2.76,1.194-2.586.249,2.486.1,3.605a30.8,30.8,0,0,0-.4,3.9,15.685,15.685,0,0,1-.971,5.756c-.894,2.163-.3,33.922-.186,35.525h-6Z" transform="translate(-921.041 -374.255)" fill="#f3c42e"/>
      </g>
      <g id="Grupo_72" data-name="Grupo 72" transform="translate(43.817 24.939)">
        <path id="Trazado_378" data-name="Trazado 378" d="M856.926,396.4a39.387,39.387,0,0,0-.174-5.122c-.249-.87-2.014-2.909-2.859-4.077s-.8-1.814-1.343-2.586a8.99,8.99,0,0,1-1.094-1.74c-.224-.547-.845-1.169-.3-1.417s1.044-.224,1.79.6,1.367,2.337,1.964,2.262.8-.9.721-2.139a16.332,16.332,0,0,0-.647-2.511c-.1-.8-.472-3.207-.5-3.879s.174-1.268.522-1.318.746.224,1.019,1.517.618,2.362.906,3.729.611,1.292.785,1.118a13.158,13.158,0,0,0,0-2.859c-.025-.969.092-3.63.083-4.276s.315-.995.762-.92.646.249.621,1.194.349,3.506.349,4.152-.224,2.735.373,2.784l.174-.025s.2-2.436.2-3.182-.274-3.381.149-3.754.97-.373,1.069.9.249,2.337.373,3.306a10.032,10.032,0,0,1,0,2.164c-.024.423-.149,1.442.3,1.492s.771-1.864.994-2.71.373-2.759,1.194-2.585.249,2.486.1,3.605a30.89,30.89,0,0,0-.4,3.9,15.66,15.66,0,0,1-.971,5.756c-.894,2.163-.3,33.921-.186,35.525h-6Z" transform="translate(-850.939 -372.775)" fill="#ef6852" opacity="0.8"/>
      </g>
      <g id="Grupo_73" data-name="Grupo 73" transform="translate(56.461 12.007)">
        <path id="Trazado_379" data-name="Trazado 379" d="M878.188,374.66a39.4,39.4,0,0,0-.174-5.122c-.249-.87-2.014-2.909-2.859-4.077s-.8-1.814-1.343-2.586a8.992,8.992,0,0,1-1.094-1.74c-.224-.547-.846-1.169-.3-1.417s1.044-.224,1.79.6,1.367,2.337,1.964,2.263.8-.9.721-2.139a16.263,16.263,0,0,0-.646-2.511c-.1-.8-.472-3.207-.5-3.879s.174-1.268.522-1.318.746.224,1.019,1.517.618,2.362.905,3.729.611,1.292.786,1.118a13.166,13.166,0,0,0,0-2.859c-.025-.969.092-3.63.083-4.277s.314-.994.762-.919.646.249.621,1.193.349,3.506.349,4.152-.224,2.735.373,2.784l.174-.025s.2-2.437.2-3.182-.274-3.381.149-3.754.969-.373,1.069.9.249,2.337.373,3.306a10.064,10.064,0,0,1,0,2.164c-.024.423-.149,1.442.3,1.491s.771-1.864.994-2.71.374-2.759,1.194-2.585.249,2.486.1,3.6a30.776,30.776,0,0,0-.4,3.9,15.689,15.689,0,0,1-.971,5.756c-.895,2.163-.3,33.921-.186,35.525h-6Z" transform="translate(-872.2 -351.03)" fill="#4463cd" opacity="0.7"/>
      </g>
      <g id="Grupo_74" data-name="Grupo 74" transform="translate(76.258 12.294)">
        <path id="Trazado_380" data-name="Trazado 380" d="M913.355,375.143a39.4,39.4,0,0,1,.174-5.122c.249-.87,2.014-2.909,2.859-4.077s.8-1.814,1.343-2.586a9.026,9.026,0,0,0,1.094-1.74c.224-.547.845-1.169.3-1.417s-1.044-.224-1.791.6-1.367,2.337-1.964,2.262-.8-.9-.721-2.139a16.335,16.335,0,0,1,.646-2.511c.1-.8.472-3.207.5-3.879s-.174-1.268-.522-1.317-.746.224-1.019,1.516-.618,2.362-.906,3.729-.611,1.293-.786,1.119a13.2,13.2,0,0,1,0-2.859c.025-.969-.092-3.63-.083-4.276s-.315-.995-.762-.92-.646.249-.621,1.194-.348,3.506-.348,4.152.224,2.735-.374,2.784l-.174-.024s-.2-2.436-.2-3.183.274-3.381-.149-3.754-.969-.373-1.069.9-.249,2.337-.373,3.307a10.092,10.092,0,0,0,0,2.163c.025.423.149,1.442-.3,1.492s-.771-1.864-.995-2.71-.373-2.759-1.193-2.585-.249,2.486-.1,3.605a30.91,30.91,0,0,1,.4,3.9,15.669,15.669,0,0,0,.97,5.756c.895,2.163.3,33.921.186,35.525h6Z" transform="translate(-905.489 -351.513)" fill="#3fb2a5" opacity="0.8"/>
      </g>
      <g id="Grupo_75" data-name="Grupo 75" transform="translate(115.054 25.226)" opacity="0.7">
        <path id="Trazado_381" data-name="Trazado 381" d="M978.591,396.888a39.375,39.375,0,0,1,.174-5.122c.249-.871,2.014-2.909,2.859-4.078s.8-1.814,1.343-2.586a8.988,8.988,0,0,0,1.094-1.74c.224-.547.845-1.169.3-1.417s-1.044-.224-1.79.6-1.367,2.337-1.964,2.262-.8-.9-.721-2.139a16.27,16.27,0,0,1,.646-2.511c.1-.8.472-3.207.5-3.879s-.174-1.268-.522-1.317-.746.224-1.019,1.517-.618,2.362-.905,3.729-.611,1.293-.786,1.119a13.165,13.165,0,0,1,0-2.859c.025-.969-.092-3.63-.083-4.276s-.314-.994-.762-.92-.646.249-.621,1.194-.348,3.506-.348,4.152.224,2.735-.373,2.785l-.174-.025s-.2-2.436-.2-3.183.274-3.381-.149-3.754-.97-.373-1.069.9-.249,2.337-.373,3.307a10.027,10.027,0,0,0,0,2.163c.024.423.149,1.442-.3,1.492s-.771-1.864-.994-2.71-.373-2.759-1.194-2.585-.249,2.486-.1,3.605a30.9,30.9,0,0,1,.4,3.9,15.671,15.671,0,0,0,.971,5.756c.894,2.163.3,33.922.186,35.525h6Z" transform="translate(-970.725 -373.258)" fill="#4463cd" opacity="0.8"/>
      </g>
      <g id="Grupo_76" data-name="Grupo 76" transform="translate(93.749 1.105)" opacity="0.8">
        <path id="Trazado_382" data-name="Trazado 382" d="M943.5,366.637s.107-6.107-.25-7.357-2.892-4.179-4.107-5.857-1.142-2.606-1.928-3.714a12.968,12.968,0,0,1-1.572-2.5c-.321-.786-1.214-1.678-.428-2.035s1.5-.322,2.572.857,1.964,3.357,2.821,3.25,1.143-1.286,1.036-3.071-.786-2.464-.929-3.607-.678-4.607-.714-5.571.25-1.82.75-1.892,1.071.322,1.464,2.179.888,3.392,1.3,5.357.878,1.857,1.128,1.606.036-2.714,0-4.106.132-5.214.119-6.142.452-1.428,1.095-1.321.929.357.893,1.714.5,5.035.5,5.963-.321,3.929.536,4l.25-.036s.286-3.5.286-4.571-.393-4.856.214-5.392,1.393-.536,1.535,1.285.358,3.357.535,4.749a14.411,14.411,0,0,1,0,3.107c-.034.608-.214,2.071.429,2.142s1.107-2.677,1.428-3.892.536-3.964,1.714-3.714.357,3.571.143,5.178a44.417,44.417,0,0,0-.571,5.606,22.519,22.519,0,0,1-1.393,8.267c-1.285,3.107-.428,48.721-.268,51.025h-8.624Z" transform="translate(-934.901 -332.698)" fill="#ef6852" opacity="0.9"/>
      </g>
    </g>
  </g>
  <path id="Trazado_383" data-name="Trazado 383" d="M545.017,333.549a6.366,6.366,0,0,0,.224-2.037c.04-1.659-.805-.956-.828-.6a6.01,6.01,0,0,0-5.026,2.432c-2.183,2.744-3.989,4.761-5.143,10.262s1.905,12.884,3.708,14.344,4.764,3.916,7.571,4.264,8.459-.884,8.459-.884l.562-.427a1.9,1.9,0,0,0,1.286-.811,3.07,3.07,0,0,0,.972-2.51c-.071-1.189-.788-1.41-1.22-1.275a18.826,18.826,0,0,1-5.936,1.6,11.465,11.465,0,0,1-9.97-5.478c-2.348-3.986-1.546-9.74-.707-11.492a15.9,15.9,0,0,1,3.471-4.868A29.957,29.957,0,0,0,545.017,333.549Z" transform="translate(-533.99 -328.586)" fill="#539af4"/>
  <path id="Trazado_384" data-name="Trazado 384" d="M580.814,328.8s.224-1.555-1.857-1.481-1.724,3.574-1.724,3.574-.818,12.481-.373,18.647.106,6.16,1.845,6.466,11.16-.23,11.8-.712.447-.719.437-3.07c-.007-1.624-4.327-.975-4.4-1s-3.942.2-3.942.2a1.794,1.794,0,0,1-1.443-1.48C580.825,347.775,580.814,328.8,580.814,328.8Z" transform="translate(-551.311 -327.312)" fill="#539af4"/>
  <path id="Trazado_385" data-name="Trazado 385" d="M592.1,344.424s.054,1.835-.253,2.132a2.753,2.753,0,0,1-3.09.338s-.3-.793.322-7.117S589.9,331,589.9,331a2.827,2.827,0,0,1,2.208-3.051c2.478-.585,3.04.845,3.04.845l4.435,18.453s-.134.959-3.606,1.429a34.034,34.034,0,0,0-1.463-4.086A1.457,1.457,0,0,0,592.1,344.424Z" transform="translate(-556.157 -327.515)" fill="#539af4"/>
  <path id="Trazado_386" data-name="Trazado 386" d="M617.079,328.646c1.041.309,4.758,1.7,4.994,8.682a13.932,13.932,0,0,1-4.171,10.718s3.562-.456,3.036,6.277-8.543,9.176-9.927,8.579-1.092-2.773-1.092-2.773l.395-30.446C610.326,328.8,616.039,328.336,617.079,328.646ZM614,332.289l-.213,16.5s4.139-2.012,4.089-9.559S614,332.289,614,332.289Zm-.213,17.847.121,9.473s3.73-1.834,3.6-5.7A3.643,3.643,0,0,0,613.783,350.136Z" transform="translate(-564.753 -327.813)" fill="#539af4"/>
  <path id="Trazado_387" data-name="Trazado 387" d="M664.871,328.835c2.007.326,5.129,1.458,5.183,7a13.428,13.428,0,0,1-3.1,8.863l6.173,8.385s.291,2.935-1.928,2.911-7.167-9.035-7.167-9.035l-1.628.412s.6,10.189.779,11.62-1.732,2.529-3.07,2.541-1.058-2.454-1.058-2.454l.434-28.956S662.864,328.509,664.871,328.835Zm-2.125,2.275v14.072s4.285-3.437,3.317-8.754S664.189,331.111,662.746,331.111Z" transform="translate(-584.668 -327.911)" fill="#539af4"/>
  <path id="Trazado_388" data-name="Trazado 388" d="M682.816,330.253a23.3,23.3,0,0,1,2.461-.385c.792-.039,1.418,3.747,1.418,3.747s3.408,16.722,3.824,18.224-.734,1.66-2.2,1.9-1.462-1.673-1.462-1.673-.37-2.2-.759-4.469-1.455-1.665-1.455-1.665l-1.3-.076s-1.411-.33-1.378,1.539-.539,1.864-1.5,1.941S679.306,348,679.306,348Zm0,12.818,2.14-.471-.84-6.385Z" transform="translate(-592.886 -328.348)" fill="#539af4"/>
  <path id="Trazado_389" data-name="Trazado 389" d="M699.729,335.932s.443-2.372-.7-2.173-3.175.878-3.715-.316a2.387,2.387,0,0,1,1.958-3.415c2.068-.215,9.292-.357,9.292-.357s2.638-.516,2.656,1.7-3.886,2.005-3.886,2.005-2.353-.564-2.36,1.069.119,12.661.119,12.661l.3,8.41a1.336,1.336,0,0,1-1.238,1.561,21.31,21.31,0,0,1-2.5,0s-.15-.086-.1-1.671S699.729,335.932,699.729,335.932Z" transform="translate(-599.287 -328.247)" fill="#539af4"/>
  <path id="Trazado_390" data-name="Trazado 390" d="M743.594,331.353c4.075-.586,8.808,1.437,9.111,7.189a9.482,9.482,0,0,1-3.625,8.346c2.694,2.127,5.023,1.58,6.06,2.013s.951,1.207.513,2.42-.7,1.644-2.636,1.166a24.441,24.441,0,0,1-6.479-3.077c-1.354-.981-1.735.232-1.735.232s.164,2.96.262,4.437-2.378,1.511-3.467.966-.93-3.505-.93-3.505l-.117-18.749S739.519,331.94,743.594,331.353Zm.482,3.593v11.737s4.542-.342,4.368-5.568S744.077,334.945,744.077,334.945Z" transform="translate(-617.66 -328.91)" fill="#539af4"/>
  <path id="Trazado_391" data-name="Trazado 391" d="M764.1,333.543l.057,11.607s0,.869,1.245.668,2.156.245,2.129-1.914-.361-10.361-.361-10.361A2,2,0,0,0,764.1,333.543Z" transform="translate(-627.252 -329.542)" fill="#539af4"/>
  <path id="Trazado_392" data-name="Trazado 392" d="M575.525,382.453l.2,4.974s-7.088-.37-7.135,8.946,8.956,9.336,10.536,8.785,4.213-1.471,5.587-3.295c0,0,2.533-.485,1.507,3.752s-10.038,5.415-12.933,4.34-8.707-2.625-9.7-13.109S570.171,381.814,575.525,382.453Z" transform="translate(-545.948 -349.636)" fill="#539af4"/>
  <path id="Trazado_393" data-name="Trazado 393" d="M590.412,385.194c-2.177.342-2.382,2.321-2.359,3.34s.385,10.527.385,10.527-.112,2,1.5,1.806,2.827-.023,2.829-2.621-.211-12.326-.211-12.326S592.595,384.851,590.412,385.194Z" transform="translate(-555.901 -350.743)" fill="#539af4"/>
  <path id="Trazado_394" data-name="Trazado 394" d="M601.128,386.669s-.866,9.826,1.724,14.235,6.281,5.6,9.527,5.375,8.044-2.981,8.652-8.031a120.758,120.758,0,0,0,.5-12.748l-5.528.261s1.6,15.021-3.624,14.908-5.848-3.664-6.219-13.894A6.4,6.4,0,0,0,601.128,386.669Z" transform="translate(-561.144 -350.895)" fill="#539af4"/>
  <path id="Trazado_395" data-name="Trazado 395" d="M642.516,380.12c4.353-.743,9.028,2.453,10.148,8.729s-.376,11.045-4.915,13.982-7.548,2.117-7.548,2.117l-.846-23.933C640.1,380.2,642.516,380.12,642.516,380.12Zm.648,3.727,1.021,17.079s4.77-1.774,4.243-8.539S644.969,383.931,643.165,383.847Z" transform="translate(-576.694 -348.672)" fill="#539af4"/>
  <path id="Trazado_396" data-name="Trazado 396" d="M664.041,394.555l3.511-17.356s.472-.869,2.137-.567l2.728.5s.441-.481,1.254,4.6,2.821,15.558,2.821,15.558a2.312,2.312,0,0,1-1.738,2.938c-2.428.727-2.255-2-2.255-2l-1.266-5.9-3.12-.046s-.837-.294-1.1,1.848-.024,2.864-1.594,2.762S664.041,394.555,664.041,394.555Zm4.073-6.1,2.552-.551-1.177-6.972Z" transform="translate(-586.696 -347.275)" fill="#539af4"/>
  <path id="Trazado_397" data-name="Trazado 397" d="M694.241,378.123c4.553,1.858,7.267,9.664,4.736,16.925a11.74,11.74,0,0,1-9.96,8.116,1.316,1.316,0,0,1-1.549-.686l-.219-23.493S689.688,376.265,694.241,378.123Zm-3.327,3.217.27,17.186s3.8-.96,3.941-8.192S692.438,381.436,690.914,381.341Z" transform="translate(-596.105 -347.642)" fill="#539af4"/>
  <path id="Trazado_398" data-name="Trazado 398" d="M709.822,398.75l2.579-22.422s-.064-.855,1.895-1.287,3.163-1.1,3.554,1.705,3.327,20.635,3.327,20.635.193,1.464-2.86,1.756c0,0-1.072.373-1.357-2.269,0,0,.059-2.136-1.151-1.861a9.719,9.719,0,0,0-2.15.771l-.279,2.181a2,2,0,0,1-1.982,1.689C709.613,399.725,709.822,398.75,709.822,398.75Zm4.128-6.929,1.974-.647-1.371-6.338Z" transform="translate(-605.25 -346.496)" fill="#539af4"/>
  <path id="Trazado_399" data-name="Trazado 399" d="M731.048,374.4s.585-1.3,2.588-.429,6.626,10.653,6.626,10.653l1.117-12.443s-.1-.528,1.26-.658a2.115,2.115,0,0,1,1.308-.282c.686.11-1.539,20.193-1.539,20.193s-.065,2.269-1.894,1.76-7.552-14.024-7.552-14.024l-.211,8.63a1.546,1.546,0,0,1-1.794,1.23c-1.638-.061-1.283-2.72-1.283-2.72Z" transform="translate(-613.287 -345.109)" fill="#539af4"/>
  <path id="Trazado_400" data-name="Trazado 400" d="M646.811,344.7c.15,8.891-6.394,9.484-6.394,9.484s-8.1,1.251-8.327-6.153,2.231-11.627,6.716-11.857C638.807,336.179,646.661,335.813,646.811,344.7Zm-7.366-5.268c-3.36-.139-3.513,3.9-3.444,5.832s-.332,5.132,3,5.377,4.244-3.973,4.074-5.609S642.9,339.578,639.445,339.436Z" transform="translate(-573.744 -330.905)" fill="#539af4"/>
  <path id="Trazado_401" data-name="Trazado 401" d="M726.327,345.564c.364,6.2-2.977,9.114-6.922,9.528s-7.418-2.175-8-7.823,2.645-9.6,7.53-9.819C723.688,337.235,725.963,339.366,726.327,345.564Zm-7.169-4.912c-4.06.157-3.229,6.479-3.229,6.479s-.139,4.723,3.379,4.645,3.671-4.038,3.524-5.7S722.824,340.511,719.159,340.653Z" transform="translate(-605.866 -331.415)" fill="#539af4"/>
  <path id="Trazado_402" data-name="Trazado 402" d="M788.65,342.983c0,4-2.849,8.685-7.6,8.864s-7.4-3.217-7.668-7.906,2.271-11.572,7.668-11.381C788.821,332.837,788.652,338.978,788.65,342.983Zm-7.389-7.189c-3.847.241-4.031,4.56-3.954,6.4s.067,6.731,3.7,6.879,4.077-4.723,4.089-6.879S785.215,335.546,781.261,335.794Z" transform="translate(-631.007 -329.437)" fill="#539af4"/>
  <path id="Trazado_403" data-name="Trazado 403" d="M772.209,382.682c-1.186,7.621-5.8,11.112-10.3,10.495s-6.656-3.992-6.79-9.794,4.693-11.584,10.225-11.047C768.676,372.66,773.4,375.061,772.209,382.682Zm-7.224-7.075c-4.173.533-5.07,4.626-5.374,7.682s.756,6.023,2.8,6.324,4.823-1.046,5.665-6.766S766.817,375.373,764.986,375.607Z" transform="translate(-623.613 -345.546)" fill="#539af4"/>
  <path id="Trazado_404" data-name="Trazado 404" d="M563.654,347.972c-.673,5.463-2.672,7.843-6.912,7.594s-6.093-1.535-6.695-6.26,3.219-9.782,7-9.432C560.686,340.212,564.327,342.508,563.654,347.972Zm-6.794-4.3a3.676,3.676,0,0,0-2.844,4.231c.06.985.367,4.415,2.844,3.96s2.3-2.233,2.349-4.781S557.945,343.408,556.86,343.673Z" transform="translate(-540.472 -332.396)" fill="#539af4"/>
</svg>
