<svg id="Componente_8_1" data-name="Componente 8 – 1" xmlns="http://www.w3.org/2000/svg" xmlns:xlink="http://www.w3.org/1999/xlink" width="218.19" height="192.572" viewBox="0 0 218.19 192.572">
  <defs>
    <linearGradient id="linear-gradient" x1="8.246" y1="0.5" x2="9.246" y2="0.5" gradientUnits="objectBoundingBox">
      <stop offset="0" stop-color="#efbde4"/>
      <stop offset="1" stop-color="#ffd3fa"/>
    </linearGradient>
  </defs>
  <ellipse id="Elipse_1" data-name="Elipse 1" cx="109.095" cy="5.507" rx="109.095" ry="5.507" transform="translate(0 177.254)" fill="#abb9c1"/>
  <path id="Trazado_1" data-name="Trazado 1" d="M697.149,1482.125c-3.163,1.006-3.629,3.844-6.091,6.069l17.886,18.773,2.941-2.652S697.514,1483.47,697.149,1482.125Z" transform="translate(-546.314 -1408.489)" fill="#592c13"/>
  <g id="Grupo_1" data-name="Grupo 1" transform="translate(158.914 95.95)">
    <path id="Trazado_2" data-name="Trazado 2" d="M728.263,1656.2a.866.866,0,1,1-1.732.02c-.085-7.688-.606-34.622.047-55h2.139C728.178,1617.765,728.1,1639.872,728.263,1656.2Z" transform="translate(-726.253 -1575.59)" fill="#115766"/>
    <path id="Trazado_3" data-name="Trazado 3" d="M743.042,1634.172H741.3c-.114-35.172-.615-57.2-1.524-70.987-.124-1.922-.256-3.683-.4-5.3-.975-11.238-2.329-15.356-4.043-16.842a2.782,2.782,0,0,0-4.478,1.751,148.876,148.876,0,0,0-1.164,15.091h-2.139c.464-10.385,1.325-18.111,2.84-18.973,5.623-3.2,8.1-1.61,10.253,14.069C742.6,1567.257,742.986,1623.19,743.042,1634.172Z" transform="translate(-727.03 -1537.55)" fill="#115766"/>
  </g>
  <path id="Trazado_4" data-name="Trazado 4" d="M685.79,1420.43c-2.48-.512,1.088,30.37,1.088,30.37l.509.534a22.832,22.832,0,0,1,8.549-4.7C693.85,1438.95,689.044,1421.1,685.79,1420.43Z" transform="translate(-542.643 -1371.629)" fill="#675833"/>
  <path id="Trazado_5" data-name="Trazado 5" d="M634.8,1676.22s-4.357,15.9-3.269,20.9.776,8.663,2.532,9.248c3.551,1.182.553,3-5.673,1.4-.843-.216-5.682-8.032-6-9.964-.341-2.059,4.367-1.583,2.846-7.452s-.98-16.763-.98-16.763Z" transform="translate(-505.279 -1522.873)" fill="#592c13"/>
  <path id="Trazado_6" data-name="Trazado 6" d="M633.529,1739.4a1.212,1.212,0,0,1-.5-.3,2.226,2.226,0,0,1-2.628.455c-1.216-.472-5.788-8.408-7.076-10.679-1.486.571-1.966,1.073-1.819,1.959.32,1.933,5.214,10.045,6.058,10.261C633.786,1742.689,637.775,1740.506,633.529,1739.4Z" transform="translate(-504.747 -1555.897)" fill="#22214b"/>
  <path id="Trazado_7" data-name="Trazado 7" d="M685.186,1685.844c1.03,4.118,6.864,15.136,8.024,20.071.6,2.563,2.983-.634,7.075-.424s9.433-2.332,10.323-3.817-10.844.037-13.194-4.424-4.922-19.319-4.922-19.319S684.156,1681.725,685.186,1685.844Z" transform="translate(-542.753 -1525.463)" fill="#7c4532"/>
  <path id="Trazado_8" data-name="Trazado 8" d="M721.9,1735.246c.413-.687-2.028-.585-4.844-.876a1.458,1.458,0,0,1-.464.775c-.889.889-9.885,2.1-12.835,2.48a18.181,18.181,0,0,0,.3,2.159c.6,2.563,3.287-.55,7.379-.34S721.011,1736.73,721.9,1735.246Z" transform="translate(-553.902 -1559.18)" fill="#22214b"/>
  <g id="Grupo_26" data-name="Grupo 26" transform="translate(11.772)">
    <path id="Trazado_9" data-name="Trazado 9" d="M507.621,1602.756s-5.7-13.531-5.917-14.706c-4.888.792-5.361,8.949-7.6,16.662l16.059,46.257s4.493-2.009,6.143-2.152c-.082-.13-.177-.252-.252-.389C513.368,1643.5,507.621,1602.756,507.621,1602.756Z" transform="translate(-440.426 -1471.769)" fill="#fd5e5a"/>
    <path id="Trazado_10" data-name="Trazado 10" d="M485.3,1496.577l-13.194-1.961c.361,1.491,1.754,18.962,1.771,19.735.492,22.039,4.132,36,4.132,36,4.489-1.7,12.388-5.154,17.276-5.946C493.959,1537.321,487.951,1512.04,485.3,1496.577Z" transform="translate(-427.287 -1415.951)" fill="#929087"/>
    <g id="Grupo_2" data-name="Grupo 2" transform="translate(50.1 126.42)">
      <path id="Trazado_11" data-name="Trazado 11" d="M486.083,1622.981l-.866-3.427c.961-.364,2.079-.808,3.291-1.29,4.59-1.825,10.586-4.379,14.611-5.031l.754,3.488c-3.642.591-9.626,3.073-14.056,4.834C488.584,1622.045,487.061,1622.61,486.083,1622.981Z" transform="translate(-485.217 -1613.233)" fill="#6e6c65"/>
    </g>
    <g id="Grupo_6" data-name="Grupo 6" transform="translate(68.308 171.641)">
      <path id="Trazado_12" data-name="Trazado 12" d="M531.083,1741.976l6.758-1.368c2.783-.564,7.278-1.18,8.67-1.462s5.88-4.071,5.37-4.909-5.037.314-7.623-.22-6.353-2.941-7.408-2.658c-.882.235-5.275,2.059-5.936,2.9S530.271,1741.524,531.083,1741.976Z" transform="translate(-530.444 -1729.007)" fill="#095270"/>
      <path id="Trazado_13" data-name="Trazado 13" d="M550.712,1737.757h0c-1.016.473-2.476,2.671-5.112,3.868-2.049.93-11.027,1.848-14.926,2.21.1,1.031.28,1.827.548,1.976l6.758-1.369c2.783-.563,7.278-1.18,8.67-1.461s5.88-4.072,5.37-4.91C551.87,1737.831,551.387,1737.755,550.712,1737.757Z" transform="translate(-530.58 -1732.844)" fill="#abfbdc"/>
      <path id="Trazado_14" data-name="Trazado 14" d="M547.061,1731.734a2.478,2.478,0,0,0,2.869-1.234c-2.133-1.99-3.5-3.906-3.994-4.331a1.749,1.749,0,0,0-2.657-.014c-1.341,1.087-2.259,3.013-1.6,3.233A42.707,42.707,0,0,0,547.061,1731.734Z" transform="translate(-537.025 -1725.553)" fill="#9cb9c5"/>
      <g id="Grupo_3" data-name="Grupo 3" transform="translate(11.362 4.627)">
        <path id="Trazado_15" data-name="Trazado 15" d="M558.731,1739.3a.148.148,0,0,1-.065-.113c-.025-1.585,2.182-2.115,2.275-2.137a.2.2,0,0,1,.209.093.1.1,0,0,1-.074.158c-.021,0-2.118.51-2.1,1.931,0,.071-.068.118-.155.105A.211.211,0,0,1,558.731,1739.3Z" transform="translate(-558.666 -1737.046)" fill="#abfbdc"/>
      </g>
      <g id="Grupo_4" data-name="Grupo 4" transform="translate(9.422 3.854)">
        <path id="Trazado_16" data-name="Trazado 16" d="M553.9,1738.01a.13.13,0,0,1-.057-.117c.1-1.177,2.732-2.677,2.844-2.74a.188.188,0,0,1,.24.037.143.143,0,0,1-.063.208c-.719.406-2.6,1.646-2.67,2.491a.193.193,0,0,1-.293.121Z" transform="translate(-553.846 -1735.125)" fill="#abfbdc"/>
      </g>
      <g id="Grupo_5" data-name="Grupo 5" transform="translate(8.518 3.07)">
        <path id="Trazado_17" data-name="Trazado 17" d="M551.661,1736.169a.132.132,0,0,1-.058-.1c-.077-1.016,2.494-2.674,2.788-2.86a.189.189,0,0,1,.241.026.135.135,0,0,1-.043.205c-.753.478-2.695,1.873-2.64,2.6a.165.165,0,0,1-.161.162A.186.186,0,0,1,551.661,1736.169Z" transform="translate(-551.601 -1733.179)" fill="#abfbdc"/>
      </g>
    </g>
    <path id="Trazado_18" data-name="Trazado 18" d="M390.688,1618.671s-15.174,33.238-17.524,35.374a51.846,51.846,0,0,0-3.7,3.661,11.356,11.356,0,0,1,4.2,3.967c1.382,2.442,2.855,5.612,9.909,5.612s-2.855-1.188-3.695-3.171-1.343-8.849-1.343-8.849l22.778-29.38,4.737-11.058a60.56,60.56,0,0,0-11.46-8.269Z" transform="translate(-365.969 -1482.825)" fill="#fc7575"/>
    <g id="Grupo_10" data-name="Grupo 10" transform="translate(0 172.141)">
      <path id="Trazado_19" data-name="Trazado 19" d="M360.819,1735.6l6.462,2.406c2.661.991,6.8,2.84,8.135,3.336s7.144-.354,7.153-1.334-4.444-2.392-6.358-4.212-3.842-5.851-4.887-6.168c-.874-.266-5.568-1.037-6.572-.672S360.367,1734.787,360.819,1735.6Z" transform="translate(-360.777 -1728.029)" fill="#095270"/>
      <path id="Trazado_20" data-name="Trazado 20" d="M381.626,1746.133h0c-1.113-.134-3.514.961-6.384.586-2.231-.291-10.341-4.252-13.844-6-.46.928-.726,1.7-.578,1.968l6.462,2.406c2.661.99,6.8,2.84,8.135,3.336s7.144-.354,7.153-1.334C382.571,1746.808,382.2,1746.488,381.626,1746.133Z" transform="translate(-360.777 -1735.112)" fill="#abfbdc"/>
      <path id="Trazado_21" data-name="Trazado 21" d="M384.557,1733.564a2.478,2.478,0,0,0,3.088.467c-.761-2.816-.908-5.164-1.106-5.787-.22-.693-.537-1.632-2.249-1.416s-3.509,1.367-3.065,1.9A42.526,42.526,0,0,0,384.557,1733.564Z" transform="translate(-372.952 -1726.797)" fill="#9cb9c5"/>
      <g id="Grupo_7" data-name="Grupo 7" transform="translate(12.404 7.138)">
        <path id="Trazado_22" data-name="Trazado 22" d="M391.6,1745.484a.147.147,0,0,1,0-.129c.816-1.36,2.97-.646,3.06-.614a.2.2,0,0,1,.13.189.1.1,0,0,1-.147.1c-.02-.007-2.068-.685-2.8.534a.12.12,0,0,1-.187.007A.212.212,0,0,1,391.6,1745.484Z" transform="translate(-391.588 -1744.526)" fill="#abfbdc"/>
      </g>
      <g id="Grupo_8" data-name="Grupo 8" transform="translate(10.827 5.984)">
        <path id="Trazado_23" data-name="Trazado 23" d="M387.681,1742.622a.13.13,0,0,1,.013-.13c.7-.948,3.733-.831,3.862-.825a.187.187,0,0,1,.184.158.144.144,0,0,1-.164.144c-.825-.035-3.077.024-3.583.706a.184.184,0,0,1-.239.03A.18.18,0,0,1,387.681,1742.622Z" transform="translate(-387.669 -1741.66)" fill="#abfbdc"/>
      </g>
      <g id="Grupo_9" data-name="Grupo 9" transform="translate(10.419 4.823)">
        <path id="Trazado_24" data-name="Trazado 24" d="M386.668,1739.848a.133.133,0,0,1,0-.115c.472-.9,3.53-.955,3.878-.958a.19.19,0,0,1,.19.15.136.136,0,0,1-.145.152c-.891.008-3.277.168-3.612.81a.166.166,0,0,1-.223.052A.183.183,0,0,1,386.668,1739.848Z" transform="translate(-386.656 -1738.775)" fill="#abfbdc"/>
      </g>
    </g>
    <path id="Trazado_25" data-name="Trazado 25" d="M453.284,1501.6l-24.25.519-1.008,15.953-9.759,29.013c4.521.947,15.034,3.557,18.494,6.595l13.314-36.281Z" transform="translate(-395.122 -1420.127)" fill="#c2c0b4"/>
    <g id="Grupo_11" data-name="Grupo 11" transform="translate(22.243 125.231)">
      <path id="Trazado_26" data-name="Trazado 26" d="M434.816,1620.277c-2.571-2.256-11.839-5.269-18.791-6.725l1.265-3.273c2.484.52,15.09,3.3,19.3,7Z" transform="translate(-416.025 -1610.279)" fill="#cecdc3"/>
    </g>
    <g id="Grupo_17" data-name="Grupo 17" transform="translate(31.503)">
      <path id="Trazado_27" data-name="Trazado 27" d="M499.416,1392.875c0-4.678-4.136-8.379-6.275-7.374-6.878,3.231-8.7,16.914-8.548,25.926,3.465-1.108,9.378-1,12.954-.929A108.384,108.384,0,0,0,499.416,1392.875Z" transform="translate(-466.242 -1350.667)" fill="#ae7da7"/>
      <g id="Grupo_16" data-name="Grupo 16">
        <path id="Trazado_28" data-name="Trazado 28" d="M464.588,1369.961s8.406,5.467,8.406,8.679-4.2,14.343-4.2,20.085,1.813,38.954,1.813,38.954-4.412-4.164-16.881-5.86c-6.635-.9-14.7,2.326-14.7,2.326s1.544-34.334,3.545-45.515,6.032-18.762,7.708-20.438S457.583,1366.276,464.588,1369.961Z" transform="translate(-439.027 -1339.728)" fill="url(#linear-gradient)"/>
        <g id="Grupo_15" data-name="Grupo 15" transform="translate(19.021)">
          <path id="Trazado_29" data-name="Trazado 29" d="M496.468,1341.434l-1.887,13.349a2.312,2.312,0,0,1-1.2,1.721c-1.53.808-5.34.138-6.916-2.344-1.221-1.922,3.888-13.786,3.888-13.786A23.74,23.74,0,0,1,496.468,1341.434Z" transform="translate(-486.273 -1323.808)" fill="#fc7575"/>
          <path id="Trazado_30" data-name="Trazado 30" d="M495.535,1340.374s-.2.512-.515,1.359a23.388,23.388,0,0,0,.109,4.719c.327,2,2.455,5.56,4.946,6.145l1.577-11.162A23.74,23.74,0,0,0,495.535,1340.374Z" transform="translate(-491.458 -1323.808)" fill="#fd5e5a"/>
          <g id="Grupo_14" data-name="Grupo 14" transform="translate(0.064)">
            <path id="Trazado_31" data-name="Trazado 31" d="M499.733,1299.745c-1.5,1.506-2.861,3.71-1.331,5.169-1.79-1.319-.615-3.953.743-5.688Z" transform="translate(-493.04 -1299.226)" fill="#001959"/>
            <path id="Trazado_32" data-name="Trazado 32" d="M505.295,1318.141s2.766.788,2.5,4.339-3.573,12.985-6.538,13.435-5.744-3.424-6.122-5.456a21.823,21.823,0,0,1-.008-5.282S497.065,1312.507,505.295,1318.141Z" transform="translate(-491.525 -1309.663)" fill="#fc7575"/>
            <path id="Trazado_33" data-name="Trazado 33" d="M486.433,1322.567s.538.88,1.448-.011c0,0,2.11-2.054.921-4.059s-3.032-4.788-2.106-7.954,4.878-2.516,4.878-2.516,1.455-4.847,6.723-2.32c0,0,1.222-.9,4.433-.254s2.154,2.265,4.065,2.267,2.406-1.387,1.715-2.067c0,0,2.962,1.943,2.96,4.528s-4.944,1.934-4.944,1.934,3.886,1.142.591,2.315-4.761.913-6.332-1.158-2.493-2.653-3.547-2.4-1.057,2.456-2.573,2.453-3.1,3.682-3.1,3.682-1.083-.556-1.466,2.145-.287,4.415-2,4.413S486.433,1322.567,486.433,1322.567Z" transform="translate(-486.433 -1302.662)" fill="#172866"/>
            <path id="Trazado_34" data-name="Trazado 34" d="M495.285,1326.745c-.855-.24-3.053.061-1.749,3.037s3.282.389,3.284-.831A2.312,2.312,0,0,0,495.285,1326.745Z" transform="translate(-490.435 -1315.627)" fill="#fc7575"/>
            <path id="Trazado_35" data-name="Trazado 35" d="M513.86,1339.709c-.468,1.587-.718,3.162-1.311,4.623-.38-.056-.765-.1-1.155-.119a13.534,13.534,0,0,0,1.365.591A12.949,12.949,0,0,0,513.86,1339.709Z" transform="translate(-501.345 -1323.41)" fill="#001959"/>
            <g id="Grupo_12" data-name="Grupo 12" transform="translate(7.405 13.705)">
              <path id="Trazado_36" data-name="Trazado 36" d="M509.345,1335.281a.2.2,0,0,1-.2-.177,1.7,1.7,0,0,0-.873-1.186c-.684-.409-2.558-.245-3.223-.147a.194.194,0,1,1-.058-.384c.1-.015,2.543-.366,3.487.2a2.082,2.082,0,0,1,1.061,1.482.2.2,0,0,1-.18.21Z" transform="translate(-504.826 -1333.266)" fill="#001959"/>
            </g>
            <path id="Trazado_37" data-name="Trazado 37" d="M506.017,1352.041s2.681,1.361,4.361,1.241a2.444,2.444,0,0,1-1.509,1.4A2.618,2.618,0,0,1,506.017,1352.041Z" transform="translate(-498.132 -1330.777)" fill="#fff"/>
            <path id="Trazado_38" data-name="Trazado 38" d="M494.961,1329.845s-.151,1.938.8,2.069,1.418-1.258.891-2.067S494.962,1329.285,494.961,1329.845Z" transform="translate(-491.522 -1317.209)" fill="#fd5e5a"/>
            <path id="Trazado_39" data-name="Trazado 39" d="M512.469,1338.675a.638.638,0,0,1-.724.508.622.622,0,0,1-.336-.809.637.637,0,0,1,.724-.507A.622.622,0,0,1,512.469,1338.675Z" transform="translate(-501.333 -1322.299)" fill="#001959"/>
            <path id="Trazado_40" data-name="Trazado 40" d="M522,1340.883a.637.637,0,0,1-.725.508.623.623,0,0,1-.336-.808.638.638,0,0,1,.725-.508A.622.622,0,0,1,522,1340.883Z" transform="translate(-507.028 -1323.619)" fill="#001959"/>
            <g id="Grupo_13" data-name="Grupo 13" transform="translate(13.663 15.166)">
              <path id="Trazado_41" data-name="Trazado 41" d="M520.443,1337.663a.191.191,0,0,0-.03.272.2.2,0,0,0,.153.073.2.2,0,0,0,.124-.043,3.146,3.146,0,0,1,1.433-.683,3.258,3.258,0,0,1,.342.02c.033-.128.064-.255.094-.379a2.369,2.369,0,0,0-2.118.74Z" transform="translate(-520.369 -1336.895)" fill="#001959"/>
            </g>
          </g>
        </g>
      </g>
    </g>
    <g id="Grupo_18" data-name="Grupo 18" transform="translate(66.444 58.852)">
      <path id="Trazado_42" data-name="Trazado 42" d="M535.563,1449.4s-.17-1.612-.826-1.9-.57-1.575-1.132-2.051-4.8,3.064-6.843,4.657-.251,1.806.4,2.547.527,1.309,1.3,1.648S535.834,1451.128,535.563,1449.4Z" transform="translate(-525.814 -1445.406)" fill="#e60d3a"/>
      <path id="Trazado_43" data-name="Trazado 43" d="M536.479,1450.788c-1.466,1.418-4.308,3.905-6.306,4.391-.312.076-.443-.421-.122-.478a8.72,8.72,0,0,0,3.38-1.609A31.832,31.832,0,0,0,536.479,1450.788Z" transform="translate(-528.234 -1448.621)" fill="#f2869d"/>
    </g>
    <g id="Grupo_25" data-name="Grupo 25" transform="translate(49.516 28.804)">
      <path id="Trazado_44" data-name="Trazado 44" d="M547.038,1405.021a8.515,8.515,0,0,1,.464-1.858c.193-.186-.309-1.73-.309-1.73l-1-1.148s-.193-2.361-.425-2.361a3.425,3.425,0,0,1-.85-.3s-2.009-4.5-2.009-4.663-1.739-.724-1.739-.724l-1.752-.224-1.184-.409-2.55.3v1.709l-2.125-.706-1.777,1.412-.007.036-1.384,1.339-.965-1.783-3.052.51-.579,3.911-2.318-2.911L520,1396.945v3.642l-1.642-.434-.908,1.561,1.816,5.1,5.6,2.808,4.558-2.037,4.018.372,5.061,1.6,2.2-2.452,1.468-1.115,1.12,1.077.077,1.635-.425.335-1.043,1.3c0,.52,1.584,1.115,1.584,1.115l1.738-.818.5-2.192s1.821-1.746,1.821-2.118A4.663,4.663,0,0,0,547.038,1405.021Z" transform="translate(-503.887 -1383.219)" fill="#009245"/>
      <path id="Trazado_45" data-name="Trazado 45" d="M495.125,1406.733s-2.2-1.114-3.014-.818.077,2.119-.965,3.121a9.876,9.876,0,0,1-3.168,1.672s-.464-2.422.309-2.422a2.345,2.345,0,0,0,1.352-.477l-1.468-.763.31-.611a8.951,8.951,0,0,0,1.507-.409c.135-.13.618-1.226.386-1.449s-1.584-1.263-1.584-1.263l1.468-.987a2.963,2.963,0,0,0-3.091-1.242c-1.931.52-1.7-1.337-1.7-1.337l.966-.334-2.357-.353-.309-2.026,1.583-.408-.541-3.084h2.473l.541,1.04,1,.223.812-.966-.425-1.189,1-1,1.816.925,1.738-.925,1.97.777h1.932l1.244,1.746-.858,1.783.858.892-2.133,1.969,3.09,9.289-3.67,1.709Z" transform="translate(-483.767 -1383.245)" fill="#004521"/>
      <path id="Trazado_46" data-name="Trazado 46" d="M510.348,1499.675l-3.168,3.344,3.091.52Z" transform="translate(-497.754 -1447.777)" fill="#e06900"/>
      <path id="Trazado_47" data-name="Trazado 47" d="M521.247,1371.418c.7-.889,2.579-1.115,4.141.976s2.5,31.243,2.5,31.243l-7.091-1.118S519.886,1373.147,521.247,1371.418Z" transform="translate(-505.711 -1370.77)" fill="#e56800"/>
      <path id="Trazado_48" data-name="Trazado 48" d="M527.839,1372.4c-1.1-1.466-2.344-1.791-3.235-1.549a4.45,4.45,0,0,1,1.378,1.256c1.562,2.091,2.5,31.244,2.5,31.244l1.857.293S529.4,1374.487,527.839,1372.4Z" transform="translate(-508.163 -1370.772)" fill="#e5a100"/>
      <path id="Trazado_49" data-name="Trazado 49" d="M530.294,1381.783c-1-1.164-2.219-2.376-2.882-2.261-.792.138,1.485,3.553,3.261,6.039C530.554,1384.177,530.428,1382.9,530.294,1381.783Z" transform="translate(-509.743 -1375.994)" fill="#863f00"/>
      <path id="Trazado_50" data-name="Trazado 50" d="M531.866,1400.262c-1-1.364-2.2-2.783-2.915-2.9-.988-.156,1.568,4.478,3.188,7.267C532.054,1403.168,531.963,1401.694,531.866,1400.262Z" transform="translate(-510.628 -1386.656)" fill="#863f00"/>
      <path id="Trazado_51" data-name="Trazado 51" d="M534.2,1422.5s-3.82-6.363-4.988-6.133,5.167,10.358,5.167,10.358Z" transform="translate(-510.832 -1398.007)" fill="#863f00"/>
      <path id="Trazado_52" data-name="Trazado 52" d="M546.36,1382.772l2.318,1.561-4.056,17.2-2.086-.3.232-3.113-2.395-1.791.58-1.82h2.009l.425-1.412-2.2-1.9.579-1.932,3.245-.3.386-1.189-2.782-2.489.5-2.04h3.207Z" transform="translate(-517.583 -1377.94)" fill="#db9479"/>
      <path id="Trazado_53" data-name="Trazado 53" d="M569.071,1395.389l.85-14.209,1.082.224Z" transform="translate(-534.727 -1376.989)" fill="#006837"/>
      <path id="Trazado_54" data-name="Trazado 54" d="M572.432,1382.842l-3.361,13.635h.254l4.653-13.413Z" transform="translate(-534.727 -1377.981)" fill="#006837"/>
      <path id="Trazado_55" data-name="Trazado 55" d="M570.573,1410.836a2.59,2.59,0,0,1,1.932.936c.386.76-3.13,9.528-3.13,9.528h-2.317S568.894,1410.836,570.573,1410.836Z" transform="translate(-533.524 -1394.706)" fill="#f13f00"/>
      <path id="Trazado_56" data-name="Trazado 56" d="M580.472,1384.41l-3.052,10.774.486.168,4.189-10.385Z" transform="translate(-539.715 -1378.919)" fill="#006837"/>
      <path id="Trazado_57" data-name="Trazado 57" d="M583.085,1390.039l-4.459,8.676.4.214,5.609-7.924Z" transform="translate(-540.435 -1382.281)" fill="#006837"/>
      <g id="Grupo_19" data-name="Grupo 19" transform="translate(7.464 11.887)">
        <path id="Trazado_58" data-name="Trazado 58" d="M508.588,1403.888c.912.38,1.719.2,1.8-.786a2.379,2.379,0,0,0-2.733-2.312,3.061,3.061,0,0,0-2.3,2.061,2.972,2.972,0,0,0-.109,1.536,2.939,2.939,0,0,0,.614,1.353l-.475.26a4.011,4.011,0,0,1-.374-3.279,3.7,3.7,0,0,1,2.585-2.384c2.016-.35,3.955,1.564,3.366,3.37-.357,1.107-1.607,1.341-2.712.9Z" transform="translate(-503.8 -1400.296)" fill="#234200"/>
        <path id="Trazado_59" data-name="Trazado 59" d="M517.978,1427.955c1.843-1.585,1.609-4.727-.522-7.019a6.2,6.2,0,0,0-5.429-2.1c-3.338-3.29-6.793-5.075-8-4.035a2.014,2.014,0,0,0-.312,2,11.118,11.118,0,0,0,1.515,3.3,37.6,37.6,0,0,0,2.633,3.657,29.013,29.013,0,0,0,2.937,3.235,8.247,8.247,0,0,0,2.98,1.8,4.289,4.289,0,0,0,2.878-.023A4.588,4.588,0,0,0,517.978,1427.955Z" transform="translate(-503.077 -1408.784)" fill="#66007f"/>
        <path id="Trazado_60" data-name="Trazado 60" d="M517.491,1428.114a4.288,4.288,0,0,1-2.878.023,8.248,8.248,0,0,1-2.98-1.8,29.012,29.012,0,0,1-2.937-3.235,37.364,37.364,0,0,1-2.632-3.657,11.1,11.1,0,0,1-1.515-3.3,2.753,2.753,0,0,1-.011-1.528,1.19,1.19,0,0,0-.514.25,2.014,2.014,0,0,0-.312,2,11.12,11.12,0,0,0,1.515,3.3,37.53,37.53,0,0,0,2.633,3.657,29.022,29.022,0,0,0,2.937,3.234,8.243,8.243,0,0,0,2.98,1.8,4.289,4.289,0,0,0,2.878-.023,4.6,4.6,0,0,0,1.323-.81,3.357,3.357,0,0,0,.351-.35A4.325,4.325,0,0,1,517.491,1428.114Z" transform="translate(-503.077 -1408.853)" fill="#49005b"/>
        <path id="Trazado_61" data-name="Trazado 61" d="M510.755,1418.141s4.79,4.366,5.376,4.676,1.563-.736,3.574.7,2.4,3.033,1.629,4.076-2.716.471-2.488-.542.847-1.785-.239-2.691a4.753,4.753,0,0,0-2.725-.893Z" transform="translate(-507.354 -1410.957)" fill="#7a167f"/>
        <path id="Trazado_62" data-name="Trazado 62" d="M506.285,1415.023l-.729-.268,0,.714-.693-.388.112.856,0,.027-.9-.291.027.838-.825-.351-.328.423a2.832,2.832,0,0,1-.26-3.252,2.429,2.429,0,0,1,.455-.421c1.789-1.259,4.107,1.341,4.107,1.341l-.627-.166.155.328-.556-.082Z" transform="translate(-502.307 -1407.627)" fill="#2b5600"/>
        <path id="Trazado_63" data-name="Trazado 63" d="M504.107,1417.023l-.825-.351-.328.423a2.831,2.831,0,0,1-.26-3.252,2.423,2.423,0,0,1,.455-.422,3.866,3.866,0,0,0-.386,1.412c-.066,1.115.267,1.457.267,1.457l.295-.254.434.5.075-.807,1.145.723,0,.027-.9-.291Z" transform="translate(-502.307 -1408.137)" fill="#244400"/>
        <path id="Trazado_64" data-name="Trazado 64" d="M506.252,1413.417a2.24,2.24,0,0,1,1.6.4c.806.562.794.759.794.759l-.58-.147,0,.4-.452-.106.064.507S506.944,1413.742,506.252,1413.417Z" transform="translate(-504.664 -1408.122)" fill="#346000"/>
      </g>
      <g id="Grupo_24" data-name="Grupo 24" transform="translate(16.109 13.727)">
        <path id="Trazado_65" data-name="Trazado 65" d="M523.78,1413.847l.05-.148,2.041-6.127a22.228,22.228,0,0,1,5.674-2.619c2.414-.52,6.1,1.449,6.1,1.449s1.8,7.124,1.232,7.67-1.116,4.033-1.232,4.144-13.676-1.077-13.676-1.077Z" transform="translate(-523.78 -1404.865)" fill="#b5beff"/>
        <g id="Grupo_21" data-name="Grupo 21" transform="translate(3.989 0.814)">
          <path id="Trazado_66" data-name="Trazado 66" d="M540.11,1414.24c-.509,1.129-2.5,1.661-4.094,1.1s-2.67-2.24-2.23-3.394c.631-1.657,1.522-1.34,2.623-.85.21.093.427.192.651.286.133.056.267.108.4.156s.288.095.435.135c.178.049.358.093.535.135C539.76,1412.126,540.95,1412.376,540.11,1414.24Z" transform="translate(-533.687 -1409.167)" fill="#f70000"/>
          <path id="Trazado_67" data-name="Trazado 67" d="M536.321,1415.639c-1.589-.56-2.667-2.233-2.233-3.388a3.318,3.318,0,0,0-.3.62c-.44,1.154.639,2.833,2.23,3.394s3.585.029,4.094-1.1c.054-.123.1-.237.138-.346A3.69,3.69,0,0,1,536.321,1415.639Z" transform="translate(-533.687 -1410.091)" fill="#bc0000"/>
          <path id="Trazado_68" data-name="Trazado 68" d="M536.914,1414.056a1.645,1.645,0,0,1,.088-1.687,2.053,2.053,0,0,1,1.216-.688c.21.093.427.193.651.286a7.424,7.424,0,0,0-1.084.149C536.592,1412.361,536.914,1414.056,536.914,1414.056Z" transform="translate(-535.496 -1409.751)" fill="#c60000"/>
          <path id="Trazado_69" data-name="Trazado 69" d="M544.236,1415.322s1.093-.684.837-1.216a3.736,3.736,0,0,0-.924-.993c.178.049.358.093.535.135.35.225.726.571.683,1C545.289,1415.032,544.236,1415.322,544.236,1415.322Z" transform="translate(-539.937 -1410.606)" fill="#c60000"/>
          <path id="Trazado_70" data-name="Trazado 70" d="M541.77,1414.662c-.151.4-.82.523-1.5.285s-1.1-.752-.951-1.148.821-.523,1.5-.285S541.92,1414.267,541.77,1414.662Z" transform="translate(-537.035 -1410.775)" fill="#f40000"/>
          <g id="Grupo_20" data-name="Grupo 20" transform="translate(1.874)">
            <path id="Trazado_71" data-name="Trazado 71" d="M542.613,1407.924s0,0,.012,0v-.008C542.617,1407.921,542.612,1407.922,542.613,1407.924Z" transform="translate(-540.893 -1407.503)" fill="#00603b"/>
            <path id="Trazado_72" data-name="Trazado 72" d="M542.1,1409.032a.235.235,0,0,0-.312-.109c.219.077.025.29-.225.4a3.082,3.082,0,0,1-1.217-.413c-.016-.009-.033-.019-.052-.027.432-.518.682-1.945-.218-2l0,.415a.215.215,0,0,1,.1,0c.353.084.295,1.114.029,1.538-.488-.184-1.448-.232-1.485-.412-.048-.232.264-.172.264-.172l.234.158s-.115-.441-.4-.444a.406.406,0,0,0-.449.524,5.351,5.351,0,0,0,1.189.505,1.873,1.873,0,0,0-.97.3c-.38.28-.075.969-.075.969s-.077-.6.32-.781a6.025,6.025,0,0,1,1.12-.292l-.456,1.281a1.082,1.082,0,0,0,.569-.63,1.644,1.644,0,0,0,.137-.609l.259.116a3.08,3.08,0,0,1,.51.459c.236.284-.4.6-.4.6a.771.771,0,0,0,.471-.171c.405-.343.178-.552-.007-.722.179.042.337.107.592.15C542.056,1409.747,542.2,1409.237,542.1,1409.032Z" transform="translate(-538.341 -1406.887)" fill="#00603b"/>
          </g>
        </g>
        <g id="Grupo_23" data-name="Grupo 23" transform="translate(7.66 3.171)">
          <path id="Trazado_73" data-name="Trazado 73" d="M549.268,1413.579c.821.944.421,2.9-.814,4.012s-3.279,1.291-4.154.4c-1.257-1.286-.562-1.911.387-2.637.181-.138.371-.281.558-.432.111-.088.22-.18.327-.277s.216-.205.32-.313c.125-.131.247-.266.365-.4C547.147,1412.931,547.913,1412.02,549.268,1413.579Z" transform="translate(-543.292 -1412.741)" fill="#f70000"/>
          <path id="Trazado_74" data-name="Trazado 74" d="M548.367,1417.884c-1.233,1.115-3.272,1.291-4.15.4a3.466,3.466,0,0,0,.44.539c.875.9,2.92.721,4.154-.4s1.635-3.068.814-4.012c-.089-.1-.175-.193-.259-.274A3.363,3.363,0,0,1,548.367,1417.884Z" transform="translate(-543.649 -1413.577)" fill="#bc0000"/>
          <path id="Trazado_75" data-name="Trazado 75" d="M547.773,1420.766a1.792,1.792,0,0,1-1.528-.833,1.893,1.893,0,0,1-.094-1.354c.181-.138.371-.281.558-.432a6.723,6.723,0,0,0-.348,1C546.054,1420.282,547.773,1420.766,547.773,1420.766Z" transform="translate(-544.756 -1415.971)" fill="#c60000"/>
          <path id="Trazado_76" data-name="Trazado 76" d="M551.356,1416.637s-.145-1.246-.755-1.264a3.942,3.942,0,0,0-1.337.349c.125-.131.246-.266.365-.4a1.286,1.286,0,0,1,1.235-.139C551.559,1415.6,551.356,1416.637,551.356,1416.637Z" transform="translate(-546.664 -1414.134)" fill="#c60000"/>
          <path id="Trazado_77" data-name="Trazado 77" d="M550,1416.861c.3.307.118.94-.407,1.415s-1.193.61-1.493.3-.118-.94.407-1.415S549.7,1416.554,550,1416.861Z" transform="translate(-545.883 -1415.104)" fill="#f40000"/>
          <g id="Grupo_22" data-name="Grupo 22" transform="translate(0 0.204)">
            <path id="Trazado_78" data-name="Trazado 78" d="M543.758,1415.66s0,0,.008-.009l-.006,0C543.757,1415.655,543.757,1415.66,543.758,1415.66Z" transform="translate(-543.374 -1414.681)" fill="#00603b"/>
            <path id="Trazado_79" data-name="Trazado 79" d="M545.707,1413.248a.224.224,0,0,0-.242.218c.17-.154.281.109.273.374-.005.161-.664.7-.93.86-.016.01-.033.021-.049.032-.287-.6-1.5-1.459-1.953-.709l.385.19a.192.192,0,0,1,.047-.083c.237-.266,1.168.247,1.443.664-.39.337-.865,1.14-1.049,1.092-.237-.064-.041-.3-.041-.3l.252-.13s-.462-.1-.593.146a.4.4,0,0,0,.286.621,5.232,5.232,0,0,0,1-.8,1.691,1.691,0,0,0-.156.967c.089.452.867.5.867.5s-.595-.2-.581-.626a5.427,5.427,0,0,1,.23-1.094l.986.968a1.04,1.04,0,0,0-.33-.772,1.777,1.777,0,0,0-.5-.391l.225-.17a3.155,3.155,0,0,1,.656-.233c.37-.075.376.615.376.615a.7.7,0,0,0,.053-.481c-.137-.5-.432-.4-.674-.318.118-.135.25-.242.405-.442C546.351,1413.606,545.941,1413.255,545.707,1413.248Z" transform="translate(-542.806 -1413.248)" fill="#00603b"/>
          </g>
        </g>
        <path id="Trazado_80" data-name="Trazado 80" d="M526.626,1424.679s.8-2.229,1.756-2.508,2.8-.522,3.753.39.39,3.678-2.015,3.818S526.32,1425.794,526.626,1424.679Z" transform="translate(-525.455 -1415.052)" fill="#ed0009"/>
        <path id="Trazado_81" data-name="Trazado 81" d="M523.78,1413.847l.05-.148,1.057-3.175a8,8,0,0,1,4.324-4.758,12.249,12.249,0,0,1,2.334-.814c2.414-.52,6.1,1.449,6.1,1.449s1.8,7.124,1.232,7.67-1.116,4.033-1.232,4.144-13.676-1.077-13.676-1.077Z" transform="translate(-523.78 -1404.865)" fill="#b5beff" opacity="0.38"/>
        <path id="Trazado_82" data-name="Trazado 82" d="M548.287,1410.591a2.917,2.917,0,0,1,2.994,1.095c1.258,1.6,0,4.315,0,4.315s.27-2.386-1.082-3.353a2.714,2.714,0,0,0-2.682-.3A1.19,1.19,0,0,1,548.287,1410.591Z" transform="translate(-537.865 -1408.241)" fill="#ecf0ff" opacity="0.27"/>
        <path id="Trazado_83" data-name="Trazado 83" d="M533.479,1409.764a2.131,2.131,0,0,0-1.611-.274c-.92.189-2.447.622-2.98,1.483-.782,1.264-1.117,5.158-1.117,5.158s1.884-3.014,3.6-3.439C532.874,1412.318,534.992,1410.778,533.479,1409.764Z" transform="translate(-526.164 -1407.598)" fill="#ecf0ff" opacity="0.27"/>
      </g>
      <path id="Trazado_84" data-name="Trazado 84" d="M564.912,1416.721a.592.592,0,0,0-.363-.394,4.682,4.682,0,0,0-1.717-.315c-1.2,0-2.589,8.084-2.589,8.084l2.743.3S565.418,1418.647,564.912,1416.721Z" transform="translate(-529.453 -1397.797)" fill="#e03500"/>
      <path id="Trazado_85" data-name="Trazado 85" d="M505.837,1426.215s0,12.335,1,15.159a30.22,30.22,0,0,1,1.159,7.282l-.7,3.938,2.164,7.059s22.741.533,23.011.793l1.482-5.028a9.244,9.244,0,0,1-.695-2.452c0-.817,1.391-1.486,1.391-1.486v-17.1l-1-2.83,1.314-4.588a49.745,49.745,0,0,1-9.117-.371c-5.409-.669-16.38.3-17.926.3A2.675,2.675,0,0,1,505.837,1426.215Z" transform="translate(-496.952 -1403.893)" fill="#e06900"/>
      <path id="Trazado_86" data-name="Trazado 86" d="M509.055,1459.256l-2.286-.4,1.868-1.951-1.348-4.341c.025-.148.708-4.137.665-3.889l0-.035c-.562-10.135-1.713-1.393-2.575-22.428-.66,17.946,1.329,12.79,1.75,22.418-.031.17-.761,4.173-.726,3.986l1.231,4.067-2.561,2.731,3.866.631c23.587.61,21.056.354,23.083.517C528.091,1459.952,512.053,1459.392,509.055,1459.256Z" transform="translate(-496.493 -1403.893)" fill="#873a00"/>
      <path id="Trazado_87" data-name="Trazado 87" d="M535.418,1426.159a53.54,53.54,0,0,1-7.736-.274c-1.276-.124-2.519-.314-3.665-.363-10.795-.547-16.5,1.72-18.18.227,1.7,1.925,7.126-.284,21.759.994a45.688,45.688,0,0,0,6.943.092l-1.05,4.257c.379.938.787,1.941,1.167,2.819-.266-.947-.554-1.887-.841-2.827C534.928,1427.758,534.551,1428.835,535.418,1426.159Z" transform="translate(-496.952 -1403.426)" fill="#efa052"/>
      <path id="Trazado_88" data-name="Trazado 88" d="M572.173,1439.456,570.319,1441l2.859,1.287Z" transform="translate(-535.473 -1411.803)" fill="#723800"/>
      <path id="Trazado_89" data-name="Trazado 89" d="M574.769,1412.251l.608.2S575.058,1412.662,574.769,1412.251Z" transform="translate(-538.131 -1395.551)" fill="#ff3c00"/>
      <path id="Trazado_90" data-name="Trazado 90" d="M575.435,1413.912l.608.2S575.724,1414.323,575.435,1413.912Z" transform="translate(-538.529 -1396.543)" fill="#ff3c00"/>
      <path id="Trazado_91" data-name="Trazado 91" d="M577.343,1413.168l.608.2S577.633,1413.579,577.343,1413.168Z" transform="translate(-539.669 -1396.098)" fill="#ff3c00"/>
      <path id="Trazado_92" data-name="Trazado 92" d="M577.666,1415.376l.608.2S577.956,1415.787,577.666,1415.376Z" transform="translate(-539.862 -1397.417)" fill="#ff3c00"/>
      <path id="Trazado_93" data-name="Trazado 93" d="M573.258,1414.131l.608.2S573.548,1414.542,573.258,1414.131Z" transform="translate(-537.229 -1396.674)" fill="#ff3c00"/>
      <path id="Trazado_94" data-name="Trazado 94" d="M574.769,1415.846l.608.2S575.058,1416.256,574.769,1415.846Z" transform="translate(-538.131 -1397.698)" fill="#ff3c00"/>
      <path id="Trazado_95" data-name="Trazado 95" d="M575.975,1417.779l.608.2S576.264,1418.189,575.975,1417.779Z" transform="translate(-538.852 -1398.853)" fill="#ff3c00"/>
      <path id="Trazado_96" data-name="Trazado 96" d="M576.388,1419.84l.608.2S576.677,1420.251,576.388,1419.84Z" transform="translate(-539.099 -1400.084)" fill="#ff3c00"/>
      <path id="Trazado_97" data-name="Trazado 97" d="M574.283,1417.884l.608.2S574.573,1418.295,574.283,1417.884Z" transform="translate(-537.841 -1398.916)" fill="#ff3c00"/>
      <path id="Trazado_98" data-name="Trazado 98" d="M573.114,1419.406l.608.2S573.4,1419.817,573.114,1419.406Z" transform="translate(-537.143 -1399.825)" fill="#ff3c00"/>
      <path id="Trazado_99" data-name="Trazado 99" d="M567.4,1417.368l.619.165S567.714,1417.763,567.4,1417.368Z" transform="translate(-533.73 -1398.607)" fill="#ff3c00"/>
      <path id="Trazado_100" data-name="Trazado 100" d="M568.512,1418.671l.619.165S568.825,1419.066,568.512,1418.671Z" transform="translate(-534.393 -1399.386)" fill="#ff3c00"/>
      <path id="Trazado_101" data-name="Trazado 101" d="M569.777,1417.772l.611.19S570.072,1418.18,569.777,1417.772Z" transform="translate(-535.149 -1398.849)" fill="#ff3c00"/>
      <path id="Trazado_102" data-name="Trazado 102" d="M565.951,1418.383l.619.165S566.264,1418.778,565.951,1418.383Z" transform="translate(-532.863 -1399.214)" fill="#ff3c00"/>
      <path id="Trazado_103" data-name="Trazado 103" d="M567.4,1420.391l.619.164S567.714,1420.786,567.4,1420.391Z" transform="translate(-533.73 -1400.413)" fill="#ff3c00"/>
      <path id="Trazado_104" data-name="Trazado 104" d="M569.071,1422.109l.619.165S569.384,1422.5,569.071,1422.109Z" transform="translate(-534.727 -1401.44)" fill="#ff3c00"/>
    </g>
    <path id="Trazado_105" data-name="Trazado 105" d="M482.713,1445.938c6.086-2.987,3.433-2.985.564-1.327-2.616,1.512-3.776,2.23-3.959,2.046.026-.292.573-.676,2.345-1.823a11.755,11.755,0,0,0,2.649-2.251c.054-.593-.922-.035-1.4.339-.05.039-5.046,3.807-5.961,3.19-.931-.626.539-1.639,1.424-2.232.9-.6.906-1.7.445-1.675-.57.027-1.1.99-2.629,1.879s-5.1,1.992-5.588,2.444c-4.425.38-21.193-.67-21.089-2.444.223-3.83.957-9.55.821-10.278-3.193-.192-9.6-2.777-11.3-.559.841,3.538-2.318,22.143,5.111,22.559,3.445.194,23.111-3.358,27.011-4.138a78.284,78.284,0,0,0,8.879-1.3,13.17,13.17,0,0,0,4.111-1.706.175.175,0,0,0-.159-.307c-1.294.365-3.647,1.575-4.349.873.089-.331.714-.6,2.978-1.436a15.922,15.922,0,0,0,2.647-1.106c.529-1-1.784-.09-2.8.369-1.05.473-2.108,1.078-2.516.669C479.8,1447.587,481.038,1446.759,482.713,1445.938Z" transform="translate(-407.524 -1378.755)" fill="#fc7575"/>
    <path id="Trazado_106" data-name="Trazado 106" d="M449.794,1440.5c.287-3.106.634-6.173.537-6.694-3.193-.191-9.6-2.776-11.3-.558.312,1.311.074,4.692.029,8.448C441.182,1441.055,446.624,1439.611,449.794,1440.5Z" transform="translate(-407.524 -1378.755)" fill="#fd5e5a"/>
    <path id="Trazado_107" data-name="Trazado 107" d="M567.13,1494.288s-2.44-5.095-3.235-4.324.881,4.208.881,4.208-2.858-4.135-3.593-3.421,1.911,4.718,1.911,4.718-2.783-2.988-3.789-2.894,2.171,4.554,2.171,4.554-2.313-2.49-2.711-2.1.5,1.78,1.282,3.1a2.685,2.685,0,0,0,4.13.712c1.342-1.3,1.1-.67,2.248-1.781A3.051,3.051,0,0,0,567.13,1494.288Z" transform="translate(-478.996 -1413.125)" fill="#fc7575"/>
    <path id="Trazado_108" data-name="Trazado 108" d="M450.7,1399.68c.482-5.473,5.125-17.77,5.125-22.352,0-5.4-4.6-9.674-6.975-8.513-7.9,3.855-12.22,20.6-12.94,30.956C440.7,1399.01,445.845,1399.727,450.7,1399.68Z" transform="translate(-405.661 -1340.683)" fill="#b890b0"/>
  </g>
  <path id="Trazado_109" data-name="Trazado 109" d="M628.132,1416.114s-6.1,13.5-7.837,26.124-2.014,89.859-2.014,89.859,18.468,5.081,41.663-3.767c0,0-10.986-74.951-9.462-80.612.257-.957,1.5-5.441,1.437-7.105-.294-8.178-5.936-22.758-5.936-22.758Z" transform="translate(-502.837 -1369.055)" fill="#b69c5b"/>
  <path id="Trazado_110" data-name="Trazado 110" d="M624.938,1455.466c0-11.843,3.873-33.531,4.92-39.184l-1.726-.168s-6.1,13.5-7.837,26.124-2.014,89.859-2.014,89.859a55.293,55.293,0,0,0,12.522,1.442C629.586,1519.241,624.938,1467.37,624.938,1455.466Z" transform="translate(-502.837 -1369.055)" fill="#897544"/>
  <path id="Trazado_111" data-name="Trazado 111" d="M597.631,1471.25s-4.306,8.716-2.89,11.329,7.416,20.776,7.416,20.776l4.339-2.271s-2.558-15.131-2.558-18.614,2.558-10,2.558-10Z" transform="translate(-488.604 -1401.993)" fill="#7c4532"/>
  <g id="Grupo_28" data-name="Grupo 28" transform="translate(115.859 16.135)">
    <path id="Trazado_112" data-name="Trazado 112" d="M677.728,1357.512c1.3-2.576.571-6.184-1.478-7.421a3.731,3.731,0,0,0-3.6-5.094c-.39,0-1.044-.393-1.044-.683,0-3.016-2.727-4.685-4.572-2.855-.681-.5-1.1-.761-1.1-.761l-4.376,25.362a8.452,8.452,0,0,0,7.048.947,6.367,6.367,0,0,0,8.788-7.739A7.586,7.586,0,0,0,677.728,1357.512Z" transform="translate(-644.554 -1340.136)" fill="#c5c6fe"/>
    <path id="Trazado_113" data-name="Trazado 113" d="M662.852,1391.441a34.861,34.861,0,0,0-.336,3.662c-.084,2.077-.162,5.388.512,7.36,1.347,3.944-6.559,5.6-8.379,1.482S655.783,1390,655.783,1390Z" transform="translate(-640.068 -1369.589)" fill="#7c4532"/>
    <path id="Trazado_114" data-name="Trazado 114" d="M657.173,1390l7.069,1.441a34.9,34.9,0,0,0-.339,3.746c-.183.064-.37.121-.562.17-2.41.614-5.093-.483-6.958-2.252C656.789,1391.277,657.173,1390,657.173,1390Z" transform="translate(-641.458 -1369.589)" fill="#592c13"/>
    <path id="Trazado_115" data-name="Trazado 115" d="M662.816,1344.809s3.1,3.053,2.663,6.962.271,6.111.316,7.5-1.943,5.719-6.124,6.688-9.17-2.672-9.282-6.1.3-9.421,2.878-12.147S662.816,1344.809,662.816,1344.809Z" transform="translate(-637.868 -1342.592)" fill="#7c4532"/>
    <g id="Grupo_27" data-name="Grupo 27" transform="translate(20.573 14.425)">
      <path id="Trazado_116" data-name="Trazado 116" d="M672.622,1376.27c-.1-.45-.436-1.239-.9-1.125a5.121,5.121,0,0,0-1.307.62c.482-.067.919-.283,1.369-.35C671.982,1375.264,672.217,1375.75,672.622,1376.27Z" transform="translate(-670.411 -1375.134)" fill="#18287d"/>
    </g>
    <path id="Trazado_117" data-name="Trazado 117" d="M680.827,1371.852a.656.656,0,1,0,.651-.579A.618.618,0,0,0,680.827,1371.852Z" transform="translate(-656.061 -1358.402)" fill="#18287d"/>
    <path id="Trazado_118" data-name="Trazado 118" d="M666.705,1370.568a.656.656,0,1,1-.535-.687A.62.62,0,0,1,666.705,1370.568Z" transform="translate(-646.854 -1357.563)" fill="#18287d"/>
    <path id="Trazado_119" data-name="Trazado 119" d="M681.792,1365.163c.951.155.843.783.843.783a6.811,6.811,0,0,1-.94-.406l-2.378-.013A6.377,6.377,0,0,1,681.792,1365.163Z" transform="translate(-655.159 -1354.734)" fill="#c5c6fe"/>
    <path id="Trazado_120" data-name="Trazado 120" d="M665.386,1362.869c-.961-.084-1.014.551-1.014.551a6.8,6.8,0,0,0,1.012-.162l2.306.574A6.343,6.343,0,0,0,665.386,1362.869Z" transform="translate(-646.23 -1353.377)" fill="#c5c6fe"/>
    <path id="Trazado_121" data-name="Trazado 121" d="M668.459,1382.683s3.187-.5,3.13-.041-.5,1.581-.549,1.979-.345.948-1.358.824S668.388,1383.261,668.459,1382.683Z" transform="translate(-648.666 -1365.077)"/>
    <path id="Trazado_122" data-name="Trazado 122" d="M668.459,1382.683a3.076,3.076,0,0,0,.021.682,5.737,5.737,0,0,1,2.937-.045,4.59,4.59,0,0,0,.172-.679C671.646,1382.18,668.459,1382.683,668.459,1382.683Z" transform="translate(-648.666 -1365.077)" fill="#fff"/>
    <path id="Trazado_123" data-name="Trazado 123" d="M644.26,1341.52a6.778,6.778,0,0,0-1.974-.806c-.533-.808-2.545-1.41-4.946-1.41-2.808,0-5.084.823-5.084,1.838a.882.882,0,0,0,.286.609l-.146.057a9.621,9.621,0,0,0-2.37-.288c-3.135,0-5.676,1.413-5.676,3.156a1.989,1.989,0,0,0,.395,1.159c-2.72.189-4.854,2.007-4.854,4.223a3.626,3.626,0,0,0,.849,2.3,14.3,14.3,0,0,0-1.422,5.174c-.228,4.458,5.2,4.284,5.2,4.284s-2.053,4.471.892,7.2,10.279-2.441,10.674-4.679-4.905-7.84-2.884-11.88S644.26,1341.52,644.26,1341.52Z" transform="translate(-619.312 -1339.304)" fill="#e3e4ff"/>
    <path id="Trazado_124" data-name="Trazado 124" d="M652.386,1366.8a1.631,1.631,0,0,0-2.316-1.46c-2.152.695-1.116,4.219.308,4.588S652.386,1366.8,652.386,1366.8Z" transform="translate(-636.95 -1354.778)" fill="#7c4121"/>
    <path id="Trazado_125" data-name="Trazado 125" d="M644.987,1342.807c-1.517.341-8.953,1.777-9.476,2.792-.017.054.006,0,.006,0,.216,1.233,1.225,1.127,1.379.633.023-.06,0-.008.007.03a.113.113,0,0,0,.006.04.649.649,0,0,0-.147-.152,4.2,4.2,0,0,0-3.176-.556c-1.72.4-2.373,2.365-1.317,3.289.952.862,1.773.382,1.562.546a.519.519,0,0,0-.074.327.354.354,0,0,0,.041.141c-.268-.586-6.444-3.011-6.865,1.391-.295,1.822.275,3.786,1.795,3.631.349,0,.351-.214.25.046-.045.176.058.122-.213-.152-2.115-2.089-4.437-.09-3.462,2.152.94,2.369,4.692,1.894,6.068.483-.751,2.257-5.107,2.994-6.62.986-2.81-3.68,1.4-7.853,4.9-4.517,1.908,1.926-1.314,3.208-3.032,1.409-1.61-1.667-1.605-6.652,1.573-7.659,3.083-.962,7.768,1.165,6.625,2.479-1.444,1.726-6.113-1.236-3.34-4.491,1.368-1.591,4.209-1.51,5.909-.252,1.594,1.416-1.277,3.1-2.38,1.331-1.042-1.624.269-2.25,2.085-2.781A44.336,44.336,0,0,1,644.987,1342.807Z" transform="translate(-622.012 -1341.397)" fill="#c5c6fe"/>
  </g>
  <path id="Trazado_126" data-name="Trazado 126" d="M613.515,1416.114a16.534,16.534,0,0,0-9.579,4.572c-4.191,4.19-10.123,21.443-10.123,21.443l11.09,5.334s3.58-8.2,4.8-11.973C610.536,1432.927,613.515,1416.114,613.515,1416.114Z" transform="translate(-488.22 -1369.055)" fill="#c5b07c"/>
  <rect id="Rectángulo_3" data-name="Rectángulo 3" width="12.528" height="4.137" transform="translate(112.768 162.282)" fill="#115766"/>
  <rect id="Rectángulo_4" data-name="Rectángulo 4" width="13.984" height="3.943" transform="translate(158.98 159.445)" fill="#115766"/>
  <path id="Trazado_127" data-name="Trazado 127" d="M687.236,1593.359H639.6v-5.3h47.233C686.98,1589.676,687.112,1591.437,687.236,1593.359Z" transform="translate(-515.576 -1471.773)" fill="#115766"/>
  <g id="Grupo_29" data-name="Grupo 29" transform="translate(124.03 115.811)">
    <rect id="Rectángulo_5" data-name="Rectángulo 5" width="47.232" height="0.947" transform="translate(0)" fill="#a0bcc2"/>
  </g>
  <g id="Grupo_30" data-name="Grupo 30" transform="translate(112.662 100.817)">
    <path id="Trazado_128" data-name="Trazado 128" d="M621.559,1556.545c-1.736-4.844-4.526-9.205-8.184-5.547-2.811,2.81-1.958,61.7-1.584,81.715h1.741c-.558-30.12-.744-77.65,1.074-80.484.95-.949,1.511-.826,1.693-.782.785.176,2.05,1.305,3.62,5.686,4.21,11.748,3.253,72.806,3.034,84.259H624.7C624.935,1629.567,625.922,1568.721,621.559,1556.545Z" transform="translate(-611.372 -1549.638)" fill="#115766"/>
  </g>
  <path id="Trazado_129" data-name="Trazado 129" d="M610.435,1546.758s2.129,4.44,3.064,3.848-.346-2.282-.346-2.282.946,1.672,1.811,1.125-.337-3.02-.337-3.02.7,2.58,1.695,2.422c1.956-.309.23-3.715.23-3.715s2.165,4.452,2.634,4.156-.531-3.385-1.03-4.841a2.685,2.685,0,0,0-3.9-1.543c-1.581,1-1.218.431-2.565,1.283A3.052,3.052,0,0,0,610.435,1546.758Z" transform="translate(-498.149 -1444.569)" fill="#8f4f3a"/>
  <path id="Trazado_130" data-name="Trazado 130" d="M737.055,1535.463h3.369c.722,0,2.945,4.844,2.363,5.391s-2.232-3.039-2.232-3.039l-1.168-.555s2.35,2.492,1.955,3.651-2.4-1.9-3.018-2.487-2.3-.107-2.3-.107.919,1.054.919,1.717-3.527-.784-3.527-1.717S735.064,1535.463,737.055,1535.463Z" transform="translate(-571.621 -1440.353)" fill="#7c4532"/>
</svg>
