<svg id="Componente_9_1" data-name="Componente 9 – 1" xmlns="http://www.w3.org/2000/svg" xmlns:xlink="http://www.w3.org/1999/xlink" width="503.219" height="238.509" viewBox="0 0 503.219 238.509">
  <defs>
    <linearGradient id="linear-gradient" y1="0.5" x2="1" y2="0.5" gradientUnits="objectBoundingBox">
      <stop offset="0" stop-color="#efbde4"/>
      <stop offset="1" stop-color="#ffd3fa"/>
    </linearGradient>
  </defs>
  <g id="Grupo_111" data-name="Grupo 111" transform="translate(237.522)">
    <path id="Trazado_409" data-name="Trazado 409" d="M2647.8-133.288c0,3.7-59.479,6.706-132.848,6.706s-132.849-3-132.849-6.706,59.479-6.705,132.849-6.705S2647.8-136.991,2647.8-133.288Z" transform="translate(-2382.104 362.428)" fill="#abb9c1"/>
    <path id="Trazado_410" data-name="Trazado 410" d="M2530.04-532.44l2.511-1.759s-6.552-11.185-5.877-20.822c.357-5.087-7.679-12.584-9.814-11.425-.129-.052-7.134.161-7.757,16.775l-1.491,19.465,7.571,6.959s4.529-5.183,10.6-1.451,7.474-3.6,7.474-3.6S2530.04-530.649,2530.04-532.44Z" transform="translate(-2443.021 569.475)" fill="#002b32"/>
    <g id="Grupo_92" data-name="Grupo 92" transform="translate(64.552 214.41)">
      <path id="Trazado_411" data-name="Trazado 411" d="M2514.557-155.586c-.729.771,5.038,15.063,5.038,15.063l-8.05,2.3L2507.539-155Z" transform="translate(-2507.539 155.586)" fill="#fc7575"/>
      <g id="Grupo_91" data-name="Grupo 91" transform="translate(0 7.962)">
        <path id="Trazado_412" data-name="Trazado 412" d="M2527.041-131.818a2.86,2.86,0,0,0,3.654-.765c-1.991-3.017-3.1-5.741-3.576-6.4-.527-.728-1.261-1.706-3.094-.719s-3.385,3.12-2.672,3.565A50.986,50.986,0,0,0,2527.041-131.818Z" transform="translate(-2514.157 140.115)" fill="#86b3c6"/>
        <path id="Trazado_413" data-name="Trazado 413" d="M2507.775-123.46l8.221.1c3.385.04,8.779.466,10.471.486s7.871-3.47,7.486-4.637-5.951-.942-8.833-2.284-6.672-5.3-7.972-5.234c-1.087.058-6.664,1.147-7.644,2.008S2506.94-124.233,2507.775-123.46Z" transform="translate(-2507.54 137.649)" fill="#004f70"/>
        <path id="Trazado_414" data-name="Trazado 414" d="M2532.51-121.85h0c-1.3.315-3.554,2.64-6.925,3.421-2.62.607-13.317-.632-17.953-1.215-.142,1.3-.129,2.327.146,2.582l8.221.1c3.385.04,8.779.466,10.471.486s7.871-3.47,7.486-4.637C2533.841-121.453,2533.3-121.673,2532.51-121.85Z" transform="translate(-2507.539 131.25)" fill="#7efccb"/>
        <g id="Grupo_88" data-name="Grupo 88" transform="translate(14.281 7.338)">
          <path id="Trazado_415" data-name="Trazado 415" d="M2535.339-123.666a.189.189,0,0,1-.048-.155c.367-1.962,3.071-2.033,3.185-2.035a.24.24,0,0,1,.221.17.13.13,0,0,1-.125.176c-.026,0-2.6.07-2.927,1.829a.141.141,0,0,1-.207.088A.247.247,0,0,1,2535.339-123.666Z" transform="translate(-2535.289 125.857)" fill="#7efccb"/>
        </g>
        <g id="Grupo_89" data-name="Grupo 89" transform="translate(12.976 6.022)">
          <path id="Trazado_416" data-name="Trazado 416" d="M2532.8-126.331a.19.19,0,0,1-.049-.151c.191-1.257,2.991-1.9,3.11-1.928a.231.231,0,0,1,.241.132.136.136,0,0,1-.081.205c-.764.172-2.776.817-2.914,1.721a.14.14,0,0,1-.2.1A.247.247,0,0,1,2532.8-126.331Z" transform="translate(-2532.753 128.414)" fill="#7efccb"/>
        </g>
        <g id="Grupo_90" data-name="Grupo 90" transform="translate(12.004 4.806)">
          <path id="Trazado_417" data-name="Trazado 417" d="M2530.916-128.481a.206.206,0,0,1-.051-.131c.021-1.159,2.838-2.059,3.159-2.157a.225.225,0,0,1,.246.118.139.139,0,0,1-.065.213c-.823.254-2.965,1.092-2.98,1.917a.134.134,0,0,1-.183.121A.245.245,0,0,1,2530.916-128.481Z" transform="translate(-2530.865 130.776)" fill="#7efccb"/>
        </g>
      </g>
    </g>
    <g id="Grupo_97" data-name="Grupo 97" transform="translate(18.007 203.429)">
      <path id="Trazado_418" data-name="Trazado 418" d="M2444.63-171.666c-1.054-.12-9.025,13.072-9.025,13.072l-6.67-5.059,11.012-13.271Z" transform="translate(-2422.842 176.925)" fill="#fc7575"/>
      <g id="Grupo_96" data-name="Grupo 96" transform="translate(0 8.758)">
        <path id="Trazado_419" data-name="Trazado 419" d="M2440.881-145.965a2.859,2.859,0,0,0,2.8,2.462c1.218-3.4,2.729-5.928,2.969-6.7.266-.857.608-2.032-1.283-2.906s-4.527-.834-4.454,0A50.861,50.861,0,0,0,2440.881-145.965Z" transform="translate(-2428.576 156.917)" fill="#86b3c6"/>
        <path id="Trazado_420" data-name="Trazado 420" d="M2417.095-155.534l4.857,6.633c2,2.732,4.9,7.3,5.9,8.667s7.5,4.213,8.2,3.2-2.819-5.325-3.475-8.435.237-8.519-.6-9.518c-.7-.835-4.918-4.642-6.2-4.909S2417.212-156.666,2417.095-155.534Z" transform="translate(-2417.095 159.906)" fill="#004f70"/>
        <path id="Trazado_421" data-name="Trazado 421" d="M2435.773-136.073l0,0c-1.035-.852-4.245-1.257-6.894-3.486-2.058-1.731-7.488-11.03-9.805-15.087-1.123.665-1.939,1.294-1.978,1.666,0,0,2.857,3.9,4.857,6.633s4.9,7.3,5.9,8.667,7.5,4.213,8.2,3.2C2436.255-134.769,2436.1-135.337,2435.773-136.073Z" transform="translate(-2417.095 157.354)" fill="#7efccb"/>
        <g id="Grupo_93" data-name="Grupo 93" transform="translate(12.182 12.502)">
          <path id="Trazado_422" data-name="Trazado 422" d="M2440.774-135.265a.193.193,0,0,1,.1-.132c1.79-.884,3.469,1.236,3.541,1.326a.239.239,0,0,1,0,.278.131.131,0,0,1-.217.005c-.016-.021-1.615-2.035-3.219-1.242-.079.039-.167-.011-.2-.113A.248.248,0,0,1,2440.774-135.265Z" transform="translate(-2440.767 135.612)" fill="#7efccb"/>
        </g>
        <g id="Grupo_94" data-name="Grupo 94" transform="translate(12.537 10.702)">
          <path id="Trazado_423" data-name="Trazado 423" d="M2441.464-138.861a.2.2,0,0,1,.091-.13c1.12-.6,3.317,1.251,3.409,1.33a.232.232,0,0,1,.04.272.135.135,0,0,1-.213.058c-.6-.507-2.32-1.729-3.126-1.3a.14.14,0,0,1-.2-.105A.248.248,0,0,1,2441.464-138.861Z" transform="translate(-2441.457 139.111)" fill="#7efccb"/>
        </g>
        <g id="Grupo_95" data-name="Grupo 95" transform="translate(12.757 9.294)">
          <path id="Trazado_424" data-name="Trazado 424" d="M2441.89-141.568a.208.208,0,0,1,.075-.119c.94-.68,3.35,1.033,3.621,1.231a.225.225,0,0,1,.053.268.139.139,0,0,1-.21.076c-.7-.506-2.653-1.716-3.321-1.233a.135.135,0,0,1-.207-.074A.258.258,0,0,1,2441.89-141.568Z" transform="translate(-2441.884 141.846)" fill="#7efccb"/>
        </g>
      </g>
    </g>
    <path id="Trazado_425" data-name="Trazado 425" d="M2755.362-495.821a57.445,57.445,0,0,0,3.9-8.021c-.114-.715-3.474,3.868-3.474,3.868-.783-.782,1.192-4.454,1.493-5.657s1.41-2.5.191-2.5-2.913,7.671-3.409,7.671.734-6.768,1.186-8.3-.575-3.024-1.208-.225-1.855,9.6-1.855,8.249.321-7.984-.4-8.706-1.019,2.669-1.019,6.461a13.725,13.725,0,0,1-.324,3.461,1.09,1.09,0,0,1-1.386.766.524.524,0,0,1-.4-.517c0-.812-.15-3.19-1.324-3.19s-.232,2.447-.232,4.342a21.275,21.275,0,0,0,1.195,5.228,29.548,29.548,0,0,1-2.463,7.27,26.159,26.159,0,0,1,4.4,2.045C2752.454-489.336,2754.309-494.085,2755.362-495.821Z" transform="translate(-2558.646 542.29)" fill="#fd5e5a"/>
    <path id="Trazado_426" data-name="Trazado 426" d="M2702.6-473.592s-9.651,23.172-17.131,27.993-20.51,19.6-29.2,19.934c0,0,9,15.379,12.207,14.307s27.967-24.709,31.708-28.451,9.893-30.646,9.893-30.646Z" transform="translate(-2515.178 524.348)" fill="#535683"/>
    <path id="Trazado_427" data-name="Trazado 427" d="M2515.871-254c-1.913-10.624,4.729-36.963,8.78-48.545,4.214-12.045,6.893-63.02,6.893-63.02l-4.776-5.6-19.495-1.169s8.294,25.53,8.294,34.3-6.583,29.983-11.323,41.766c-4.372,10.87-.008,35.1,1.316,42.592A28.24,28.24,0,0,0,2515.871-254Z" transform="translate(-2440.465 475.199)" fill="#354149"/>
    <path id="Trazado_428" data-name="Trazado 428" d="M2469.967-367.729c-.894.894-6.132,7.11-6.132,11.455s9.874,43.447,7.5,45.817-24.62,14.351-27.253,22.777c-2.509,8.03-5.913,20.878-8.449,24.294,2.375,3.977,7.33,3.854,11.41,5.223.654-3.565.864-3.487,3.241-8.183,5.267-10.4,31.005-28.969,34.652-36.342s5.621-41.078,7.465-45.554,6.76-15.849,6.76-15.849Z" transform="translate(-2408.087 472.965)" fill="#465761"/>
    <path id="Trazado_429" data-name="Trazado 429" d="M2556.089-423.741s12.034,13.76,25.354,18.937a14.9,14.9,0,0,1,3.873,2.392c0,1.4-2.807-.264-2.807-.264a5.863,5.863,0,0,1,.707,3.686c-.438,1.667-3.343.56-4.923.56-.723,0-4.437-4.164-9.451-6.611-5.935-2.9-12.937-5.73-13.793-6.586C2553.468-413.206,2555.621-424.246,2556.089-423.741Z" transform="translate(-2465.769 500.159)" fill="#fd5e5a"/>
    <path id="Trazado_430" data-name="Trazado 430" d="M2501.434-499.137s12.113-1.229,18.433,2.809,10.357,18.432,10.357,24.576-4.556,38.444-2.8,44.588c0,0-20.016-.878-26.862-.878s-8.251-2.633-8.251-2.633,14.219-14.043,14.219-20.187S2501.434-499.137,2501.434-499.137Z" transform="translate(-2435.593 536.832)" fill="url(#linear-gradient)"/>
    <g id="Grupo_98" data-name="Grupo 98" transform="translate(92.997 98.136)">
      <path id="Trazado_431" data-name="Trazado 431" d="M2613.894-290.5h-4.317v-82.393c0-2.78-2.716-5.04-6.056-5.04h-38.834a1.838,1.838,0,0,1-1.877-1.8h0a1.838,1.838,0,0,1,1.877-1.8h38.834c5.719,0,10.373,3.874,10.373,8.634Z" transform="translate(-2562.81 381.525)" fill="#402420"/>
    </g>
    <path id="Trazado_432" data-name="Trazado 432" d="M2755.8-244.737h-7.624v-24.191h-2.273v12.02h-15.026v-21.429c0-8.452-7.332-15.867-15.691-15.867h-19.573v3.741h19.573c7.03,0,12.282,6.4,12.282,12.125v21.429H2704.71v3.741h41.2v8.429h-3.125v2.494h3.125v7.577h-3.125v2.494h3.125v6.567c-5.822.626-10.371,6.012-10.371,12.565,0,6.974,5.153,12.627,11.508,12.627s11.506-5.653,11.506-12.627c0-6.552-4.549-11.939-10.37-12.565v-6.567h15.058v19.133h2.273v-21.045C2765.512-239.959,2761.156-244.737,2755.8-244.737Zm-7.624,2.494h7.624c3.921,0,7.143,3.349,7.415,7.577H2748.18Z" transform="translate(-2534.275 437.277)" fill="#402420"/>
    <g id="Grupo_99" data-name="Grupo 99" transform="translate(132.598 166.147)">
      <path id="Trazado_433" data-name="Trazado 433" d="M2676.832-238.23a26.192,26.192,0,0,0-26.051,26.331,26.192,26.192,0,0,0,26.051,26.331,26.192,26.192,0,0,0,26.051-26.331A26.192,26.192,0,0,0,2676.832-238.23Z" transform="translate(-2645.11 243.962)" fill="#402420"/>
      <path id="Trazado_434" data-name="Trazado 434" d="M2671.484-249.369a31.894,31.894,0,0,0-31.722,32.063,31.894,31.894,0,0,0,31.722,32.064,31.9,31.9,0,0,0,31.722-32.064A31.894,31.894,0,0,0,2671.484-249.369Zm0,61.089a28.872,28.872,0,0,1-28.716-29.026,28.872,28.872,0,0,1,28.716-29.024,28.872,28.872,0,0,1,28.717,29.024A28.872,28.872,0,0,1,2671.484-188.28Z" transform="translate(-2639.762 249.369)" fill="#402420"/>
    </g>
    <rect id="Rectángulo_51" data-name="Rectángulo 51" width="12.746" height="49.467" transform="translate(130.747 112.209)" fill="#608da2"/>
    <g id="Grupo_100" data-name="Grupo 100" transform="translate(181.95 192.54)">
      <path id="Trazado_435" data-name="Trazado 435" d="M2760.335-166.386h-2.468v-21.045a8.124,8.124,0,0,0-8.071-8.159H2735.66v-2.494H2749.8a10.608,10.608,0,0,1,10.539,10.653Z" transform="translate(-2735.66 198.084)" fill="#b4d2d9"/>
    </g>
    <rect id="Rectángulo_52" data-name="Rectángulo 52" width="33.518" height="5.761" transform="translate(189.764 164.86)" fill="#1e3340"/>
    <g id="Grupo_101" data-name="Grupo 101" transform="translate(181.95 202.611)">
      <rect id="Rectángulo_53" data-name="Rectángulo 53" width="23.442" height="2.494" transform="translate(0 0)" fill="#b4d2d9"/>
    </g>
    <g id="Grupo_102" data-name="Grupo 102" transform="translate(140.618 180.369)">
      <rect id="Rectángulo_54" data-name="Rectángulo 54" width="45.959" height="3.741" fill="#b4d2d9"/>
    </g>
    <rect id="Rectángulo_55" data-name="Rectángulo 55" width="59.839" height="5.848" transform="translate(130.747 164.772)" fill="#34514c"/>
    <g id="Grupo_103" data-name="Grupo 103" transform="translate(88.798 102.545)">
      <path id="Trazado_436" data-name="Trazado 436" d="M2598.452-281.931h-3.7v-82.393a5.124,5.124,0,0,0-5.193-5.041h-34.906v-3.594h34.906a8.778,8.778,0,0,1,8.895,8.634Z" transform="translate(-2554.652 372.958)" fill="#b4d2d9"/>
    </g>
    <path id="Trazado_437" data-name="Trazado 437" d="M2745.439-148.4c0,6.974-6.219,12.627-13.889,12.627s-13.89-5.653-13.89-12.627,6.219-12.626,13.89-12.626S2745.439-155.373,2745.439-148.4Z" transform="translate(-2544.973 372.637)" fill="#15242b"/>
    <path id="Trazado_438" data-name="Trazado 438" d="M2745.131-143.742c0,4.247-3.786,7.689-8.458,7.689s-8.457-3.442-8.457-7.689,3.787-7.688,8.457-7.688S2745.131-147.988,2745.131-143.742Z" transform="translate(-2550.097 367.979)" fill="#0f1321"/>
    <path id="Rectángulo_56" data-name="Rectángulo 56" d="M0,0H6.477a0,0,0,0,1,0,0V8.765A3.238,3.238,0,0,1,3.239,12h0A3.239,3.239,0,0,1,0,8.764V0A0,0,0,0,1,0,0Z" transform="translate(183.261 218.833)" fill="#b4d2d9"/>
    <g id="Grupo_105" data-name="Grupo 105" transform="translate(214.496 201.113)">
      <path id="Trazado_439" data-name="Trazado 439" d="M2804.173-164.707l10.476-.391c4.314-.161,11.215.1,13.373.022s9.775-5.46,9.2-7.1-7.646-.963-11.413-2.695-10.716-7.451-11.655-6.429-7.28,1.533-8.467,2.824S2803.055-165.758,2804.173-164.707Z" transform="translate(-2801.265 181.424)" fill="#bc6502"/>
      <path id="Trazado_440" data-name="Trazado 440" d="M2799.3-156.109l10.476-.391c4.314-.161,11.215.1,13.371.021s9.776-5.46,9.2-7.1-7.647-.963-11.413-2.694-10.716-7.452-11.655-6.428-7.281,1.532-8.468,2.824S2798.185-157.159,2799.3-156.109Z" transform="translate(-2798.901 177.251)" fill="#fdb647"/>
      <path id="Trazado_441" data-name="Trazado 441" d="M2802.476-149.06c17.1-3.355,12.391,2.067,29.042-3.261-4.028,1.811-10.024,3.686-14.4,2.993a38.94,38.94,0,0,0-7.292-.213C2807.375-149.45,2804.928-149.259,2802.476-149.06Z" transform="translate(-2800.636 167.298)" fill="#fff7cf"/>
      <g id="Grupo_104" data-name="Grupo 104" transform="translate(11.804 6.162)">
        <path id="Trazado_442" data-name="Trazado 442" d="M2824.474-160.119a.657.657,0,0,0,.935.044,34.386,34.386,0,0,1,5.068-3.828c-.408-.256-.827-.525-1.248-.8a37.233,37.233,0,0,0-4.713,3.637A.677.677,0,0,0,2824.474-160.119Z" transform="translate(-2823.034 167.146)" fill="#fff7cf"/>
        <path id="Trazado_443" data-name="Trazado 443" d="M2822.2-165.133a.658.658,0,0,0,.892-.289,16.775,16.775,0,0,1,2.356-3.292c-.39-.255-.771-.5-1.137-.736a17.607,17.607,0,0,0-2.4,3.416A.671.671,0,0,0,2822.2-165.133Z" transform="translate(-2821.838 169.45)" fill="#fff7cf"/>
      </g>
    </g>
    <path id="Trazado_444" data-name="Trazado 444" d="M2756.709-297.692c-6.238-7.552-62.817-2.26-62.817-2.26s47.424,11.594,50.192,13.106,17.234,52.533,17.246,53.2c2.86-.682,5.768-1.594,8.679-2.191C2767.688-244.41,2762.544-290.628,2756.709-297.692Z" transform="translate(-2533.437 440.942)" fill="#845b43"/>
    <path id="Trazado_445" data-name="Trazado 445" d="M2676.932-288.4s.483,12.73,4.713,12.882,28.493-2.859,40.438-7.9c0,0-.1,11.649,2.218,16.853s15.4,38.832,15.4,38.832l15.4-5.413s-6.948-29.206-9.362-40.593-8.517-24.848-14.94-25.079-45.071-2.858-45.071-2.858Z" transform="translate(-2525.205 440.906)" fill="#b07959"/>
    <path id="Trazado_446" data-name="Trazado 446" d="M2649.142-393.1s-6.852,1.742-5.923,15.149,8.332,53.974,22.021,57.159,22.6-25.691,22.6-25.691-8.637-2.843-12.233-16.265c-2.492-9.3-9.17-30.283-10.843-31.292C2660.616-396.547,2649.142-393.1,2649.142-393.1Z" transform="translate(-2508.8 486.179)" fill="#374a59"/>
    <path id="Trazado_447" data-name="Trazado 447" d="M2674.449-254.028h-3.7v-24.309c0-5.724-5.7-12.125-13.333-12.125h-21.25V-294.2h21.25c9.074,0,17.034,7.414,17.034,15.867Z" transform="translate(-2505.418 437.277)" fill="#b4d2d9"/>
    <path id="Trazado_448" data-name="Trazado 448" d="M2637.866-208.837a30.082,30.082,0,0,1-29.92,30.242,30.082,30.082,0,0,1-29.92-30.242,30.082,30.082,0,0,1,29.92-30.241A30.082,30.082,0,0,1,2637.866-208.837Z" transform="translate(-2477.199 410.521)" fill="#18444f"/>
    <path id="Trazado_449" data-name="Trazado 449" d="M2601.8-251.871a36.63,36.63,0,0,0-36.432,36.825,36.63,36.63,0,0,0,36.432,36.825,36.63,36.63,0,0,0,36.433-36.825A36.63,36.63,0,0,0,2601.8-251.871Zm0,70.16a33.159,33.159,0,0,1-32.98-33.335,33.159,33.159,0,0,1,32.98-33.335,33.159,33.159,0,0,1,32.981,33.335A33.159,33.159,0,0,1,2601.8-181.711Z" transform="translate(-2471.056 416.73)" fill="#80a4b5"/>
    <path id="Trazado_450" data-name="Trazado 450" d="M2637.568-203.838a24.809,24.809,0,0,1-24.676,24.941,24.809,24.809,0,0,1-24.675-24.941,24.809,24.809,0,0,1,24.675-24.941A24.809,24.809,0,0,1,2637.568-203.838Z" transform="translate(-2482.146 405.522)" fill="#203640"/>
    <path id="Trazado_451" data-name="Trazado 451" d="M2636.481-185.607a5.582,5.582,0,0,1-5.552,5.612,5.582,5.582,0,0,1-5.552-5.612,5.582,5.582,0,0,1,5.552-5.612A5.582,5.582,0,0,1,2636.481-185.607Z" transform="translate(-2500.182 387.292)" fill="#0f1321"/>
    <rect id="Rectángulo_57" data-name="Rectángulo 57" width="37.672" height="6.536" transform="translate(203.13 221.535)" fill="#1e3340"/>
    <rect id="Rectángulo_58" data-name="Rectángulo 58" width="21.386" height="6.536" transform="translate(203.13 221.535)" fill="#42858c"/>
    <g id="Grupo_106" data-name="Grupo 106" transform="translate(185.342 170.551)">
      <rect id="Rectángulo_59" data-name="Rectángulo 59" width="2.468" height="57.52" fill="#b4d2d9"/>
    </g>
    <path id="Trazado_452" data-name="Trazado 452" d="M2744.624-136.517a1.531,1.531,0,0,1-1.523,1.539,1.531,1.531,0,0,1-1.523-1.539,1.531,1.531,0,0,1,1.523-1.539A1.532,1.532,0,0,1,2744.624-136.517Z" transform="translate(-2556.582 361.488)" fill="#0f1321"/>
    <g id="Grupo_108" data-name="Grupo 108" transform="translate(135.762 53.691)">
      <path id="Trazado_453" data-name="Trazado 453" d="M2652.216-427.494c-.435,0-1.392-.87-1.7,0s1.974,6.161,3.328,4.807S2652.216-427.494,2652.216-427.494Z" transform="translate(-2648.133 448.47)" fill="#fd5e5a"/>
      <path id="Trazado_454" data-name="Trazado 454" d="M2671.738-422.533l-11.612,3.055s.1,8.448.1,12.258c0,0,7.434,5.609,13.026.017Z" transform="translate(-2652.81 445.874)" fill="#fc7575"/>
      <path id="Trazado_455" data-name="Trazado 455" d="M2671.921-418.454c.046-.308.087-.636.124-.98l-.307-3.1-11.612,3.055s.028,2.328.055,5.123c1.709,2.609,4.267,4,5.128,4C2666.317-410.352,2671.133-413.116,2671.921-418.454Z" transform="translate(-2652.81 445.874)" fill="#fd5e5a"/>
      <path id="Trazado_456" data-name="Trazado 456" d="M2655.274-448.206s-4.729.525-4.729,2.189.438,6.655,1.576,8.757,1.051,3.5,2.628,6.743,4.9,4.991,5.911,4.991,5.823-2.54,6.611-7.444.351-15.237-2.1-16.2S2655.274-448.206,2655.274-448.206Z" transform="translate(-2648.16 458.933)" fill="#fc7575"/>
      <path id="Trazado_457" data-name="Trazado 457" d="M2653.747-467.3s-4.532,1.971-4.992,4.927-2.736,4.492-2.824,5.779c-.33,4.83,3.314,8.726,3.314,8.726s-1.668-6.958.1-8.013,4.617-.1,5.471-.1,3.005-2.2,4.184-2.3,4.2.5,4.2,2.668,2.174,6.371,2.174,6.371a20.729,20.729,0,0,0,.978-6.042c0-3.219-1.642-4.138-2.036-6.765s-7.619-2.1-8.473-2.1-.1-2.244.285-2.627-1.2,0-1.2,0l2.232-1.117Z" transform="translate(-2645.91 467.888)" fill="#321f48"/>
      <path id="Trazado_458" data-name="Trazado 458" d="M2651.16-457.2s3.026-1.243,3.44-4.186,1.824-3.357,1.824-3.357-1.492,3.233-.871,4.891S2651.16-457.2,2651.16-457.2Z" transform="translate(-2648.458 466.359)" fill="#312e78"/>
      <path id="Trazado_459" data-name="Trazado 459" d="M2654.875-462s-2.266,1.216-2.266,2.874v1.657Z" transform="translate(-2649.161 465.03)" fill="#312e78"/>
      <path id="Trazado_460" data-name="Trazado 460" d="M2662.381-459.53a2.612,2.612,0,0,0,2.451,1.823c1.915,0,3.6-1.243,5.4.553a3.211,3.211,0,0,0-2.442-1.658C2666.249-458.812,2663.432-458.259,2662.381-459.53Z" transform="translate(-2653.904 463.831)" fill="#312e78"/>
      <path id="Trazado_461" data-name="Trazado 461" d="M2683.012-435.29c1.463-.539,1.463,6.566-.587,6.551C2681.134-428.748,2682-434.918,2683.012-435.29Z" transform="translate(-2663.318 452.08)" fill="#fc7575"/>
      <path id="Trazado_462" data-name="Trazado 462" d="M2682.5-431.946s.684-1.906.974-1.326-.331,4.807-.974,4.807S2682.5-431.946,2682.5-431.946Z" transform="translate(-2663.531 451.14)" fill="#fd5e5a"/>
      <path id="Trazado_463" data-name="Trazado 463" d="M2658.581-429.456a.8.8,0,0,1-.541.995.8.8,0,0,1-1-.542.8.8,0,0,1,.542-.995A.8.8,0,0,1,2658.581-429.456Z" transform="translate(-2651.299 449.513)" fill="#321f48"/>
      <path id="Trazado_464" data-name="Trazado 464" d="M2673.4-432.067a.8.8,0,0,1-.542,1,.8.8,0,0,1-1-.542.8.8,0,0,1,.542-1A.8.8,0,0,1,2673.4-432.067Z" transform="translate(-2658.488 450.781)" fill="#321f48"/>
      <path id="Trazado_465" data-name="Trazado 465" d="M2656.883-433.9a4.105,4.105,0,0,0-2.74-.47,1.813,1.813,0,0,0-1.534,1.409,4.079,4.079,0,0,1,2.137-.744C2655.884-433.707,2656.557-432.644,2656.883-433.9Z" transform="translate(-2649.161 451.659)" fill="#321f48"/>
      <path id="Trazado_466" data-name="Trazado 466" d="M2668.73-436.216a4.109,4.109,0,0,1,2.741-.47,1.812,1.812,0,0,1,1.533,1.409,4.072,4.072,0,0,0-2.137-.745C2669.73-436.022,2669.056-434.958,2668.73-436.216Z" transform="translate(-2656.986 452.783)" fill="#321f48"/>
      <path id="Trazado_467" data-name="Trazado 467" d="M2665.785-422.856a8.445,8.445,0,0,0-.239-2.481,9.7,9.7,0,0,0-.221,2.94,7.7,7.7,0,0,0,1.741-.243A6.812,6.812,0,0,0,2665.785-422.856Z" transform="translate(-2655.323 447.235)" fill="#321f48"/>
      <g id="Grupo_107" data-name="Grupo 107" transform="translate(9.687 26.529)">
        <path id="Trazado_468" data-name="Trazado 468" d="M2666.576-414.147a4.526,4.526,0,0,1-1.635-.308.331.331,0,0,1-.184-.431.33.33,0,0,1,.431-.184c.106.042,2.614,1.015,3.7-1.088a.332.332,0,0,1,.447-.142.332.332,0,0,1,.142.447A3.094,3.094,0,0,1,2666.576-414.147Z" transform="translate(-2664.732 416.338)" fill="#321f48"/>
      </g>
    </g>
    <path id="Trazado_469" data-name="Trazado 469" d="M2561.576-390.593c-1.448-1.449-8.162-3.686-13.253-7.373-2.252-1.63-6.58-3.775-10.791-6.11a27.056,27.056,0,0,0-7.937,6.417c7.62,3.509,15.892,7.038,17.148,8.294,2.37,2.37,6.5,7.724,7.461,7.724s8.295-2.15,9.392-3.247S2563.025-389.145,2561.576-390.593Z" transform="translate(-2453.692 490.606)" fill="#fc7575"/>
    <path id="Trazado_470" data-name="Trazado 470" d="M2523.164-450.135c-5.312-2.943-10.439-6.186-10.977-9.075-.965-5.179,3.424-27.56.966-31.862s-7.988-7.9-7.988-7.9c-.878,0-4.037,1.931-4.915,5.793s.7,38.62,1.58,41.779c.412,1.484,6.419,7.391,13.167,10.5C2517.074-443.467,2520.087-448.427,2523.164-450.135Z" transform="translate(-2439.324 536.666)" fill="#b890b0"/>
    <path id="Trazado_471" data-name="Trazado 471" d="M2639.558-313.342l21.179,5.56s6.227,4.5,9.028,5.391,6.222,3.983,5.551,4.932-4.189-2.273-4.76-2.175,2.067,3.912,2.5,6.412,1.286,4.928-.145,4.731-2.469-5.828-2.469-5.828-2.2-4.256-2.555-3.754,1.469,3.425,1.469,3.425.433,3.159.624,4.27c.142.83-.62,3.318-1.27,2.4-.382-.538-.2-2.591-.645-3.763a18.57,18.57,0,0,0-2.4-4.312s1.591,7.2.592,7.374-2.035-5.8-2.035-5.8-2.444-4.969-3.511-5.412-4-2.335-6.267-3.124-11.642,1.81-15.825,1.864-10.969-2.538-11.533-5.825a4.13,4.13,0,0,1,1.406-3.17A11.1,11.1,0,0,1,2639.558-313.342Z" transform="translate(-2500.998 446.748)" fill="#fc7575"/>
    <path id="Trazado_472" data-name="Trazado 472" d="M2640.239-391.385s-6.408-1.142-12.207,9.311-2.046,37.391-2.046,37.391l12.472-6.375Z" transform="translate(-2499.897 484.464)" fill="#6f72af"/>
    <path id="Trazado_473" data-name="Trazado 473" d="M2528.224-526.542c.306.317.321,9.469,1.543,12,0,0,3.214,13.086,1.03,13.357-1.9.236-8.78-10.555-9.159-12.364-.51-2.431,0-14.583,0-14.583Z" transform="translate(-2449.719 550.817)" fill="#fc7575"/>
    <path id="Trazado_474" data-name="Trazado 474" d="M2528.7-522.135c-2.619,1.871-5.073.57-7.081-2.548l0-.1c.051-1.681.113-3.243.116-3.339l6.587,1.585A34.119,34.119,0,0,1,2528.7-522.135Z" transform="translate(-2449.821 550.817)" fill="#fd5e5a"/>
    <path id="Trazado_475" data-name="Trazado 475" d="M2526.314-565.165s3.672.726,4.11,3.994,1.049,5.991.437,9.8-2.8,8.9-6.383,9.713-7.344-5.355-7.344-8.714-1.312-8.986,1.137-12.435S2526.314-565.165,2526.314-565.165Z" transform="translate(-2447.473 568.873)" fill="#fc7575"/>
    <g id="Grupo_109" data-name="Grupo 109" transform="translate(74.694 21.288)">
      <path id="Trazado_476" data-name="Trazado 476" d="M2527.246-530.851a14.246,14.246,0,0,0,4.8.9,5.275,5.275,0,0,1-.553.848,14.179,14.179,0,0,1-3.824-.7A6.715,6.715,0,0,1,2527.246-530.851Z" transform="translate(-2527.246 530.851)" fill="#fff"/>
      <path id="Trazado_477" data-name="Trazado 477" d="M2528.059-528.83a14.179,14.179,0,0,0,3.824.7C2530.515-526.434,2529.066-526.843,2528.059-528.83Z" transform="translate(-2527.641 529.87)" fill="#2e0028"/>
    </g>
    <path id="Trazado_478" data-name="Trazado 478" d="M2529.915-565.165s3.673.726,4.11,3.994c.4,2.962.936,5.476.578,8.759a9.993,9.993,0,0,0-2.582-1.24c-4.008-1.37-7.593-9.413-7.743-9.755l-.063-.143-.009-.157a3.125,3.125,0,0,1,.111-.989A11.161,11.161,0,0,1,2529.915-565.165Z" transform="translate(-2451.074 568.874)" fill="#fd5e5a"/>
    <g id="Grupo_110" data-name="Grupo 110" transform="translate(77.092 15.954)">
      <path id="Trazado_479" data-name="Trazado 479" d="M2533.689-538.079a31.1,31.1,0,0,1-.155-3.137c.224,1.331.276,2.3.352,3.267a2.781,2.781,0,0,1-1.981.147A3.232,3.232,0,0,0,2533.689-538.079Z" transform="translate(-2531.905 541.216)" fill="#172866"/>
    </g>
    <path id="Trazado_480" data-name="Trazado 480" d="M2527.635-542.731a2.036,2.036,0,0,0-1.351-1.362c-1.2-.326-1.932,1.467-2.755,1.45.591.314,1.536-.734,2.185-1a1.149,1.149,0,0,1,1.01.125A3.155,3.155,0,0,1,2527.635-542.731Z" transform="translate(-2450.748 558.586)" fill="#172866"/>
    <path id="Trazado_481" data-name="Trazado 481" d="M2527.288-543.1a.641.641,0,0,0,.583.685.641.641,0,0,0,.584-.685.641.641,0,0,0-.584-.686A.641.641,0,0,0,2527.288-543.1Z" transform="translate(-2452.572 558.419)" fill="#172866"/>
    <path id="Trazado_482" data-name="Trazado 482" d="M2536.689-541.9a2.027,2.027,0,0,1,1.41-1.3c1.212-.27,1.866,1.556,2.688,1.577-.6.286-1.5-.8-2.139-1.1a1.15,1.15,0,0,0-1.016.077A3.149,3.149,0,0,0,2536.689-541.9Z" transform="translate(-2457.135 558.145)" fill="#172866"/>
    <path id="Trazado_483" data-name="Trazado 483" d="M2539.85-542.172a.638.638,0,0,1-.613.657.642.642,0,0,1-.553-.712.638.638,0,0,1,.613-.657A.643.643,0,0,1,2539.85-542.172Z" transform="translate(-2458.103 557.98)" fill="#172866"/>
    <path id="Trazado_484" data-name="Trazado 484" d="M2527.822-548.29c.131-.088-.916-1.18-2.172-1.3s-2.613,1.3-2.613,1.3,1.85-1.145,2.63-.775S2527.1-547.8,2527.822-548.29Z" transform="translate(-2450.509 561.24)" fill="#172866"/>
    <path id="Trazado_485" data-name="Trazado 485" d="M2525.861-538.2c-.161.5-1.04.642-1.964.321s-1.544-.984-1.383-1.483,1.04-.642,1.964-.321S2526.021-538.7,2525.861-538.2Z" transform="translate(-2450.242 556.508)" fill="#fd5e5a"/>
    <path id="Trazado_486" data-name="Trazado 486" d="M2540.759-537.744c.069.474-.53.963-1.339,1.091s-1.522-.153-1.592-.627.53-.963,1.339-1.091S2540.689-538.218,2540.759-537.744Z" transform="translate(-2457.685 555.804)" fill="#fd5e5a"/>
    <path id="Trazado_487" data-name="Trazado 487" d="M2505.917-570.4a7.028,7.028,0,0,0-8.273-.852c-4.829,2.594-10.81,13.174-8.5,20.962s-1.8,6.851-5.116,8.941-2.666,6.557.793,8.574,2.017,5.62-1.225,5.62-3.963-1.8-3.963-1.8.144,7.71,7.926,5.116,10.521-4.9,10.521-9.944,3.867-6.413,4.491-9.655-3.1-9.578-3.1-15.129S2505.917-570.4,2505.917-570.4Z" transform="translate(-2429.44 572.217)" fill="#1b2b80"/>
    <path id="Trazado_488" data-name="Trazado 488" d="M2482.569-540.283c.955-5.477,6.465-1.42,7.063-4.249.868-4.7-4.21-6.184-1.562-15.305,2.759-8.417,12.215-15.033,20.2-10.163l-.611.977c-7.739-4.286-17.017,3.411-18.556,11.017-1.375,7.743,1.315,7.255,1.533,11.877a3.712,3.712,0,0,1-.723,2.788c-1.332,1.4-3.97-.039-5.645.714A3.575,3.575,0,0,0,2482.569-540.283Z" transform="translate(-2430.867 571.945)" fill="#1b2b80"/>
    <path id="Trazado_489" data-name="Trazado 489" d="M2531.022-569.065c3.366.771,4.382,6.149,7.137,9.009s2.054,6.989.743,9.712-3.414.953-3.414.953,1.1.636,1.8-1.633-.525-4.04-4.241-5.31-7.258-9.3-7.258-9.3C2525.693-567.209,2527.656-569.836,2531.022-569.065Z" transform="translate(-2451.842 570.755)" fill="#2846a6"/>
    <path id="Trazado_490" data-name="Trazado 490" d="M2535.491-546.029c1.276.772,3.076-2.472,1.763-4.591-.955-1.639-3.048-2.329-4.721-3.048-2.651-1.58-5.2-5.944-6.744-8.61,1.121,3.181,3.494,7.593,6.356,9.352l.688.31c.708.3,2.861.9,3.9,2.352a3.612,3.612,0,0,1-.119,3.756A.974.974,0,0,1,2535.491-546.029Z" transform="translate(-2451.844 567.393)" fill="#003135"/>
    <path id="Trazado_491" data-name="Trazado 491" d="M2517.753-542.336s-.936-4.215-2.494-3.2.115,5.684,1.567,5.684S2517.753-542.336,2517.753-542.336Z" transform="translate(-2446.43 559.342)" fill="#fc7575"/>
    <path id="Trazado_492" data-name="Trazado 492" d="M2516.962-543.746s2.3,3.831.722,3.408S2515.482-544.458,2516.962-543.746Z" transform="translate(-2447.153 558.442)" fill="#fd5e5a"/>
    <path id="Trazado_493" data-name="Trazado 493" d="M2593-383.78s2.524,3.6,3.276,3.6,4.7.248,5.317-.371-2.229-5.3-3.249-5.3,1.208,3.088.94,3.357-2.471-4.887-3.6-4.4,2.2,4.082,1.826,4.458-2.739-4.082-3.652-4.082,2.147,4.029,1.826,4.35S2593.426-384.21,2593-383.78Z" transform="translate(-2484.465 482.283)" fill="#fc7575"/>
  </g>
  <path id="Trazado_494" data-name="Trazado 494" d="M1962.636-406.107c4.042,1.286,4.638,4.914,7.786,7.758l-22.863,24-3.758-3.39S1962.17-404.388,1962.636-406.107Z" transform="translate(-1931.842 491.592)" fill="#592c13"/>
  <g id="Grupo_112" data-name="Grupo 112" transform="translate(0 114.008)">
    <path id="Trazado_495" data-name="Trazado 495" d="M1954.795-216.732a1.1,1.1,0,0,0,1.1,1.125,1.108,1.108,0,0,0,1.113-1.1c.109-9.827.775-44.256-.06-70.3h-2.735C1954.9-265.866,1955-237.608,1954.795-216.732Z" transform="translate(-1936.896 319.776)" fill="#115766"/>
    <path id="Trazado_496" data-name="Trazado 496" d="M1920.563-227.175h2.226c.146-44.958.787-73.119,1.949-90.739.157-2.456.327-4.707.508-6.777,1.247-14.364,2.977-19.628,5.168-21.529a3.556,3.556,0,0,1,5.724,2.239,190.458,190.458,0,0,1,1.488,19.29h2.735c-.593-13.275-1.694-23.15-3.631-24.252-7.188-4.09-10.359-2.057-13.105,17.983C1921.132-312.709,1920.635-241.213,1920.563-227.175Z" transform="translate(-1920.563 350.683)" fill="#115766"/>
  </g>
  <path id="Trazado_497" data-name="Trazado 497" d="M1987.265-467.8c3.17-.655-1.391,38.82-1.391,38.82l-.65.682a29.175,29.175,0,0,0-10.928-6C1976.962-444.127,1983.106-466.941,1987.265-467.8Z" transform="translate(-1946.643 521.54)" fill="#675833"/>
  <path id="Trazado_498" data-name="Trazado 498" d="M2032.4-211.282s5.57,20.319,4.179,26.72-.992,11.073-3.237,11.821c-4.54,1.511-.707,3.831,7.25,1.794,1.078-.276,7.264-10.267,7.674-12.737.436-2.632-5.583-2.024-3.639-9.526s1.252-21.428,1.252-21.428Z" transform="translate(-1974.362 398.659)" fill="#592c13"/>
  <path id="Trazado_499" data-name="Trazado 499" d="M2033.051-145.91a1.545,1.545,0,0,0,.643-.379,2.846,2.846,0,0,0,3.36.583c1.554-.6,7.4-10.748,9.045-13.651,1.9.73,2.513,1.371,2.326,2.5-.41,2.47-6.666,12.84-7.743,13.116C2032.723-141.7,2027.624-144.489,2033.051-145.91Z" transform="translate(-1974.068 371.827)" fill="#22214b"/>
  <path id="Trazado_500" data-name="Trazado 500" d="M1970.564-200.187c-1.316,5.264-8.773,19.347-10.257,25.656-.77,3.276-3.813-.811-9.044-.542s-12.057-2.981-13.2-4.879,13.86.047,16.865-5.656,6.291-24.695,6.291-24.695S1971.881-205.451,1970.564-200.187Z" transform="translate(-1929.03 396.554)" fill="#7c4532"/>
  <path id="Trazado_501" data-name="Trazado 501" d="M1937.709-152.743c-.527-.878,2.593-.748,6.193-1.119a1.863,1.863,0,0,0,.593.99c1.136,1.136,12.635,2.688,16.406,3.171a23.5,23.5,0,0,1-.378,2.76c-.77,3.276-4.2-.7-9.433-.435S1938.848-150.845,1937.709-152.743Z" transform="translate(-1928.857 369.16)" fill="#22214b"/>
  <path id="Trazado_502" data-name="Trazado 502" d="M2005.486-472.118s7.792,17.253,10.018,33.394,2.574,114.863,2.574,114.863-23.607,6.5-53.256-4.815c0,0,14.042-95.807,12.094-103.042-.329-1.223-1.914-6.956-1.837-9.083.376-10.453,7.588-29.09,7.588-29.09Z" transform="translate(-1942.045 523.632)" fill="#b69c5b"/>
  <path id="Trazado_503" data-name="Trazado 503" d="M2044.7-421.816c0-15.138-4.95-42.862-6.289-50.087l2.206-.215s7.791,17.253,10.018,33.394,2.574,114.863,2.574,114.863a70.74,70.74,0,0,1-16.006,1.843C2038.759-340.3,2044.7-406.6,2044.7-421.816Z" transform="translate(-1977.177 523.632)" fill="#897544"/>
  <path id="Trazado_504" data-name="Trazado 504" d="M2073.556-416.982s5.5,11.141,3.695,14.481-9.48,26.557-9.48,26.557l-5.547-2.9s3.27-19.341,3.27-23.793-3.27-12.782-3.27-12.782Z" transform="translate(-1989.321 496.871)" fill="#7c4532"/>
  <g id="Grupo_114" data-name="Grupo 114" transform="translate(32.265 11.985)">
    <path id="Trazado_505" data-name="Trazado 505" d="M1984.092-526.042c-1.665-3.293-.729-7.9,1.889-9.486a4.769,4.769,0,0,1,4.6-6.512c.5,0,1.336-.5,1.336-.873,0-3.855,3.486-5.988,5.843-3.649.871-.641,1.4-.972,1.4-.972l5.593,32.42a10.8,10.8,0,0,1-9.009,1.209,8.139,8.139,0,0,1-11.234-9.892A9.688,9.688,0,0,1,1984.092-526.042Z" transform="translate(-1983.26 548.253)" fill="#c5c6fe"/>
    <path id="Trazado_506" data-name="Trazado 506" d="M2010.287-496.39a44.577,44.577,0,0,1,.43,4.681c.107,2.655.207,6.888-.654,9.408-1.721,5.042,8.384,7.153,10.71,1.894s-1.449-17.826-1.449-17.826Z" transform="translate(-1996.174 524.323)" fill="#7c4532"/>
    <path id="Trazado_507" data-name="Trazado 507" d="M2019.72-498.233l-9.037,1.842a44.5,44.5,0,0,1,.434,4.788q.35.124.719.218c3.08.785,6.51-.617,8.894-2.879C2020.211-496.6,2019.72-498.233,2019.72-498.233Z" transform="translate(-1996.57 524.323)" fill="#592c13"/>
    <path id="Trazado_508" data-name="Trazado 508" d="M2001.714-543.423s-3.958,3.9-3.4,8.9-.346,7.812-.4,9.588,2.483,7.31,7.828,8.549,11.721-3.415,11.865-7.8-.383-12.043-3.68-15.527S2001.714-543.423,2001.714-543.423Z" transform="translate(-1990.368 546.257)" fill="#7c4532"/>
    <g id="Grupo_113" data-name="Grupo 113" transform="translate(14.113 18.439)">
      <path id="Trazado_509" data-name="Trazado 509" d="M2010.683-511.646c.124-.575.557-1.583,1.156-1.438a6.533,6.533,0,0,1,1.672.793c-.616-.085-1.176-.362-1.75-.447C2011.5-512.932,2011.2-512.31,2010.683-511.646Z" transform="translate(-2010.683 513.098)" fill="#18287d"/>
    </g>
    <path id="Trazado_510" data-name="Trazado 510" d="M2004.189-516.219a.79.79,0,0,1-.833.741.791.791,0,0,1-.833-.741.791.791,0,0,1,.833-.74A.79.79,0,0,1,2004.189-516.219Z" transform="translate(-1992.609 533.412)" fill="#18287d"/>
    <path id="Trazado_511" data-name="Trazado 511" d="M2017.957-517.47a.794.794,0,0,0,.955.578.787.787,0,0,0,.683-.877.793.793,0,0,0-.955-.578A.787.787,0,0,0,2017.957-517.47Z" transform="translate(-2000.095 534.093)" fill="#18287d"/>
    <path id="Trazado_512" data-name="Trazado 512" d="M2000.1-523.061c-1.216.2-1.078,1-1.078,1a8.668,8.668,0,0,0,1.2-.52l3.039-.015A8.13,8.13,0,0,0,2000.1-523.061Z" transform="translate(-1990.91 536.392)" fill="#c5c6fe"/>
    <path id="Trazado_513" data-name="Trazado 513" d="M2016.919-525.362c1.228-.107,1.3.705,1.3.705a8.711,8.711,0,0,1-1.294-.207l-2.949.734A8.121,8.121,0,0,1,2016.919-525.362Z" transform="translate(-1998.167 537.495)" fill="#c5c6fe"/>
    <path id="Trazado_514" data-name="Trazado 514" d="M2014.339-505.484s-4.073-.642-4-.054.639,2.022.7,2.53.44,1.212,1.736,1.053S2014.43-504.745,2014.339-505.484Z" transform="translate(-1996.402 527.989)"/>
    <path id="Trazado_515" data-name="Trazado 515" d="M2014.339-505.484a3.929,3.929,0,0,1-.028.872c-.892-.185-2.9-.524-3.754-.057a5.756,5.756,0,0,1-.219-.869C2010.266-506.126,2014.339-505.484,2014.339-505.484Z" transform="translate(-1996.402 527.989)" fill="#fff"/>
    <path id="Trazado_516" data-name="Trazado 516" d="M2005.307-546.1a8.679,8.679,0,0,1,2.523-1.031c.681-1.033,3.253-1.8,6.322-1.8,3.59,0,6.5,1.052,6.5,2.349a1.125,1.125,0,0,1-.366.778l.187.074a12.293,12.293,0,0,1,3.03-.368c4.007,0,7.255,1.806,7.255,4.034a2.544,2.544,0,0,1-.5,1.481c3.477.241,6.2,2.565,6.2,5.4a4.634,4.634,0,0,1-1.086,2.937,18.29,18.29,0,0,1,1.819,6.614c.291,5.7-6.643,5.475-6.643,5.475s2.625,5.715-1.139,9.209-13.14-3.12-13.644-5.981,6.27-10.021,3.687-15.186S2005.307-546.1,2005.307-546.1Z" transform="translate(-1993.961 548.929)" fill="#e3e4ff"/>
    <path id="Trazado_517" data-name="Trazado 517" d="M2028.936-520.984a2.086,2.086,0,0,1,2.961-1.867c2.751.889,1.427,5.393-.393,5.866S2028.936-520.984,2028.936-520.984Z" transform="translate(-2005.429 536.357)" fill="#7c4121"/>
    <path id="Trazado_518" data-name="Trazado 518" d="M2010.21-545.426c1.939.437,11.444,2.272,12.113,3.57.022.069-.008,0-.008,0-.276,1.576-1.566,1.441-1.763.81-.028-.077,0-.011-.009.037a.133.133,0,0,1-.008.051.848.848,0,0,1,.187-.194,5.365,5.365,0,0,1,4.06-.71c2.2.515,3.034,3.023,1.683,4.2-1.217,1.1-2.266.488-2,.7a.661.661,0,0,1,.094.418.463.463,0,0,1-.052.18c.343-.749,8.238-3.849,8.775,1.778.377,2.329-.352,4.839-2.294,4.641-.447-.005-.449-.274-.321.059.058.225-.074.156.272-.194,2.7-2.672,5.671-.116,4.425,2.751-1.2,3.028-6,2.421-7.755.618.96,2.886,6.528,3.827,8.462,1.261,3.592-4.7-1.786-10.037-6.258-5.774-2.438,2.462,1.681,4.1,3.876,1.8,2.058-2.131,2.052-8.5-2.011-9.791-3.941-1.229-9.929,1.489-8.468,3.169,1.846,2.206,7.815-1.58,4.27-5.741-1.749-2.034-5.38-1.93-7.554-.322-2.037,1.81,1.632,3.969,3.043,1.7,1.331-2.075-.343-2.876-2.665-3.554A56.677,56.677,0,0,0,2010.21-545.426Z" transform="translate(-1996.34 547.229)" fill="#c5c6fe"/>
  </g>
  <path id="Trazado_519" data-name="Trazado 519" d="M2043.838-472.118a21.14,21.14,0,0,1,12.245,5.844c5.357,5.357,12.939,27.41,12.939,27.41l-14.177,6.818s-4.575-10.488-6.137-15.305C2047.646-450.627,2043.838-472.118,2043.838-472.118Z" transform="translate(-1980.397 523.632)" fill="#c5b07c"/>
  <rect id="Rectángulo_60" data-name="Rectángulo 60" width="16.013" height="5.288" transform="translate(79.454 204.085) rotate(-180)" fill="#115766"/>
  <rect id="Rectángulo_61" data-name="Rectángulo 61" width="17.875" height="5.041" transform="translate(20.383 200.212) rotate(-180)" fill="#115766"/>
  <path id="Trazado_520" data-name="Trazado 520" d="M1928.676-293.4h60.884v-6.777h-60.376C1929-298.106,1928.833-295.855,1928.676-293.4Z" transform="translate(-1924.501 440.176)" fill="#115766"/>
  <g id="Grupo_115" data-name="Grupo 115" transform="translate(4.683 139.395)">
    <rect id="Rectángulo_62" data-name="Rectángulo 62" width="60.375" height="1.21" transform="translate(0 0)" fill="#a0bcc2"/>
  </g>
  <g id="Grupo_116" data-name="Grupo 116" transform="translate(62.219 120.229)">
    <path id="Trazado_521" data-name="Trazado 521" d="M2045.812-329.766c2.218-6.192,5.786-11.767,10.461-7.092,3.592,3.593,2.5,78.874,2.025,104.454h-2.226c.714-38.5.951-99.257-1.373-102.879-1.213-1.214-1.931-1.056-2.164-1-1,.225-2.62,1.669-4.627,7.269-5.381,15.016-4.159,93.064-3.879,107.7H2041.8C2041.5-236.425,2040.235-314.2,2045.812-329.766Z" transform="translate(-2041.463 338.595)" fill="#115766"/>
  </g>
  <path id="Trazado_522" data-name="Trazado 522" d="M2065.455-340.295s-2.721,5.676-3.917,4.919.442-2.916.442-2.916-1.209,2.137-2.315,1.438.431-3.86.431-3.86-.89,3.3-2.167,3.1c-2.5-.4-.293-4.749-.293-4.749s-2.768,5.691-3.367,5.311.679-4.326,1.317-6.188a3.433,3.433,0,0,1,4.982-1.973c2.021,1.279,1.556.55,3.279,1.64A3.9,3.9,0,0,1,2065.455-340.295Z" transform="translate(-1985.385 462.278)" fill="#8f4f3a"/>
  <path id="Trazado_523" data-name="Trazado 523" d="M1937.113-352.77h-4.306c-.922,0-3.763,6.193-3.02,6.891s2.853-3.885,2.853-3.885l1.493-.709s-3,3.186-2.5,4.667,3.065-2.434,3.857-3.179,2.935-.137,2.935-.137-1.174,1.348-1.174,2.2,4.509-1,4.509-2.2S1939.658-352.77,1937.113-352.77Z" transform="translate(-1924.98 465.704)" fill="#7c4532"/>
  <path id="Trazado_524" data-name="Trazado 524" d="M2241.687-310.325s.982,3.744,1.807,3.636,2.743-4.091,2.743-4.091l-1.138-1.429Z" transform="translate(-2076.427 446.017)" fill="#fd5e5a"/>
  <path id="Trazado_525" data-name="Trazado 525" d="M2200.555-331.515l3.479,43.119,28.637,26.235-3.211,6.754-38.807-24.157-11.241-48.053Z" transform="translate(-2046.2 455.387)" fill="#272640"/>
  <path id="Trazado_526" data-name="Trazado 526" d="M2274.179-200.836l-5.484,12.222s10.969,4.389,10.969,7.419.3,6.183-1.219,8.45,4.266,3.647,4.266,3.647l5.891-14.075-.914-1.794h1.929l1.439-2.594-3.573-2.728Z" transform="translate(-2089.536 391.959)" fill="#2c442d"/>
  <path id="Trazado_527" data-name="Trazado 527" d="M2197.784-352.712l3.479,10.909-21.411,51.95-1.942,45.2h-6.087l-7.494-48.833,8.547-56.313Z" transform="translate(-2038.88 465.676)" fill="#67626d"/>
  <path id="Trazado_528" data-name="Trazado 528" d="M2171.1-166.7l-13.369-.609s2.933,15.13-.1,16.81-6.014,3.716-9.126,3.538-1.282,4.623-1.282,4.623l17.344-.84,1.286-1.855,1.07,1.818,3.422-.083.718-4.877Z" transform="translate(-2030.319 375.686)" fill="#233824"/>
  <path id="Trazado_529" data-name="Trazado 529" d="M2241-400.158c1.426,2.829,4.461,20.433,3.836,26.321-.615,5.8-1.71,9.791.013,11.607-1.56,3.145-4.772,4.7-7.972,6.561a1.9,1.9,0,0,0-1.5-.158l-1.606,1.385a14.418,14.418,0,0,1,0-7.793c1.249-3.723,1.427-26.235-3.524-32.122S2241-400.158,2241-400.158Z" transform="translate(-2070.406 488.705)" fill="#fc7575"/>
  <path id="Trazado_530" data-name="Trazado 530" d="M2241-400.158s-15.7-.086-10.75,5.8a10.855,10.855,0,0,1,1.7,3.1c2.575-.3,7.54-.859,11.015-1.122A41.634,41.634,0,0,0,2241-400.158Z" transform="translate(-2070.406 488.705)" fill="#fd5e5a"/>
  <path id="Trazado_531" data-name="Trazado 531" d="M2164.2-474.458s8.824-10.034,17.924-3.54S2199.4-409.39,2199.4-409.39l-36.934,5.714s8.21-17.951,2.59-28.082S2158.824-458.824,2164.2-474.458Z" transform="translate(-2037.014 527.548)" fill="url(#linear-gradient)"/>
  <path id="Trazado_532" data-name="Trazado 532" d="M2200.813-473.981s-3.542,3.213-3.542,10.681,14.806,34.216,14.806,36.136l17.3-4.451S2218.375-477.142,2200.813-473.981Z" transform="translate(-2054.869 524.613)" fill="#b890b0"/>
  <g id="Grupo_120" data-name="Grupo 120" transform="translate(105.888 4.746)">
    <path id="Trazado_533" data-name="Trazado 533" d="M2165.76-515.031l.621,19.7c.033,1.075.317,5.216,1.229,5.824,2.119,1.411,7.851-1.014,10.805-3.509,2.574-2.175-3.492-22.614-3.492-22.614A35.5,35.5,0,0,0,2165.76-515.031Z" transform="translate(-2145.463 540.039)" fill="#fc7575"/>
    <path id="Trazado_534" data-name="Trazado 534" d="M2174.924-515.632s.21.774.538,2.053a33.952,33.952,0,0,1-.921,6.844c-.8,2.854-4.505,7.707-8.261,8.176l-.519-16.472A35.5,35.5,0,0,1,2174.924-515.632Z" transform="translate(-2145.463 540.039)" fill="#fd5e5a"/>
    <g id="Grupo_119" data-name="Grupo 119" transform="translate(0 0)">
      <path id="Trazado_535" data-name="Trazado 535" d="M2180.937-562.331c1.957,2.42,3.606,5.834,1.122,7.72,2.843-1.642,1.542-5.653-.175-8.384Z" transform="translate(-2152.829 562.995)" fill="#132759"/>
      <path id="Trazado_536" data-name="Trazado 536" d="M2154.1-542.782s-4.192.721-4.371,5.924,3.157,19.428,7.444,20.536,8.994-4.1,9.877-6.992a31.578,31.578,0,0,0,.864-7.678S2167.107-549.708,2154.1-542.782Z" transform="translate(-2137.68 553.93)" fill="#fc7575"/>
      <path id="Trazado_537" data-name="Trazado 537" d="M2161.14-531.328s-.933,1.2-2.127-.238c0,0-2.771-3.31-.7-6.043s5.228-6.495,4.377-11.241-6.765-4.406-6.765-4.406-1.358-7.27-9.508-4.405c0,0-1.651-1.5-6.474-1.049s-3.531,2.963-6.34,2.672-3.313-2.386-2.188-3.268c0,0-4.669,2.369-5.08,6.129s6.954,3.571,6.954,3.571-5.9,1.064-1.241,3.276,6.851,2.057,9.493-.712,4.092-3.475,5.6-2.939,1.158,3.732,3.386,3.962,3.964,5.829,3.964,5.829,1.681-.643,1.809,3.344-.289,6.463,2.228,6.723S2161.14-531.328,2161.14-531.328Z" transform="translate(-2126.32 561.205)" fill="#132759"/>
      <path id="Trazado_538" data-name="Trazado 538" d="M2180.409-531.24c1.294-.219,4.476.557,2.081,4.683s-4.888.062-4.693-1.711A3.413,3.413,0,0,1,2180.409-531.24Z" transform="translate(-2151.3 547.598)" fill="#fc7575"/>
      <path id="Trazado_539" data-name="Trazado 539" d="M2159.291-518.862c.432,2.38.545,4.708,1.181,6.922.569-.023,1.14-.026,1.718,0a20.253,20.253,0,0,1-2.1.65A18.692,18.692,0,0,1,2159.291-518.862Z" transform="translate(-2142.286 541.574)" fill="#132759"/>
      <g id="Grupo_117" data-name="Grupo 117" transform="translate(17.707 19.376)">
        <path id="Trazado_540" data-name="Trazado 540" d="M2160.987-522.76a.292.292,0,0,0,.318-.226,2.509,2.509,0,0,1,1.474-1.59c1.071-.489,3.8.037,4.762.28a.286.286,0,0,0,.356-.2.283.283,0,0,0-.209-.346c-.149-.037-3.679-.921-5.158-.245a3.069,3.069,0,0,0-1.8,1.993.284.284,0,0,0,.23.333Z" transform="translate(-2160.726 525.344)" fill="#132759"/>
      </g>
      <path id="Trazado_541" data-name="Trazado 541" d="M2164.8-503.455s-4.161,1.566-6.611,1.135a3.562,3.562,0,0,0,1.992,2.274A3.884,3.884,0,0,0,2164.8-503.455Z" transform="translate(-2141.788 534.096)" fill="#fff"/>
      <path id="Trazado_542" data-name="Trazado 542" d="M2183.647-527.326s-.09,2.84-1.515,2.884-1.88-2.047-.976-3.142S2183.736-528.14,2183.647-527.326Z" transform="translate(-2152.709 546.106)" fill="#fd5e5a"/>
      <path id="Trazado_543" data-name="Trazado 543" d="M2163.26-519.3a.936.936,0,0,0,.983.849.912.912,0,0,0,.624-1.124.935.935,0,0,0-.982-.85A.913.913,0,0,0,2163.26-519.3Z" transform="translate(-2144.24 542.338)" fill="#132759"/>
      <path id="Trazado_544" data-name="Trazado 544" d="M2152.02-517.937a.935.935,0,0,0,.983.849.912.912,0,0,0,.624-1.125.936.936,0,0,0-.983-.849A.913.913,0,0,0,2152.02-517.937Z" transform="translate(-2138.784 541.675)" fill="#132759"/>
      <g id="Grupo_118" data-name="Grupo 118" transform="translate(12.277 20.592)">
        <path id="Trazado_545" data-name="Trazado 545" d="M2153.169-521.579a.277.277,0,0,1,0,.4.3.3,0,0,1-.237.081.293.293,0,0,1-.176-.081,4.641,4.641,0,0,0-2-1.213,4.666,4.666,0,0,0-.507-.023c-.028-.192-.052-.381-.077-.567a5.515,5.515,0,0,1,.645.026A5.27,5.27,0,0,1,2153.169-521.579Z" transform="translate(-2150.176 522.981)" fill="#132759"/>
      </g>
    </g>
  </g>
  <path id="Trazado_546" data-name="Trazado 546" d="M2248.477-329.828c1.832,1.777,2.7,8.892,1.452,10.1s-.911-2.225-.911-2.225.178,1.857-.541,2.554a16.546,16.546,0,0,1-3.384,1.775s-3.524.563-4.059.563,2.186-7.489-2.1-6.45l-2.086,1.385a17.553,17.553,0,0,1,.48-7.793c.052-.159.1-.362.153-.586,3.47-.628,6.488-2.575,10-3.07C2247.428-331.892,2247.651-330.63,2248.477-329.828Z" transform="translate(-2073.966 456.385)" fill="#fc7575"/>
</svg>
