<svg id="Componente_7_1" data-name="Componente 7 – 1" xmlns="http://www.w3.org/2000/svg" xmlns:xlink="http://www.w3.org/1999/xlink" width="312.78" height="201.701" viewBox="0 0 312.78 201.701">
  <defs>
    <linearGradient id="linear-gradient" y1="0.5" x2="1" y2="0.5" gradientUnits="objectBoundingBox">
      <stop offset="0" stop-color="#efbde4"/>
      <stop offset="1" stop-color="#ffd3fa"/>
    </linearGradient>
  </defs>
  <path id="Trazado_247" data-name="Trazado 247" d="M2245.329,1557.274s-4.648,3.992-5.248,7.991,5.1,8.814,4.3,11.858-2.382,4.513.356,6.041,5.88,3.25,4.876,5.048-4.755,3.95-2.94,5.458,3.851-.416,4.663,3.653c0,0,2.6-6.88,2.073-8.742s15.08-2.975,17.6-.872S2250.834,1554.268,2245.329,1557.274Z" transform="translate(-2041.15 -1453.439)" fill="#1e1d2c"/>
  <path id="Trazado_248" data-name="Trazado 248" d="M1989.108,1489.59a82.428,82.428,0,0,0,8.667,20.8l.919-1.915s-2.641-10.681-2.541-19.571C1993.846,1488.5,1991.448,1489.231,1989.108,1489.59Z" transform="translate(-1902.893 -1415.802)" fill="#fd5e5a"/>
  <path id="Trazado_249" data-name="Trazado 249" d="M1995.653,1441.094c.045-4.032.281-9.1,1.468-11.9,5.942-14.02,8.509-26.553,2.726-28.328s-15.473,22.192-13.274,35.617c.256,1.563.585,3.1.963,4.612A28.94,28.94,0,0,1,1995.653,1441.094Z" transform="translate(-1901.321 -1367.312)" fill="#8a6c84"/>
  <path id="Trazado_250" data-name="Trazado 250" d="M1985.62,1479.009s10.641-.268,10.508.579-.712,1.116-.36,2.066.145,1.1.041,1.963-1.468.806-1.922.91-7.079.382-7.564-.1-.434-.7-.434-1.715S1984.587,1479.154,1985.62,1479.009Z" transform="translate(-1900.752 -1410.394)" fill="#cc93a6"/>
  <path id="Trazado_251" data-name="Trazado 251" d="M1913.667,1704.726c0,3.4-26.094,6.161-58.283,6.161s-58.284-2.759-58.284-6.161,26.095-6.161,58.284-6.161S1913.667,1701.324,1913.667,1704.726Z" transform="translate(-1797.101 -1531.388)" fill="#abb9c1"/>
  <path id="Trazado_252" data-name="Trazado 252" d="M1903.472,1464.073l-1.2,1.61a16.958,16.958,0,0,0-2.407,15.752l12.793,39.09-.04,37.3,7.39-1.282,4.821-32.634-10.41-48.739Z" transform="translate(-1853.195 -1402.187)" fill="#272640"/>
  <path id="Trazado_253" data-name="Trazado 253" d="M1926.224,1666.691l10.495.18s-.334,9.061,1.837,10.051,4.333,2.232,6.441,1.913,1.26,4.157,1.26,4.157l-11.952-.5-1-1.221-.611,1.342-3.431.227Z" transform="translate(-1868.245 -1513.826)" fill="#233824"/>
  <path id="Trazado_254" data-name="Trazado 254" d="M1908.856,1464.073l-3.363,6.726c-1.765,3.53,26.159,59.693,26.159,59.693l5.158,34.036h9.289l.85-41.9-21-44.609Z" transform="translate(-1856.778 -1402.187)" fill="#67626d"/>
  <path id="Trazado_255" data-name="Trazado 255" d="M1972.091,1682.067l11.821,1.286s-1.311,10.187,1.035,11.527,4.658,2.965,7.068,2.823,1.326,3.159,1.326,3.159l-13.764-.14-1-1.48-.829,1.45-3.893-.1Z" transform="translate(-1893.517 -1522.298)" fill="#39543a"/>
  <path id="Trazado_256" data-name="Trazado 256" d="M1956.178,1389.635s2.524,2.8,1.557,9.018c-1.005,6.471-7.692,19.157-13.39,24.854s-15.843,19.1-15.843,19.1-22.433-10.552-22.433-19.248S1942.683,1384.687,1956.178,1389.635Z" transform="translate(-1857.14 -1360.871)" fill="url(#linear-gradient)"/>
  <g id="Grupo_52" data-name="Grupo 52" transform="translate(94.23)">
    <path id="Trazado_257" data-name="Trazado 257" d="M2019.867,1368.99l-6.258,14.286c-.341.779-1.762,5.539-2.606,5.722-1.957.425-4.046-7.109-4.046-10.509,0-2.987,6.422-12.584,6.422-12.584A27.474,27.474,0,0,1,2019.867,1368.99Z" transform="translate(-2006.958 -1348.098)" fill="#fc7575"/>
    <path id="Trazado_258" data-name="Trazado 258" d="M2018.345,1365.9s-.381.508-1,1.354a27.152,27.152,0,0,0-1.347,5.291c-.257,2.327,1,6.959,3.6,8.388l5.232-11.947A27.475,27.475,0,0,0,2018.345,1365.9Z" transform="translate(-2011.923 -1348.098)" fill="#fd5e5a"/>
    <g id="Grupo_51" data-name="Grupo 51" transform="translate(0.884)">
      <path id="Trazado_259" data-name="Trazado 259" d="M2034.568,1327.009c-2.136,1.213-4.342,3.244-3.092,5.346-1.584-2.026.545-4.6,2.6-6.107Z" transform="translate(-2021.048 -1326.248)" fill="#001959"/>
      <path id="Trazado_260" data-name="Trazado 260" d="M2032.464,1348.918s2.837,1.739,1.433,5.612-8.022,13.357-11.466,12.934-5.334-5.6-5.122-7.984a25.2,25.2,0,0,1,1.635-5.887S2025.048,1340.079,2032.464,1348.918Z" transform="translate(-2013.537 -1337.086)" fill="#fc7575"/>
      <path id="Trazado_261" data-name="Trazado 261" d="M2008.956,1350.606s.325,1.148,1.617.439c0,0,2.991-1.631,2.289-4.237s-1.888-6.277.13-9.517,6.219-1.285,6.219-1.285,3.13-4.948,8.213-.492c0,0,1.643-.626,5.018,1.1s1.695,3.194,3.823,3.791,3.112-.8,2.555-1.769c0,0,2.7,3.087,1.888,5.967s-6.11.616-6.11.616,3.974,2.482-.063,2.763-5.589-.465-6.695-3.26-1.951-3.733-3.206-3.774-1.942,2.406-3.63,1.933-4.6,3.136-4.6,3.136-1.033-.956-2.3,1.934-1.694,4.829-3.6,4.294S2008.956,1350.606,2008.956,1350.606Z" transform="translate(-2008.928 -1330.328)" fill="#172866"/>
      <path id="Trazado_262" data-name="Trazado 262" d="M2023.477,1352.564c-.877-.535-3.42-.883-2.894,2.838s3.536,1.456,3.917.1A2.674,2.674,0,0,0,2023.477,1352.564Z" transform="translate(-2015.311 -1340.566)" fill="#fc7575"/>
      <path id="Trazado_263" data-name="Trazado 263" d="M2037.455,1371.135c-1.015,1.623-1.784,3.3-2.9,4.742-.406-.181-.821-.348-1.25-.492a15.76,15.76,0,0,0,1.337,1.083A14.99,14.99,0,0,0,2037.455,1371.135Z" transform="translate(-2022.359 -1350.98)" fill="#001959"/>
      <g id="Grupo_49" data-name="Grupo 49" transform="translate(10.103 15.859)">
        <path id="Trazado_264" data-name="Trazado 264" d="M2035.942,1365.034a.227.227,0,0,1-.164-.258,1.968,1.968,0,0,0-.6-1.593c-.634-.668-2.773-1.069-3.545-1.168a.222.222,0,0,1-.2-.251.225.225,0,0,1,.253-.194c.12.016,2.948.385,3.824,1.307a2.408,2.408,0,0,1,.72,1.983.226.226,0,0,1-.265.179Z" transform="translate(-2031.429 -1361.568)" fill="#001959"/>
      </g>
      <path id="Trazado_265" data-name="Trazado 265" d="M2027.459,1380.244s2.564,2.35,4.474,2.741a2.825,2.825,0,0,1-2.118,1.095A3.029,3.029,0,0,1,2027.459,1380.244Z" transform="translate(-2019.069 -1355.999)" fill="#fff"/>
      <path id="Trazado_266" data-name="Trazado 266" d="M2022.22,1355.276s-.771,2.112.251,2.555,1.971-.961,1.637-2.026S2022.4,1354.651,2022.22,1355.276Z" transform="translate(-2016.098 -1342.027)" fill="#fd5e5a"/>
      <path id="Trazado_267" data-name="Trazado 267" d="M2037.559,1369.041a.737.737,0,0,1-.964.34.72.72,0,0,1-.123-1.006.737.737,0,0,1,.965-.34A.719.719,0,0,1,2037.559,1369.041Z" transform="translate(-2024.025 -1349.229)" fill="#001959"/>
      <path id="Trazado_268" data-name="Trazado 268" d="M2046.468,1373.907a.738.738,0,0,1-.965.34.719.719,0,0,1-.122-1.006.737.737,0,0,1,.965-.34A.72.72,0,0,1,2046.468,1373.907Z" transform="translate(-2028.933 -1351.91)" fill="#001959"/>
      <g id="Grupo_50" data-name="Grupo 50" transform="translate(16.432 19.743)">
        <path id="Trazado_269" data-name="Trazado 269" d="M2045.661,1370.6a.221.221,0,0,0-.118.295.233.233,0,0,0,.149.128.227.227,0,0,0,.152-.009,2.272,2.272,0,0,1,2.185-.186q.114-.2.223-.394a4.275,4.275,0,0,0-.477-.167A4.144,4.144,0,0,0,2045.661,1370.6Z" transform="translate(-2045.523 -1370.216)" fill="#001959"/>
      </g>
    </g>
  </g>
  <g id="Grupo_53" data-name="Grupo 53" transform="translate(81.345 54.594)">
    <path id="Trazado_270" data-name="Trazado 270" d="M2011.13,1555.193a1.484,1.484,0,0,1-1.452-1l-31.362-104.63a1.357,1.357,0,0,1,1.052-1.677,1.521,1.521,0,0,1,1.841.956l31.363,104.631a1.357,1.357,0,0,1-1.053,1.677A1.647,1.647,0,0,1,2011.13,1555.193Z" transform="translate(-1978.263 -1447.833)" fill="#7e4302"/>
    <path id="Trazado_271" data-name="Trazado 271" d="M2003.749,1527.964s3.284-4.364,2.816-5.678-2.9,1.491-2.9,1.491,2.723-2.025,2.283-3.38-2.743,1.336-2.743,1.336,2.485-2.881,1.917-3.427-3.593,2.262-3.578,3.047.275,1.358.3,2.722S2003.749,1527.964,2003.749,1527.964Z" transform="translate(-1991.091 -1486.623)" fill="#fd5e5a"/>
    <path id="Trazado_272" data-name="Trazado 272" d="M2009.635,1535.215c-.483-.031-1.652,1-.994,1.66S2011.243,1535.315,2009.635,1535.215Z" transform="translate(-1994.893 -1495.979)" fill="#fd5e5a"/>
  </g>
  <path id="Trazado_273" data-name="Trazado 273" d="M1975.337,1512.212s13.321,20.27,13.321,23.676-1.516,9.982,0,11.5,2.519-.255,2.519,1.661,5.991,2.938,5.991,2.938-1.388-4.933.444-5.11c3.336-.322.546-4.023,0-5.749-.5-1.583-13.078-31.307-13.078-31.307Z" transform="translate(-1895.306 -1427.392)" fill="#fc7575"/>
  <path id="Trazado_274" data-name="Trazado 274" d="M1975.337,1512.212s1.553,2.363,3.6,5.611a10.516,10.516,0,0,1,5.186-1.728c1.275,0,2.313.075,3.129.154-1.59-3.77-2.716-6.429-2.716-6.429Z" transform="translate(-1895.306 -1427.392)" fill="#fd5e5a"/>
  <path id="Trazado_275" data-name="Trazado 275" d="M1982.407,1397.66c-1.936,7.209-5.125,20.832-4.325,30.628a111.1,111.1,0,0,0,1.543,13.051l-15.481.842s-4.333-25.13.661-36.894c1.993-4.7,5.352-10.864,9.7-13.443C1980.832,1388.088,1984.252,1390.792,1982.407,1397.66Z" transform="translate(-1888.177 -1361.454)" fill="#b890b0"/>
  <path id="Trazado_276" data-name="Trazado 276" d="M1965.867,1500.79s6.972,0,9.67-.375,5.59-1.424,6.319,0,.8,2.249.8,4.5.937,2.737,0,3.673-6.522-.3-9.82,1.125-5.623,1.874-6.972.525-.412-4.836-1.574-6,.326-3.453.326-3.453Z" transform="translate(-1888.976 -1421.811)" fill="#f4c2d1"/>
  <path id="Trazado_277" data-name="Trazado 277" d="M2020.837,1674.714l27.633-7.459,3.767,21.278s-1.842,10.036-6.7,11.8c-9.246,3.356-17.625-5.38-17.625-5.38Z" transform="translate(-1920.375 -1514.137)" fill="#9d6e94"/>
  <path id="Trazado_278" data-name="Trazado 278" d="M2048.007,1699.9c-9.246,3.356-17.625-5.381-17.625-5.381l-4.734-13.54-4.81,1.3,7.075,20.236s8.379,8.737,17.625,5.381c4.858-1.763,6.7-11.8,6.7-11.8l-.088-.494C2051.126,1697.536,2049.765,1699.258,2048.007,1699.9Z" transform="translate(-1920.375 -1521.696)" fill="#573f6a" opacity="0.5"/>
  <path id="Trazado_279" data-name="Trazado 279" d="M2020.837,1674.714l27.633-7.459,3.767,21.278-4.7-19.513Z" transform="translate(-1920.375 -1514.136)" fill="#b18ba9"/>
  <path id="Trazado_280" data-name="Trazado 280" d="M1972.091,1682.067l11.821,1.286-.225.99Z" transform="translate(-1893.517 -1522.298)" fill="#617661"/>
  <ellipse id="Elipse_8" data-name="Elipse 8" cx="58.283" cy="6.161" rx="58.283" ry="6.161" transform="translate(196.213 178.175)" fill="#abb9c1"/>
  <ellipse id="Elipse_9" data-name="Elipse 9" cx="78.624" cy="9.32" rx="78.624" ry="9.32" transform="translate(85.715 183.061)" fill="#32213d"/>
  <path id="Trazado_281" data-name="Trazado 281" d="M2212.459,1650.5c-1.422,2.035-24.639,21.031-27.3,23.692s-1.77,7.194-1.041,8.859,2.291-2.915,6.143-6.767c3.56-3.561,21.237-13.366,26.882-17.931A10.746,10.746,0,0,0,2212.459,1650.5Z" transform="translate(-2009.927 -1504.904)" fill="#fd5e5a"/>
  <path id="Trazado_282" data-name="Trazado 282" d="M2257.385,1608.05s-1.862,6.216-2.069,6.581a52.445,52.445,0,0,1-9.418,12.159c2.791,1.8,4.7,6.1,5.152,9.288.461-.373,15.175-19.557,15.917-23.653S2264.342,1606.418,2257.385,1608.05Z" transform="translate(-2044.38 -1481.195)" fill="#8e3552"/>
  <path id="Trazado_283" data-name="Trazado 283" d="M2268.05,1630.306s-10.587-.708-11.628,5.954c-.966,6.183,9,20.432,10.441,27.776a29.139,29.139,0,0,1,6.268-.727c-1.908-7.015-2.772-14.731-3.384-16.847-1.1-3.8,17.49,5.622,26.234,2.707S2293.212,1630.306,2268.05,1630.306Z" transform="translate(-2050.142 -1493.767)" fill="#432b48"/>
  <g id="Grupo_55" data-name="Grupo 55" transform="translate(209.146 152.12)">
    <path id="Trazado_284" data-name="Trazado 284" d="M2264.239,1677.264s6.64,16.019,5.661,17.42a9.26,9.26,0,0,1-5.325,3.308,1.878,1.878,0,0,0-1.47,2.763l9.077-.1,1.072-1.346.287,1.447,5.048-1.045.281-2.755c-.656-5.906-2.921-19.483-4.114-23.313Z" transform="translate(-2262.885 -1669.776)" fill="#d36f0b"/>
    <path id="Trazado_285" data-name="Trazado 285" d="M2276.408,1673.644l-10.515,3.622s.274.664.7,1.721c2.311-.858,7.82-2.942,10.163-3.829A13.237,13.237,0,0,0,2276.408,1673.644Z" transform="translate(-2264.543 -1669.777)" fill="#f9ad28"/>
    <path id="Trazado_286" data-name="Trazado 286" d="M2290.048,1666.055a3.4,3.4,0,0,0-.219,2.256c.446-4.82,3.707-2.01,0,0C2295.457,1666.855,2291.588,1663.285,2290.048,1666.055Z" transform="translate(-2277.679 -1665.031)" fill="#112e1c"/>
    <g id="Grupo_54" data-name="Grupo 54" transform="translate(0.563 2.692)">
      <path id="Trazado_287" data-name="Trazado 287" d="M2264.3,1677.1l-.163-2.067,11.631-4.007.951,1.8Z" transform="translate(-2264.141 -1671.027)" fill="#112e1c"/>
    </g>
  </g>
  <path id="Trazado_288" data-name="Trazado 288" d="M2302.529,1603.758a53.663,53.663,0,0,0-11.938-5.272c-5.31-1.406-14,2.149-14.69,2.391,0,0-1.238,8.539.011,11.351s3.748,11.868,8.433,16.552c2.644,2.644,12.9,3.547,21.328,3.833,4.205-5.5,10.9-4.382,15.733-9.766.458-.509-2.41-4.525-2.722-5.061C2314.862,1611.2,2309.175,1607.44,2302.529,1603.758Z" transform="translate(-2060.61 -1476.065)" fill="url(#linear-gradient)"/>
  <path id="Trazado_289" data-name="Trazado 289" d="M2358.76,1641.508c-4.838,5.384-10.9,6.656-15.109,12.16,6.509.22,11.934.072,11.934.072l9.215-1.97S2364.484,1648.24,2358.76,1641.508Z" transform="translate(-2098.24 -1499.95)" fill="#432b48"/>
  <path id="Trazado_290" data-name="Trazado 290" d="M2316.838,1640.839c-7.222-2.767-15.374-3.806-22.951-5.026-8.547-1.376-14.993.453-19.393,3.194l17.4,14.361c-1.8,0,16.167,11.291,25.149,11.291s11-6.451,11-11.291C2328.047,1646.988,2322.06,1642.84,2316.838,1640.839Z" transform="translate(-2060.135 -1496.555)" fill="#593960"/>
  <path id="Trazado_291" data-name="Trazado 291" d="M2266.743,1596.521s5.063,6.284,5.727,8.625c0,0,4.67-4.084,4.817-5.935s-8.687-9.141-8.687-9.141Z" transform="translate(-2055.865 -1471.609)" fill="#fc6565"/>
  <path id="Trazado_292" data-name="Trazado 292" d="M2266.743,1596.521s.956,1.186,2.091,2.72a12.566,12.566,0,0,0,1.463-5.986,5.456,5.456,0,0,0-.651-2.317c-.637-.537-1.047-.868-1.047-.868Z" transform="translate(-2055.865 -1471.609)" fill="#fd4944"/>
  <path id="Trazado_293" data-name="Trazado 293" d="M2242.714,1573.312a2.43,2.43,0,0,0-1.176,2.052c-.051,1.717.016,4.964,1.16,6.049a9.914,9.914,0,0,1,2.53,4.34c.247.87,4.919,4.1,6.591,3.623s3.922-3.5,4.1-7.45C2256.086,1578.3,2247.308,1570.677,2242.714,1573.312Z" transform="translate(-2041.971 -1462.076)" fill="#fc8b8b"/>
  <path id="Trazado_294" data-name="Trazado 294" d="M2252.594,1596.516a11.956,11.956,0,0,0-.864-2.472,12.742,12.742,0,0,0,.659,2.841,10.969,10.969,0,0,0,1.323-.541A8.9,8.9,0,0,0,2252.594,1596.516Z" transform="translate(-2047.593 -1473.799)" fill="#3b3a58"/>
  <path id="Trazado_295" data-name="Trazado 295" d="M2250.181,1584.807c-.1-.006.809-3.087,2.773-2.8s1.61.364,1.61.364a4.953,4.953,0,0,0-2.427.333C2251.32,1583.2,2251.016,1584.859,2250.181,1584.807Z" transform="translate(-2046.735 -1467.155)" fill="#3b3a58"/>
  <path id="Trazado_296" data-name="Trazado 296" d="M2244.977,1588.923s-1.56-.295-1.88.01a.687.687,0,0,0-.26.6s.081-.365.7-.2S2245.05,1589.181,2244.977,1588.923Z" transform="translate(-2042.691 -1470.907)" fill="#3b3a58"/>
  <path id="Trazado_297" data-name="Trazado 297" d="M2257.87,1600.059s1.642-1.241,1.742-2.532a2.622,2.622,0,0,1-.969,2.6Z" transform="translate(-2050.976 -1475.718)" fill="#fff"/>
  <path id="Trazado_298" data-name="Trazado 298" d="M2255.848,1589.408a.64.64,0,1,1-.79-.441A.64.64,0,0,1,2255.848,1589.408Z" transform="translate(-2049.17 -1470.988)" fill="#3b3a58"/>
  <path id="Trazado_299" data-name="Trazado 299" d="M2248.091,1594.034a.543.543,0,1,1-.671-.375A.543.543,0,0,1,2248.091,1594.034Z" transform="translate(-2045.001 -1473.576)" fill="#3b3a58"/>
  <path id="Trazado_300" data-name="Trazado 300" d="M2253.726,1589.352a1.893,1.893,0,0,1,.62-1.522,5.039,5.039,0,0,1,2.252-.552S2254.2,1587.648,2253.726,1589.352Z" transform="translate(-2048.692 -1470.071)" fill="#3b3a58"/>
  <g id="Grupo_56" data-name="Grupo 56" transform="translate(201.566 119.96)">
    <path id="Trazado_301" data-name="Trazado 301" d="M2247.8,1593.472a1.758,1.758,0,0,0-1.439.225,1.263,1.263,0,0,0-.353,1.069C2245.98,1593.692,2247.8,1593.472,2247.8,1593.472Z" transform="translate(-2246.004 -1593.408)" fill="#3b3a58"/>
  </g>
  <path id="Trazado_302" data-name="Trazado 302" d="M2257.905,1591.633c.419.318,1.281-.115,1.923-.965s.823-1.8.4-2.113-1.28.114-1.923.964S2257.486,1591.316,2257.905,1591.633Z" transform="translate(-2050.871 -1470.717)" fill="#fc6565"/>
  <path id="Trazado_303" data-name="Trazado 303" d="M2303.434,1671.035c-4.943-6.652-14.85-20.652-17.5-22.644-2.743-2.062-8.425-6.943-11.811-6.883-1.732.03-2.733,1.379-3.742,3.024-2.912,4.746,20.3,26.553,27.188,31.436A31.6,31.6,0,0,1,2303.434,1671.035Z" transform="translate(-2057.73 -1499.95)" fill="#6a4672"/>
  <g id="Grupo_58" data-name="Grupo 58" transform="translate(229.898 156.547)">
    <path id="Trazado_304" data-name="Trazado 304" d="M2311.5,1693.313s13.685,10.65,13.525,12.352a9.255,9.255,0,0,1-3,5.507c-1.866,1.823-.061,2.871-.061,2.871l7.99-4.313.267-1.7.965,1.116,4.288-2.671-1.531-3.265c-3.488-4.811-12.164-15.5-15.092-18.24Z" transform="translate(-2310.423 -1680.444)" fill="#fb8603"/>
    <path id="Trazado_305" data-name="Trazado 305" d="M2318.849,1684.975l-7.355,8.343s.566.441,1.459,1.151c1.585-1.887,5.347-6.421,6.945-8.35A13.209,13.209,0,0,0,2318.849,1684.975Z" transform="translate(-2310.42 -1680.447)" fill="#fbc802"/>
    <path id="Trazado_306" data-name="Trazado 306" d="M2325.72,1676.7a3.392,3.392,0,0,0,.924,2.069c-1.993-4.411,2.23-3.578,0,0C2330.818,1674.723,2325.691,1673.529,2325.72,1676.7Z" transform="translate(-2318.258 -1674.891)" fill="#112e1c"/>
    <g id="Grupo_57" data-name="Grupo 57" transform="translate(0 3.344)">
      <path id="Trazado_307" data-name="Trazado 307" d="M2310.263,1693.283l-1.162-1.717,8.134-9.228,1.713,1.091Z" transform="translate(-2309.102 -1682.338)" fill="#112e1c"/>
    </g>
  </g>
  <path id="Trazado_308" data-name="Trazado 308" d="M2192.124,1704.246c-.02.312-3.412,7.063-2.126,7.769s2.97-4.353,2.97-4.353,2.637-1.009,2.773-3.192S2192.124,1704.246,2192.124,1704.246Z" transform="translate(-2013.419 -1534.073)" fill="#fd5e5a"/>
  <path id="Trazado_309" data-name="Trazado 309" d="M2179.732,1705.819s-3.005,3.727-4.326,4.972,1.432,9.158,2.163,8.47-.177-4.84-.177-4.341,2.809,6.4,3.485,4.383c.272-.812-1.845-5.451-1.845-5.451s1.695,2.6,2.563,1.78-2.114-5.836-2.114-7.331A11.12,11.12,0,0,1,2179.732,1705.819Z" transform="translate(-2005.345 -1535.385)" fill="#fc7575"/>
  <path id="Trazado_310" data-name="Trazado 310" d="M2123.865,1752.3s.675-2.341,6.373-.3,9.146,4.181,5.847,4.986-8.1-.694-8.1-.694S2123.191,1754.607,2123.865,1752.3Z" transform="translate(-1977.106 -1560.371)" fill="#3f2e4c"/>
  <path id="Trazado_311" data-name="Trazado 311" d="M2153.025,1748.667a2.523,2.523,0,0,0-3.325-.108c-.261.016-.515.039-.759.066-1.336-.828-3.629-.026-3.12,1.092-1.142,1.957,10.052,2.3,10.052.233C2155.873,1749.386,2154.711,1748.9,2153.025,1748.667Z" transform="translate(-1989.194 -1558.619)" fill="#3f2e4c"/>
  <path id="Trazado_312" data-name="Trazado 312" d="M2241.883,1751.6a2.523,2.523,0,0,0-3.324-.109q-.392.025-.76.067c-1.336-.828-3.629-.026-3.12,1.092-1.152,1.975,10.053,2.3,10.053.233C2244.731,1752.32,2243.569,1751.833,2241.883,1751.6Z" transform="translate(-2038.152 -1560.235)" fill="#3f2e4c"/>
  <path id="Trazado_313" data-name="Trazado 313" d="M2254.037,1755.344c-4.92,0-4.975-2.1,0-2.1C2258.957,1753.246,2259.011,1755.344,2254.037,1755.344Z" transform="translate(-2046.819 -1561.516)" fill="#3f2e4c"/>
  <g id="Grupo_60" data-name="Grupo 60" transform="translate(127.458 43.155)">
    <g id="Grupo_59" data-name="Grupo 59">
      <path id="Trazado_314" data-name="Trazado 314" d="M2128.845,1571.82c-.988,4.1-8.833,6.034-17.526,4.312s-14.938-6.444-13.951-10.547,8.833-6.033,17.525-4.312S2129.831,1567.716,2128.845,1571.82Z" transform="translate(-2089.944 -1498.55)" fill="#335b1a"/>
      <path id="Trazado_315" data-name="Trazado 315" d="M2146.812,1584.962c3.7,2.031,3.5,10.109-.446,18.043s-10.142,12.72-13.843,10.689-3.5-10.108.446-18.042S2143.112,1582.931,2146.812,1584.962Z" transform="translate(-2107.911 -1511.692)" fill="#14684c"/>
      <path id="Trazado_316" data-name="Trazado 316" d="M2122.065,1545.1c-7.035-.958-14.3-4.952-13.306-9.077.824-3.424,7.369-5.035,14.622-3.6.418.083.826.174,1.231.274a0,0,0,0,1,0,0l.216.053h0a25.654,25.654,0,0,1,3.594,1.194C2140.327,1538.962,2135.217,1546.905,2122.065,1545.1Z" transform="translate(-2096.226 -1482.714)" fill="#21420c"/>
      <path id="Trazado_317" data-name="Trazado 317" d="M2146.236,1507c-.777,3.231-6.9,3.916-11.394,3.168-5.425-.838-11.445-4.074-10.615-7.527,1-4.144,9.827-3.866,14.242-2.53C2143.48,1501.573,2146.848,1504.459,2146.236,1507Z" transform="translate(-2104.757 -1464.715)" fill="#21420c"/>
      <path id="Trazado_318" data-name="Trazado 318" d="M2211.179,1467.864c2.063,3.244-1.834,8.793-8.706,12.393s-14.116,3.89-16.179.646,1.834-8.793,8.706-12.393S2209.116,1464.62,2211.179,1467.864Z" transform="translate(-2138.692 -1446.187)" fill="#21420c"/>
      <path id="Trazado_319" data-name="Trazado 319" d="M2212.161,1551.532c-.919,2.7-6.306,3.6-12.035,2s-9.629-5.093-8.71-7.8,6.306-3.6,12.035-2S2213.079,1548.827,2212.161,1551.532Z" transform="translate(-2141.745 -1488.795)" fill="#28510e"/>
      <path id="Trazado_320" data-name="Trazado 320" d="M2174.089,1452.044c-3.125,8.872-9.694,5.485-12.689-4.377-3.357-10.715-1.454-24.3,4.072-25.257C2172.471,1421.207,2178.083,1440.68,2174.089,1452.044Z" transform="translate(-2124.364 -1422.357)" fill="#3c6620"/>
      <path id="Trazado_321" data-name="Trazado 321" d="M2212.006,1532.113c.978,2.687-2.844,6.248-8.535,7.954s-11.1.911-12.077-1.776,2.843-6.249,8.535-7.955S2211.028,1529.426,2212.006,1532.113Z" transform="translate(-2141.723 -1481.357)" fill="#21420c"/>
      <path id="Trazado_322" data-name="Trazado 322" d="M2120.04,1582.263c.061,3.256-4.864,7.386-12.188,10.384l-.031.011c-1.473.6-3.044,1.159-4.691,1.653q-1.56.468-3.087.828c-.109.025-.216.05-.324.074q-1.461.333-2.87.568c-.066.011-.131.023-.2.033l-.614.1c-.56.084-1.11.156-1.653.216l-1.07.1c-.829.069-1.634.109-2.406.121-.168,0-.332,0-.494,0-.268,0-.533,0-.792-.012l-.213-.005c-.232-.008-.462-.019-.687-.033l-.378-.027c-.177-.014-.351-.029-.523-.047q-.234-.024-.462-.053c-.5-.06-.966-.139-1.413-.232,0,0,0,0,0,0-.1-.02-.193-.041-.287-.062-2.367-.542-3.992-1.545-4.517-2.989-1.452-3.988,6.039-9.818,16.733-13.024,8.078-2.423,15.672-2.651,19.527-.9l.18.082.01,0a4.21,4.21,0,0,1,2.271,2.229,2.913,2.913,0,0,1,.15.612A2.78,2.78,0,0,1,2120.04,1582.263Z" transform="translate(-2080.96 -1508.017)" fill="#21420c"/>
      <path id="Trazado_323" data-name="Trazado 323" d="M2154.666,1508.731l16.245-4.264-.033-.133-16.262,3.039c-.074-2.084-.638-21.907-.638-21.907l8.924-7.953-9.073,7.094c-.569-17.947-.409-18.756-.275.215,0,0,.038,5.662.051,8.38l-17.191-5.148,17.2,5.872c.045,9.679.034,10.981.045,15.234l-20.532-4.76,20.535,6.339c0,.408,0-2.29.01,9.593-23.52,7.137-23.965,7.4-23.981,7.409,0,0,9.888-2.809,23.98-6.668-.058,47.477-.158,62.084-.263,74.87l4.9-.078C2156.871,1565.447,2155.83,1538.69,2154.666,1508.731Z" transform="translate(-2107.806 -1449.087)" fill="#231f1e"/>
    </g>
  </g>
  <path id="Trazado_324" data-name="Trazado 324" d="M2221.994,1661.053a46.718,46.718,0,0,1-4.308,6.189c-6.636,7.652-22.019,13.82-23.892,14.445s-4.294,3.592-5.31,5.855-3.982,4.815-2.421,4.815,4.373-3.487,4.373-2.551-3.987,5.069-4.885,5.968-3.351,1.917-3.495,2.205c-.629,1.26,1.509.573,3.228-.365a40.784,40.784,0,0,0,5.075-3.982c-.7,2.03-7.08,6.637-6.064,6.637s5.83-3.358,7.235-4.763,2.343-6.012,4.685-8.354,11.712-4.06,17.958-6.882c3.1-1.4,9.74-7.1,15.987-13.428A31.245,31.245,0,0,0,2221.994,1661.053Z" transform="translate(-2009.142 -1510.719)" fill="#fc7575"/>
  <path id="Trazado_325" data-name="Trazado 325" d="M2270.361,1661.053q-.319.525-.634,1.032l6.64,6.9q1.081-1.055,2.16-2.147A31.241,31.241,0,0,0,2270.361,1661.053Z" transform="translate(-2057.509 -1510.719)" fill="#fd5e5a"/>
  <path id="Trazado_326" data-name="Trazado 326" d="M2284.847,1611.627c-3.129,1.065-9.822,12.854-15.374,22.017,3.018,1.527,8.267,6.728,10.585,9.077,6.34-6.419,10.6-16.768,12.012-20.62C2294.869,1614.453,2289.491,1610.046,2284.847,1611.627Z" transform="translate(-2057.369 -1483.31)" fill="#b890b0"/>
  <path id="Trazado_327" data-name="Trazado 327" d="M2290.617,1612.353a5.325,5.325,0,0,0-7.128.476c-3.619,4-8.9,13.585-14.016,20.408,2.088-4.375,10.62-20.745,15.164-22.4A5.817,5.817,0,0,1,2290.617,1612.353Z" transform="translate(-2057.369 -1482.904)" fill="#f4c2d1"/>
  <path id="Trazado_328" data-name="Trazado 328" d="M2257.121,1687.017s-1.405,3.318,0,3.318,2.808.134,2.808-.693S2257.731,1686.406,2257.121,1687.017Z" transform="translate(-2050.219 -1524.971)" fill="#fd5e5a"/>
  <path id="Trazado_329" data-name="Trazado 329" d="M1997.917,1734.81s3.557,6.3,6.556,6.3,3.3-.9,7.946-.9,15.443-1.1,15.443-1.1a14.711,14.711,0,0,0-1.8-6.542c-1.8-3.149-3.581-2.849-6.963-4.349s-6.831.75-11.779,2.549S1997.917,1730.162,1997.917,1734.81Z" transform="translate(-1907.747 -1547.453)" fill="#3f2e4c"/>
  <path id="Trazado_330" data-name="Trazado 330" d="M2059.363,1732.13s6-3.449,9-1.8,8.547,4.268,8.547,6.857-4.723,4.013-6.3,2.439.15-4.542-4.648-4.542S2059.363,1732.13,2059.363,1732.13Z" transform="translate(-1941.603 -1548.644)" fill="#3f2e4c"/>
  <path id="Trazado_331" data-name="Trazado 331" d="M2077.406,1751.1s4.8.544,8.846.544,7.8,1.555,6.3-3.843,1.649-5.847-5.4-5.847-11.244-1.5-11.244.749-2.549,8.941-2.549,8.941Z" transform="translate(-1949.313 -1555.025)" fill="#3f2e4c"/>
  <path id="Trazado_332" data-name="Trazado 332" d="M2043.6,1755.985s4.8.545,8.847.545,7.8,1.555,6.3-3.843,1.649-5.848-5.4-5.848-11.245-1.5-11.245.75-2.549,8.94-2.549,8.94Z" transform="translate(-1930.688 -1557.716)" fill="#3f2e4c"/>
  <path id="Trazado_333" data-name="Trazado 333" d="M2282.956,1580.386c.245-2.873.35-5.121-3.058-5.079-8.48.219-1.143-2.765-17.541-16.272-2.073-1.691-3.351-2.661-5.952-3.235a13.9,13.9,0,0,0-6.786.371c-5.362,9.49,0,.122.149.193a12.418,12.418,0,0,1,9.573,1.108c3.084,1.932,11.03,9.065,13.805,14.32.857,1.741,1.731,4.22,5.075,4.141,1.475.01,3.5-.609,4.233,1.182,1.546,4.005-3.827,8.3,4.526,7.9C2280.632,1584.955,2282.711,1582.865,2282.956,1580.386Z" transform="translate(-2045.12 -1452.576)" fill="#3b3a58"/>
  <path id="Trazado_334" data-name="Trazado 334" d="M2282.125,1597.366c.172-.219-3.051-2.1-2.712-5.229s-2.143-3.035-1.54-4.115,2.108-7.606-.99-10.268-4.716,1.12-6.28-5.445-6.879-8.237-10.731-11.119-9.469-6.635-12.278-5.84-7.2,5.5-6.9,7.8,9.68,1.408,11.365,3.951-1.981,4.269,2.1,6.544,10.093.173,10.456,4.767-1.286,7.951,4.078,9.031,2.317,1.8,2.272,4.7S2278.88,1601.465,2282.125,1597.366Z" transform="translate(-2041.506 -1452.42)" fill="#3b3a58"/>
</svg>
