<svg id="Componente_6_1" data-name="Componente 6 – 1" xmlns="http://www.w3.org/2000/svg" width="260.402" height="180.532" viewBox="0 0 260.402 180.532">
  <ellipse id="Elipse_4" data-name="Elipse 4" cx="128.295" cy="8.948" rx="128.295" ry="8.948" transform="translate(3.812 158.87)" fill="#abb9c1"/>
  <path id="Trazado_163" data-name="Trazado 163" d="M1379.376,1723.475l-7.511-.342s-.955,12.122-3.413,13.485-4.88,3.015-7.4,2.87-1.04,3.751-1.04,3.751l14.07-.681,1.044-1.505.868,1.474,2.776-.068.582-3.957Z" transform="translate(-1232.665 -1568.295)" fill="#233824"/>
  <path id="Trazado_164" data-name="Trazado 164" d="M1311.959,1532.9s-6.96-4.958-8.316-4.481,3.57,3.861,2.983,4.481-11.945-3.385-13.015-2.257,10.145,2.948,9.173,3.973-11.071-2.1-11.071,0,11.7,2.241,10.665,3.337-12.067,1-10.665,2.479,12.7-.81,10.936,1.049-5.965,2.955-4.61,4.385,15.907-4.863,15.907-4.863Z" transform="translate(-1193.064 -1454.856)" fill="#1b1464"/>
  <path id="Trazado_165" data-name="Trazado 165" d="M1291.885,1542.274c0,.786,1.644,1.3,3.646,1.688.217-.744.463-1.479.73-2.2C1293.927,1541.444,1291.885,1541.332,1291.885,1542.274Z" transform="translate(-1193.236 -1462.512)" fill="#fc7575"/>
  <path id="Trazado_166" data-name="Trazado 166" d="M1291.713,1555.551a4.547,4.547,0,0,0,2.719.527c.056-.578.138-1.158.241-1.737C1292.634,1554.608,1291.142,1554.949,1291.713,1555.551Z" transform="translate(-1193.064 -1469.973)" fill="#fc7575"/>
  <path id="Trazado_167" data-name="Trazado 167" d="M1309.469,1563.015c-1.821,1.114-3.789,1.98-2.8,3.023.468.494,2.507.067,4.977-.7A4.669,4.669,0,0,0,1309.469,1563.015Z" transform="translate(-1201.693 -1475.025)" fill="#fc7575"/>
  <path id="Trazado_168" data-name="Trazado 168" d="M1320.129,1528.422c-.8.281.585,1.573,1.735,2.714.731-.413,1.331-.825,1.954-1.238C1322.222,1528.965,1320.692,1528.224,1320.129,1528.422Z" transform="translate(-1209.55 -1454.856)" fill="#fc7575"/>
  <path id="Trazado_169" data-name="Trazado 169" d="M1296.33,1533.513c-.44.464,1.2,1.044,3.206,1.638q.3-.709.626-1.391C1298.248,1533.34,1296.694,1533.129,1296.33,1533.513Z" transform="translate(-1195.783 -1457.723)" fill="#fc7575"/>
  <path id="Trazado_170" data-name="Trazado 170" d="M1331.474,1545.45a1.089,1.089,0,1,1-1.089-1.089A1.088,1.088,0,0,1,1331.474,1545.45Z" transform="translate(-1215.028 -1464.159)" fill="#fc7575"/>
  <path id="Trazado_171" data-name="Trazado 171" d="M1122.943,1439.665c4.024,8.165,16.816,16.876,24.95,19.777a1.222,1.222,0,0,0,.579.066c1.641-.23,5.312-1.475,6.1-.356a.477.477,0,0,1-.068.666c-.306.257-.609.1-1.407.145s-1.652.369-1.5.575c.337.454,5.923,1.212,7.293,1.89.684.339.728.96-1.571.539-.682-.125-1.4-.3-2.067-.459-1.574-.381-2.632-.388-2.251-.186,1.134.6,7.245,2.035,7.166,2.985-.038.464-6.5-1.621-8.109-2,1.531,1.2,7.626,2.454,6.592,3.061-.641.377-5.781-1.246-6.894-1.81-1.353-.684-.1.416.549.966.528.45,2.985,1.527,1.744,1.762-1.1.208-6.567-4.052-8.854-5.191h0c-2.023-1.008-18.211-6.221-24.483-11.424-4.143-3.438-8.171-12.142-11.3-18.465a4.949,4.949,0,0,1-.053-4.277l.112-.243a4.963,4.963,0,0,1,6.724-2.353h0a4.979,4.979,0,0,1,2.573,3.163A61.954,61.954,0,0,0,1122.943,1439.665Z" transform="translate(-1086.647 -1394.521)" fill="#fd5e5a"/>
  <rect id="Rectángulo_6" data-name="Rectángulo 6" width="26.858" height="26.858" transform="translate(43.294 54.252)" fill="#bdbdbd"/>
  <rect id="Rectángulo_7" data-name="Rectángulo 7" width="25.667" height="27.633" transform="translate(55.121 26.62)" fill="#fbb03b"/>
  <rect id="Rectángulo_8" data-name="Rectángulo 8" width="7.233" height="27.633" transform="translate(55.121 54.252) rotate(180)" fill="#ffe696"/>
  <rect id="Rectángulo_9" data-name="Rectángulo 9" width="7.532" height="26.858" transform="translate(70.152 54.252)" fill="#72797a"/>
  <g id="Grupo_38" data-name="Grupo 38" transform="translate(67.828 26.494)">
    <path id="Trazado_172" data-name="Trazado 172" d="M1218.188,1443.6a.126.126,0,0,1-.126-.126v-27.632a.126.126,0,1,1,.251,0v27.632A.126.126,0,0,1,1218.188,1443.6Z" transform="translate(-1218.062 -1415.719)" fill="#64132c"/>
  </g>
  <g id="Grupo_39" data-name="Grupo 39" transform="translate(67.01 25.24)">
    <circle id="Elipse_5" data-name="Elipse 5" cx="0.786" cy="0.786" r="0.786" fill="#64132c"/>
  </g>
  <g id="Grupo_40" data-name="Grupo 40" transform="translate(67.954 19.229)">
    <path id="Trazado_173" data-name="Trazado 173" d="M1224.479,1399.209c-.074-.4-.414-.679-1.011-.819a2.5,2.5,0,0,0-2.036.378c-2.225,1.5-2.992,6.181-3.024,6.379l-.045.285.24-.161C1218.857,1405.1,1224.82,1401.073,1224.479,1399.209Zm-5.769,5.685c.207-1.06,1.038-4.69,2.862-5.917a2.274,2.274,0,0,1,1.286-.407,2.438,2.438,0,0,1,.552.066c.49.114.766.323.82.618C1224.478,1400.6,1220.542,1403.633,1218.71,1404.894Z" transform="translate(-1218.363 -1398.318)" fill="#64132c"/>
  </g>
  <g id="Grupo_41" data-name="Grupo 41" transform="translate(68.583 26.027)">
    <path id="Trazado_174" data-name="Trazado 174" d="M1227.437,1419.034c.372-.173.552-.573.537-1.184a2.5,2.5,0,0,0-.881-1.874c-2.01-1.775-6.736-1.333-6.936-1.313l-.288.028.217.191C1220.316,1415.084,1225.72,1419.836,1227.437,1419.034Zm-6.958-4.144c1.078-.067,4.8-.182,6.448,1.274a2.274,2.274,0,0,1,.719,1.141,2.435,2.435,0,0,1,.076.551c.013.5-.118.823-.391.95C1226.089,1419.386,1222.162,1416.343,1220.479,1414.891Z" transform="translate(-1219.87 -1414.599)" fill="#64132c"/>
  </g>
  <path id="Trazado_175" data-name="Trazado 175" d="M1562.539,1489.041l-13.247,70.549h15.348l11.147-70.549Zm.966,69.222h-12.613l12.749-67.894h10.592Z" transform="translate(-1343.176 -1431.935)" fill="#21420c"/>
  <path id="Trazado_176" data-name="Trazado 176" d="M1349.6,1581.629s25.829-9.125,46.875-4.98l-1.116-65.427-38.167-3.577Z" transform="translate(-1226.854 -1442.772)" fill="#653870"/>
  <path id="Trazado_177" data-name="Trazado 177" d="M1394.179,1424.09a32.244,32.244,0,0,1,23.951-3.061c13.2,3.68-16.449,34.494-16.449,34.494l-21.322-7.654,4.217-16.223Z" transform="translate(-1244.772 -1391.678)" fill="#552e5d"/>
  <path id="Trazado_178" data-name="Trazado 178" d="M1377.184,1421.886s-19.543,19.675-26.608,40.458l-13.06,5.379.311,14.7s19.743-.63,20.414-.63S1377.184,1421.886,1377.184,1421.886Z" transform="translate(-1219.816 -1392.817)" fill="#9c5e2a"/>
  <path id="Trazado_179" data-name="Trazado 179" d="M1367.784,1564.252s6.869,44.809,6.869,54.915-.933,24.379-.933,24.379l9.5,1.219s8.572-47.717,7.5-62.59,1.282-21.546,1.282-21.546Z" transform="translate(-1237.447 -1473.636)" fill="#333"/>
  <path id="Trazado_180" data-name="Trazado 180" d="M1432.02,1736.646l-10.845-.495s2.379,12.275-.078,13.638-4.879,3.015-7.4,2.87-1.04,3.751-1.04,3.751l14.07-.682,1.044-1.505.868,1.475,2.777-.068.582-3.957Z" transform="translate(-1263.331 -1575.878)" fill="#233824"/>
  <path id="Trazado_181" data-name="Trazado 181" d="M1395.062,1556.061v26.123s16.268,50.339,16.268,60.826h11.207s2.893-73.6,2.893-80.085S1395.062,1556.061,1395.062,1556.061Z" transform="translate(-1253.337 -1470.975)" fill="#535683"/>
  <g id="Grupo_43" data-name="Grupo 43" transform="translate(0 4.233)">
    <path id="Trazado_182" data-name="Trazado 182" d="M1119.536,1729.821c-2.136-.452-4.229-2.9-4.751-5.024l-2.546.207c.719.61.01,4.791.01,4.791l.708,2.234Z" transform="translate(-1088.591 -1573.497)" fill="#fc7575"/>
    <path id="Trazado_183" data-name="Trazado 183" d="M1120.4,1737.221c-.493-.179-1.019-.547-1.527-.427-6.839,1.621-7.287-.026-7.287-.026a15.274,15.274,0,0,0-.482,2.3c.034.415.449.376,2.524.208s5.363.153,7.066-.487S1122.47,1737.973,1120.4,1737.221Z" transform="translate(-1087.931 -1580.471)" fill="#653870"/>
    <path id="Trazado_184" data-name="Trazado 184" d="M1101.51,1518.688l-5.109-2.088-6.89,21.037v29.956c-1.639,6.57,2.651,38.229,2.651,38.229l9.577-1.469C1096.141,1581.635,1101.51,1518.688,1101.51,1518.688Z" transform="translate(-1075.135 -1452.222)" fill="#262857"/>
    <path id="Trazado_185" data-name="Trazado 185" d="M1066.295,1743.926a12.8,12.8,0,0,1-.516,3.734c-.268,1.123.381,1.724.439,2.432.121,1.5,3.874.713,3.874.713a7.349,7.349,0,0,0,.138-3.969,18.86,18.86,0,0,1-1.031-3.983,11.408,11.408,0,0,1,.058-1.312l-3.078.251C1066.311,1742.9,1066.274,1743.666,1066.295,1743.926Z" transform="translate(-1061.491 -1583.251)" fill="#fc7575"/>
    <path id="Trazado_186" data-name="Trazado 186" d="M1069.786,1550.685l10-41.44-9.547-8.418s-9.315,8.783-10.669,14.745,1.17,29.75,1.427,32.905-2.621,12-3.719,14.929c-.966,2.577,1.329,30.212,2.282,38.3l6.658.252c.549-7.007,2.6-38.493,2.3-42.14A29.551,29.551,0,0,1,1069.786,1550.685Z" transform="translate(-1056.442 -1443.034)" fill="#757ad8"/>
    <path id="Trazado_187" data-name="Trazado 187" d="M1060.638,1510.671c-2.937,4.594-3.536,6.57-2.135,25.984.289,3.976,1,12.247,1,12.247.241,3.667-4.1,15.63-3.621,14.271-1.273,3.78,2.056,33.008,2.833,38.53-.266-3.375-2.646-35.325-1.714-38.111a37.205,37.205,0,0,0,3.607-17.216c-2.822-29.486-2.229-30.689.573-35.36a62.189,62.189,0,0,1,8.213-10.19A58.261,58.261,0,0,0,1060.638,1510.671Z" transform="translate(-1055.597 -1443.034)" fill="#c0b4fe"/>
    <path id="Trazado_188" data-name="Trazado 188" d="M1069.657,1754.224c0,.03.076,3.5-1.88,3.035a4.578,4.578,0,0,1-2.572-2.211,10.928,10.928,0,0,0-.468,2.865c.122,1.495,5.958,1.479,5.958,1.479A35.062,35.062,0,0,0,1069.657,1754.224Z" transform="translate(-1060.916 -1590.639)" fill="#653870"/>
    <path id="Trazado_189" data-name="Trazado 189" d="M1105.375,1425.069s7.039,14.464,4.693,16.81-10.22,22.693-10.22,25.12l-15.7-9.412s5.2-11.973,4.071-18.606-2.292-13.429,1.916-15.371S1105.375,1425.069,1105.375,1425.069Z" transform="translate(-1072.231 -1397.706)" fill="#b9bcfc"/>
    <path id="Trazado_190" data-name="Trazado 190" d="M1102.605,1439.01c4.025,8.165,16.815,16.877,24.95,19.777a1.218,1.218,0,0,0,.579.067c1.641-.23,5.312-1.476,6.1-.357a.477.477,0,0,1-.069.666c-.306.257-.609.1-1.407.146s-1.652.369-1.5.575c.337.454,5.923,1.212,7.293,1.89.684.339.728.96-1.571.539-.682-.125-1.4-.3-2.068-.46-1.574-.38-2.631-.389-2.251-.186,1.134.6,7.245,2.035,7.166,2.985-.038.465-6.5-1.621-8.108-2,1.531,1.2,7.626,2.454,6.592,3.061-.641.376-5.782-1.246-6.895-1.81-1.353-.685-.1.415.549.965.528.45,2.985,1.528,1.744,1.762-1.1.207-6.566-4.052-8.854-5.19h0c-2.023-1.008-18.211-6.221-24.482-11.424-4.143-3.437-8.17-12.141-11.3-18.464a4.951,4.951,0,0,1-.052-4.278l.112-.243a4.962,4.962,0,0,1,6.724-2.354h0a4.978,4.978,0,0,1,2.573,3.164A61.957,61.957,0,0,0,1102.605,1439.01Z" transform="translate(-1074.8 -1398.372)" fill="#fc7575"/>
    <g id="Grupo_42" data-name="Grupo 42" transform="translate(10.678)">
      <path id="Trazado_191" data-name="Trazado 191" d="M1092.786,1408.391l-.272-.33,0,0c-1.6-2.641-7.111-4.372-9.941-.331a5.909,5.909,0,0,0-.422,7.04l.985-.719a5.319,5.319,0,0,1-.839-3.927,5.445,5.445,0,0,1,.592-1.455,5.367,5.367,0,0,1,5.863-2.739A6.234,6.234,0,0,1,1092.786,1408.391Z" transform="translate(-1081.175 -1387.409)" fill="#12192c"/>
      <path id="Trazado_192" data-name="Trazado 192" d="M1097.851,1411.1s-3.424-1.222-5.575-.466-3.192,4.713-1.614,9.678,6.4,7.69,6.4,10.863-3.637,3.024-3.637,3.024a4.451,4.451,0,0,0,4.43,1.157c2.923-.672,2.313-5.114,2.313-5.114s1.614,1.792.933,3.062c0,0,2.008-.411,1.4-4.405s-4.374-9.781-5.2-12.8,1.434-3.808,1.434-3.808Z" transform="translate(-1086.258 -1390.354)" fill="#12192c"/>
      <path id="Trazado_193" data-name="Trazado 193" d="M1122.234,1367.5s2.689-1.083,3.765-.784a5.341,5.341,0,0,1,3.622,3.21c.968,2.2-.394,8.7-1.936,11.76s-7.213,6.95-7.213,6.95-1.465.255-3.688-2.433S1117.824,1368.064,1122.234,1367.5Z" transform="translate(-1101.499 -1364.881)" fill="#12192c"/>
      <path id="Trazado_194" data-name="Trazado 194" d="M1116.066,1402.4v8.723s3.18,8.888,6.035,8.644.454-6.46,0-8.338a30.928,30.928,0,0,1-.173-6.254Z" transform="translate(-1101.499 -1385.702)" fill="#fc7575"/>
      <path id="Trazado_195" data-name="Trazado 195" d="M1116.066,1402.4v2.841a21.175,21.175,0,0,0,5.375,3.582c.137.062.275.128.415.191-.054-1.865.072-3.839.072-3.839Z" transform="translate(-1101.499 -1385.702)" fill="#fd5e5a"/>
      <path id="Trazado_196" data-name="Trazado 196" d="M1123.4,1373.054a5.963,5.963,0,0,1,2.4,3.4c.538,2.24-.609,3.808-.609,4.928s-.18,2.091-1.793,5.861-2.944,2.96-4.128,2.475-5.59-2.624-6.558-4.752-.071-8.885,2.869-11.05S1122.958,1372.727,1123.4,1373.054Z" transform="translate(-1099.326 -1368.311)" fill="#fc8080"/>
      <path id="Trazado_197" data-name="Trazado 197" d="M1115.779,1364.753a2.99,2.99,0,0,1,.467,3.434c-1.076,1.792-6.078,4.8-8.032,6.832s-2.039,4.914-1.507,5.988-.321,3.785-.321,3.785a8.033,8.033,0,0,1-6.638-6.776c-.752-3.787-.139-10.425,2.371-12.7s6.833-3.434,9.512-2.688A10.642,10.642,0,0,1,1115.779,1364.753Z" transform="translate(-1091.818 -1362.399)" fill="#243158"/>
      <path id="Trazado_198" data-name="Trazado 198" d="M1121.158,1374.951a.986.986,0,0,1,.17.245c1.291,4.293-6.262,2.134-9.9,6.218a11.522,11.522,0,0,0-2.359,6.3,5.106,5.106,0,0,0,5.152,5.692l-.1,1.585a7.685,7.685,0,0,1-6.186-3.78c-1.229-2.52-.077-6.139,1.326-8.554,1.545-2.658,4.112-3.486,6.974-4.1,3.019-.644,5.477-.756,5.122-2.883C1121.305,1375.39,1121.158,1375.032,1121.158,1374.951Z" transform="translate(-1096.456 -1369.71)" fill="#4962af"/>
      <path id="Trazado_199" data-name="Trazado 199" d="M1136.316,1393.208l.14.544c.535,2.161.774,1.723.7,2.007-.133.442-1.118.843-1.6.827.6-.069,1.5-.668,1.386-.926-.105-.11-.191-.118-.458-1.338A10.046,10.046,0,0,1,1136.316,1393.208Z" transform="translate(-1112.856 -1380.345)" fill="#231919"/>
      <path id="Trazado_200" data-name="Trazado 200" d="M1139.33,1387.325a2.031,2.031,0,0,1,1.134-.467,1.355,1.355,0,0,1,.969.467,1,1,0,0,0-1.051-.112C1139.837,1387.512,1139.33,1387.737,1139.33,1387.325Z" transform="translate(-1115.05 -1376.647)" fill="#243158"/>
      <path id="Trazado_201" data-name="Trazado 201" d="M1130.108,1384.789a7.031,7.031,0,0,1,1.9.771c.332.346-.013.854-.278.578S1130.449,1384.789,1130.108,1384.789Z" transform="translate(-1109.678 -1375.441)" fill="#243158"/>
      <path id="Trazado_202" data-name="Trazado 202" d="M1131.242,1403.351s2.648.05,2.537.43-.63,1.258-.727,1.586-.414.748-1.215.492S1131.1,1403.827,1131.242,1403.351Z" transform="translate(-1110.289 -1386.254)"/>
      <path id="Trazado_203" data-name="Trazado 203" d="M1131.251,1403.351a2.769,2.769,0,0,0-.08.578,4.551,4.551,0,0,1,2.38.4,4.01,4.01,0,0,0,.236-.546C1133.9,1403.4,1131.251,1403.351,1131.251,1403.351Z" transform="translate(-1110.298 -1386.254)" fill="#fff"/>
      <path id="Trazado_204" data-name="Trazado 204" d="M1127.465,1394.121c-.187.481-.97.606-1.747.277s-1.255-.986-1.068-1.468.97-.606,1.748-.277S1127.653,1393.639,1127.465,1394.121Z" transform="translate(-1106.475 -1379.915)" fill="#fd5e5a"/>
      <path id="Trazado_205" data-name="Trazado 205" d="M1130.988,1390.14c0,.407-.189.737-.424.737s-.424-.33-.424-.737.19-.736.424-.736S1130.988,1389.734,1130.988,1390.14Z" transform="translate(-1109.697 -1378.13)" fill="#243158"/>
      <path id="Trazado_206" data-name="Trazado 206" d="M1140.312,1392.448c-.106.346-.372.566-.6.492s-.318-.414-.213-.76.372-.566.6-.492S1140.417,1392.1,1140.312,1392.448Z" transform="translate(-1115.126 -1379.452)" fill="#243158"/>
      <path id="Trazado_207" data-name="Trazado 207" d="M1128.115,1390.1s.3-.443-.232-.993a1.952,1.952,0,0,0-2.25-.206,1.826,1.826,0,0,1-1.194.336,2.24,2.24,0,0,0,1.2-.048,1.623,1.623,0,0,1,1.73-.183A1.365,1.365,0,0,1,1128.115,1390.1Z" transform="translate(-1106.376 -1377.683)" fill="#231919"/>
      <path id="Trazado_208" data-name="Trazado 208" d="M1138.638,1392.147s-.092-.375.4-.607a1.411,1.411,0,0,1,1.562.453,1.356,1.356,0,0,0,.721.539s-.75.015-.869-.258a.933.933,0,0,0-.943-.658A1.226,1.226,0,0,0,1138.638,1392.147Z" transform="translate(-1114.643 -1379.324)" fill="#231919"/>
      <path id="Trazado_209" data-name="Trazado 209" d="M1118.514,1390.277s-.546-1.7-1.412-1.269-1.2,2.891-.6,3.517S1118.514,1392.023,1118.514,1390.277Z" transform="translate(-1101.575 -1377.859)" fill="#fc8080"/>
      <path id="Trazado_210" data-name="Trazado 210" d="M1118.562,1391.111s-.107-1.3-.885-1.019c-.258.094-1.162,2.116-.5,2.35S1118.612,1391.763,1118.562,1391.111Z" transform="translate(-1102.007 -1378.507)" fill="#fd5e5a"/>
    </g>
  </g>
  <path id="Trazado_211" data-name="Trazado 211" d="M1405.069,1422.169s-12.121-1.659-22.289,3.061-19.965,13.156-24.845,60.635l51.11,5.291S1420.795,1436.326,1405.069,1422.169Z" transform="translate(-1231.71 -1392.817)" fill="#b07959"/>
  <g id="Grupo_44" data-name="Grupo 44" transform="translate(147.251)">
    <path id="Trazado_212" data-name="Trazado 212" d="M1421.91,1378.913s9.976,1.483,11.365,1.483a53.407,53.407,0,0,0-19.194-10.608c-3.936-1.172-5.474-1.476-5.74-1.041-.507.831,3.508,3.692,3.508,3.692Z" transform="translate(-1408.297 -1361.754)" fill="#4f5b0b"/>
    <path id="Trazado_213" data-name="Trazado 213" d="M1426.53,1372.882c.494-3.12-2.52-5.427-5.658-5.788-3.077-.355-6.068-.777-7.414.935-3.247,4.129-.606,13.2-.606,13.2s1.48,4.262,5.654,4.905C1421.362,1386.572,1425.606,1378.718,1426.53,1372.882Z" transform="translate(-1410.36 -1360.714)" fill="#f98a8a"/>
    <path id="Trazado_214" data-name="Trazado 214" d="M1433.027,1403.4s-1.388,15.962-2.257,18.914-8.994.99-10.26-1.579,1.882-12.231,1.882-12.231Z" transform="translate(-1415.236 -1382.046)" fill="#ea7373"/>
    <path id="Trazado_215" data-name="Trazado 215" d="M1421.642,1414.41c.646-3.032,1.584-5.911,1.584-5.911l10.636-5.1s-.355,4.082-.819,8.5a1.653,1.653,0,0,1-.424-.424c-.916-1.376-1.547-5.763-1.547-5.763a66.428,66.428,0,0,0-1.6,6.514c-.23,1.5-3.088,2.071-5.82,2.184a7.039,7.039,0,0,1-.652-2.068,7.6,7.6,0,0,0,.162,2.083C1422.637,1414.433,1422.124,1414.428,1421.642,1414.41Z" transform="translate(-1416.07 -1382.046)" fill="#d86666"/>
    <path id="Trazado_216" data-name="Trazado 216" d="M1411.23,1391.425a5.889,5.889,0,0,1-1.546,1.637,6.558,6.558,0,0,1-.9-4.149c.347-2.261,1.941-3.271,2.069-4.106a3.625,3.625,0,0,0,2.8,2.808c2.6.816,5.06-.883,6.231-1.741s2.625-1.633,2.881-3.3,1.442-8.131,1.442-8.131.448-1.072,3.124.823,2.158,2.943,2.283,5.217-.762,3.8.945,4.655a4.486,4.486,0,0,1,1.441,6.452c-1.829,2.627-5.708,2.386-6.64,1.115s-1.619-5.293-1.619-5.293a55.539,55.539,0,0,0-1.514,5.938c-.21,1.367-3.054,1.855-5.779,1.923a6.2,6.2,0,0,1-.678-1.9,6.428,6.428,0,0,0,.189,1.907,23.979,23.979,0,0,1-3.542-.215,3.6,3.6,0,0,1-2.057-1.116A5.763,5.763,0,0,0,1411.23,1391.425Z" transform="translate(-1408.549 -1365.008)" fill="#012540"/>
    <path id="Trazado_217" data-name="Trazado 217" d="M1449.229,1375.124c2.481,1.611,2.288,2.952,2.378,4.961.2,2.923-.716,3.834.928,4.651a4.862,4.862,0,0,1-2.082,8.961,3.867,3.867,0,0,1-3.492-1.07,3.816,3.816,0,0,0,3.415.617c4.125-.889,4.759-5.954,1.7-7.694-2.168-.934-1.167-2.9-1.273-5.437-.069-1.88.434-2.853-1.84-4.621-.8-.649-2.452-1.888-3.15-1.127C1446.416,1373.436,1448.3,1374.526,1449.229,1375.124Z" transform="translate(-1430.147 -1364.926)" fill="#777caa"/>
    <path id="Trazado_218" data-name="Trazado 218" d="M1439.915,1388.282a2.387,2.387,0,0,1,2.495-.447c1.461.581-.3,4.285-1.629,4.081S1439.915,1388.282,1439.915,1388.282Z" transform="translate(-1426.669 -1372.879)" fill="#f98a8a"/>
    <path id="Trazado_219" data-name="Trazado 219" d="M1418.369,1383.871a29.624,29.624,0,0,0-.479,6.328c.506-.027,1.017-.022,1.526-.022a16.663,16.663,0,0,1-1.836.372A12.723,12.723,0,0,1,1418.369,1383.871Z" transform="translate(-1413.625 -1370.673)" fill="#18287d"/>
    <path id="Trazado_220" data-name="Trazado 220" d="M1427.349,1382.243a4.879,4.879,0,0,0-2.593-1.127,15.366,15.366,0,0,0-2.432-.3s.528-1.762,1.566-1.312,1.027,1.348,2.115.918S1427.349,1382.243,1427.349,1382.243Z" transform="translate(-1416.468 -1368.088)" fill="#012540"/>
    <path id="Trazado_221" data-name="Trazado 221" d="M1410.335,1378.457a2.55,2.55,0,0,1,1.918.363,8.664,8.664,0,0,1,1.472.939s.464-1.646-.3-1.791-1.146.567-1.564-.3S1410.335,1378.457,1410.335,1378.457Z" transform="translate(-1409.484 -1366.917)" fill="#012540"/>
    <path id="Trazado_222" data-name="Trazado 222" d="M1413.152,1383.694a.582.582,0,1,0,.67-.583A.632.632,0,0,0,1413.152,1383.694Z" transform="translate(-1411.119 -1370.227)" fill="#18287d"/>
    <path id="Trazado_223" data-name="Trazado 223" d="M1424.66,1385.806a.581.581,0,1,0,.67-.583A.632.632,0,0,0,1424.66,1385.806Z" transform="translate(-1417.823 -1371.458)" fill="#18287d"/>
    <path id="Trazado_224" data-name="Trazado 224" d="M1442.337,1389.874s1.048-.65,1.143.083-.613,2.138-1.282,2.127S1442.337,1389.874,1442.337,1389.874Z" transform="translate(-1427.89 -1374.015)" fill="#d86666"/>
    <path id="Trazado_225" data-name="Trazado 225" d="M1418.065,1402.635c.806,1.056,2.652,1.229,4.494-.176a.235.235,0,0,0-.255-.392C1421.889,1402.145,1420.482,1403.675,1418.065,1402.635Z" transform="translate(-1413.987 -1381.254)" fill="#fff"/>
    <path id="Trazado_226" data-name="Trazado 226" d="M1414.823,1360.294a29.115,29.115,0,0,0-5.252-1.226,10.811,10.811,0,0,0,5.252-2.378c.693-.692,1.881-1.855,3.02-2.965a5.06,5.06,0,0,1,7.064-.059l.06.06c.838.838,2.505,1.242,4.17,1.427a2.879,2.879,0,0,1,2.244,4.163,10.554,10.554,0,0,0-1.363,4.134c0,2.778,4,7.451,4,7.451A53.407,53.407,0,0,0,1414.823,1360.294Z" transform="translate(-1409.039 -1352.26)" fill="#9dba25"/>
  </g>
  <path id="Trazado_227" data-name="Trazado 227" d="M1421.6,1444.013l-7.043,90.254,13.608,1.382-4.841-91.636Z" transform="translate(-1264.695 -1405.707)" fill="#64132c"/>
  <path id="Trazado_228" data-name="Trazado 228" d="M1382.161,1438.739l-14.377,68.6,15.845,2.806,3.622-69.207Z" transform="translate(-1237.448 -1402.634)" fill="#64132c"/>
  <path id="Trazado_229" data-name="Trazado 229" d="M1444.63,1421.794s-14.654-4.091-18.089,10.019,7.062,100.25,7.062,100.25l20.426-1.907s5.6-91.144,0-100.106S1444.63,1421.794,1444.63,1421.794Z" transform="translate(-1271.272 -1392.442)" fill="#f57408"/>
  <path id="Trazado_230" data-name="Trazado 230" d="M1467.461,1588.852s1.932,27.7-1.006,30.794-13.376,0-13.376,0V1587.8Z" transform="translate(-1287.132 -1489.464)" fill="#f58a31"/>
  <path id="Trazado_231" data-name="Trazado 231" d="M1371.092,1441.225a44.145,44.145,0,0,0-6.716,13.356c-3.8,12.636-11.308,87.131-11.308,87.131h-3.479s3.949-75.619,9.916-89.153c3.488-7.931,5.938-9.735,10.941-13.438C1370.634,1439.823,1370.849,1440.533,1371.092,1441.225Z" transform="translate(-1226.849 -1402.857)" fill="#f57408"/>
  <rect id="Rectángulo_10" data-name="Rectángulo 10" width="32.267" height="44.904" transform="translate(225.328 152.396) rotate(180)" fill="#9e7d55"/>
  <rect id="Rectángulo_11" data-name="Rectángulo 11" width="21.33" height="44.904" transform="translate(214.392 152.396) rotate(180)" fill="#c7b299"/>
  <rect id="Rectángulo_12" data-name="Rectángulo 12" width="28.164" height="32.987" transform="translate(217.61 152.396) rotate(180)" fill="#603813"/>
  <rect id="Rectángulo_13" data-name="Rectángulo 13" width="3.254" height="6.006" transform="translate(223.701 174.133) rotate(180)" fill="#4f6e9e"/>
  <rect id="Rectángulo_14" data-name="Rectángulo 14" width="3.254" height="6.006" transform="translate(209.194 174.133) rotate(180)" fill="#4f6e9e"/>
  <rect id="Rectángulo_15" data-name="Rectángulo 15" width="3.254" height="6.006" transform="translate(192.7 174.133) rotate(180)" fill="#4f6e9e"/>
  <path id="Trazado_232" data-name="Trazado 232" d="M1431.8,1534.921s-6.96-4.957-8.315-4.481,3.57,3.861,2.982,4.481-11.945-3.385-13.015-2.257,10.145,2.948,9.174,3.973-11.072-2.1-11.072,0,11.705,2.241,10.665,3.337-12.066,1-10.665,2.479,12.7-.81,10.937,1.049-5.966,2.956-4.61,4.386,15.906-4.862,15.906-4.862Z" transform="translate(-1262.875 -1456.031)" fill="#1b1464"/>
  <path id="Trazado_233" data-name="Trazado 233" d="M1430.813,1562.48c-1.9,1.682-5.58,2.737-4.3,4.089.644.679,4.263-.384,7.886-1.687A14.835,14.835,0,0,0,1430.813,1562.48Z" transform="translate(-1271.504 -1474.714)" fill="#fc7575"/>
  <path id="Trazado_234" data-name="Trazado 234" d="M1416.176,1535.532c-.732.772,4.281,1.866,7.214,2.809a2.652,2.652,0,0,0,.561-1.59C1420.6,1535.877,1416.775,1534.9,1416.176,1535.532Z" transform="translate(-1265.594 -1458.899)" fill="#fc7575"/>
  <path id="Trazado_235" data-name="Trazado 235" d="M1417.551,1555.543c-3.248.349-6.827.671-5.992,1.551.661.7,3.528.556,6.185.407A6.331,6.331,0,0,0,1417.551,1555.543Z" transform="translate(-1262.875 -1470.673)" fill="#fc7575"/>
  <path id="Trazado_236" data-name="Trazado 236" d="M1467.512,1428.85s28.437,27.56,23.556,44.911-33.441,12.775-33.441,12.775l-1.085-13.156s16.63-3.623,16.63-7.056S1460.934,1435.788,1467.512,1428.85Z" transform="translate(-1289.15 -1396.874)" fill="#c27535"/>
  <rect id="Rectángulo_16" data-name="Rectángulo 16" width="6.231" height="6.231" transform="translate(174.721 82.379)" fill="#3f2424"/>
  <rect id="Rectángulo_17" data-name="Rectángulo 17" width="9.581" height="9.582" transform="matrix(0.738, 0.674, -0.674, 0.738, 192.654, 60.944)" fill="#3f2424"/>
  <path id="Trazado_237" data-name="Trazado 237" d="M1535.687,1563.979c-1.435,0-18.176.686-19.93,5.438s.957,14.159,7.494,14.159,15.5,5.581,19.45,5.581,14.989-9.406,10.206-18.654S1535.687,1563.979,1535.687,1563.979Z" transform="translate(-1323.338 -1475.369)" fill="#006837"/>
  <path id="Trazado_238" data-name="Trazado 238" d="M1575.717,1571.023a12.536,12.536,0,0,0-9.145-6.525h-.005s-12.172,2.57-12.172,9.729c0,6.686,8.042,14.778,10.65,15.427.162.015.318.023.467.023a5.218,5.218,0,0,1,.916-.132C1570.919,1588.375,1580.169,1579.63,1575.717,1571.023Z" transform="translate(-1346.149 -1475.889)" fill="#004022"/>
  <rect id="Rectángulo_18" data-name="Rectángulo 18" width="17.308" height="32.987" transform="translate(189.447 119.408)" fill="#c69c6d"/>
  <path id="Trazado_239" data-name="Trazado 239" d="M1432.409,1419.326c-1.59,7.277-15.553,14.507-24.523,14.507-4.19,0-6.6-3.722-7.978-7.679-.243-.692-.458-1.4-.646-2.1-.982-3.769,1.887-6.33,2.585-8.012,1.8-4.33-.137,1.743,9.983-1.016S1434,1412.059,1432.409,1419.326Z" transform="translate(-1255.666 -1387.785)" fill="#64132c"/>
  <path id="Trazado_240" data-name="Trazado 240" d="M1438.1,1478.478a2.787,2.787,0,1,1-2.787-2.787A2.786,2.786,0,0,1,1438.1,1478.478Z" transform="translate(-1275.162 -1424.159)" fill="#3f2424"/>
  <circle id="Elipse_6" data-name="Elipse 6" cx="2.787" cy="2.787" r="2.787" transform="translate(158.303 65.663)" fill="#3f2424"/>
  <path id="Trazado_241" data-name="Trazado 241" d="M1511.293,1765.969a3.815,3.815,0,1,1-3.815-3.815A3.815,3.815,0,0,1,1511.293,1765.969Z" transform="translate(-1316.597 -1591.025)" fill="#012540"/>
  <path id="Trazado_242" data-name="Trazado 242" d="M1555.165,1765.969a3.815,3.815,0,1,1-3.815-3.815A3.815,3.815,0,0,1,1555.165,1765.969Z" transform="translate(-1342.153 -1591.025)" fill="#012540"/>
  <circle id="Elipse_7" data-name="Elipse 7" cx="3.815" cy="3.815" r="3.815" transform="matrix(0.924, -0.383, 0.383, 0.924, 219.8, 172.88)" fill="#012540"/>
  <g id="Grupo_45" data-name="Grupo 45" transform="translate(195.174 88.393)">
    <path id="Trazado_243" data-name="Trazado 243" d="M1523.861,1632.533,1523.7,1628c-1.675-45.692.412-24.985,1.83-42.635-.229-.569-.986-2.97.017-8,1.144-5.736,10.862-13.07,11.274-13.38l.561.749c-.1.073-9.843,7.428-10.919,12.814-.406,2.036-.863,5.776.016,7.646-.145,1.7-.749,8.856-1.982,10.089-.917,1.667.056,28.782.294,37.22Z" transform="translate(-1523.083 -1563.982)" fill="#012540"/>
  </g>
  <g id="Grupo_46" data-name="Grupo 46" transform="translate(210.268 88.167)">
    <path id="Trazado_244" data-name="Trazado 244" d="M1570.408,1633.448h-.935c-.3-21.377.867-61.609-1.35-68.971a72.38,72.38,0,0,0-8.836.1l-.048-.935c8.965-.459,9.4-.026,9.56.136C1571.249,1566.231,1570.189,1616.966,1570.408,1633.448Z" transform="translate(-1559.239 -1563.44)" fill="#012540"/>
  </g>
  <g id="Grupo_47" data-name="Grupo 47" transform="translate(188.463 112.879)">
    <path id="Trazado_245" data-name="Trazado 245" d="M1507.175,1659.859c9.987-8.729,35.992-32.353,36.4-36.79.116-1.3,9.729-2.277-35.779,37.494A.468.468,0,0,1,1507.175,1659.859Z" transform="translate(-1507.009 -1622.632)" fill="#012540"/>
  </g>
  <rect id="Rectángulo_19" data-name="Rectángulo 19" width="37.147" height="15.731" transform="translate(225.328 168.126) rotate(180)" fill="#754c24"/>
  <rect id="Rectángulo_20" data-name="Rectángulo 20" width="10.149" height="15.731" transform="translate(225.328 168.126) rotate(180)" fill="#603813"/>
  <path id="Trazado_246" data-name="Trazado 246" d="M1545.8,1551.819c.45-1.982,1.236-6.149.161-7.179a1.039,1.039,0,0,0-1.052-.227,1.513,1.513,0,0,0-.921.786c-.837,1.6.152,5.281.594,6.727a1.358,1.358,0,0,0-.16.12c-1.657-1.105-5.255-3.063-7.389-.928-.631.631-.593,1.128-.449,1.435.422.9,2.588,1.14,4.746,1.14.975,0,1.947-.048,2.756-.106a1.324,1.324,0,1,0,1.714-1.767Zm-.983-6.188a.568.568,0,0,1,.354-.321.316.316,0,0,1,.088-.016.07.07,0,0,1,.056.02c.448.43.271,2.723-.18,5.105C1544.708,1548.73,1544.334,1546.555,1544.816,1545.632Zm-7.386,6.527c0-.029.043-.161.264-.381a2.418,2.418,0,0,1,1.781-.682,8.782,8.782,0,0,1,4.19,1.577C1540.45,1552.862,1537.627,1552.648,1537.43,1552.159Z" transform="translate(-1335.723 -1464.159)" fill="#012540"/>
</svg>
