<svg xmlns="http://www.w3.org/2000/svg" width="176.613" height="86.635" viewBox="0 0 176.613 86.635">
  <g id="Group_123" data-name="Group 123" transform="translate(-357.203 -211.473)">
    <path id="Path_576" data-name="Path 576" d="M357.2,211.5h86.351v86.441H357.2V211.5Z" fill="#009ee2" fill-rule="evenodd"/>
    <path id="Path_577" data-name="Path 577" d="M400.264,225.724v45.5m16.366-38.869-32.3,32.275m-6.6-15.921H422.8m-38.464-15.92,31.863,31.841" fill="none" stroke="#fff" stroke-miterlimit="2.613" stroke-width="0.453"/>
    <path id="Path_578" data-name="Path 578" d="M382.948,227.362a5.932,5.932,0,0,0-2.041.847,11.378,11.378,0,0,0-3.25,2.184c-1.37,1.439-1.941,3.991-2.314,5.306-.063.221.567-.3,1.512-1.159a19.962,19.962,0,0,0,2.818-2.967c1.407-1.925,1.891-2.6,3.275-4.211Z" fill="#fff" fill-rule="evenodd"/>
    <path id="Path_579" data-name="Path 579" d="M376.932,230.468a4.458,4.458,0,0,0-1.838,2.68c-.19.529-.307,1.332-.481,1.826-.248.7-.345,1.457-.511,2.131-.234.954-.512,1.793-.742,2.5a9.24,9.24,0,0,1,1.516-2.315,10.773,10.773,0,0,1,1.741-1.474,6.3,6.3,0,0,0,1.154-.814c.537-.6,1.382-1.263,1.853-1.849.366-.456.431-.907.424-.747a6.666,6.666,0,0,1-.276,1.861,6.948,6.948,0,0,1-.813,1.442,6.692,6.692,0,0,1-1.658,1.916c-1.176.991-2.182,1.853-2.545,2.121a9.184,9.184,0,0,0-1.893,2.129c-.22.329-.3.643-.3.433,0-.932-.219-2.264-.2-4.715a9.593,9.593,0,0,1,.729-3.9,6.064,6.064,0,0,1,1.188-1.625,4.292,4.292,0,0,1,2.651-1.6Z" fill="#fff" fill-rule="evenodd"/>
    <path id="Path_580" data-name="Path 580" d="M371.855,234.849a9.858,9.858,0,0,0-.509,1.852,13.748,13.748,0,0,0-.056,2.407c.037,1.094.339,2.162.394,3.257a40.938,40.938,0,0,1-.089,4.248,10.588,10.588,0,0,1,.908-2.71,7.931,7.931,0,0,1,1.531-2.114c1.168-1.133,2.344-2.39,3.054-2.967a11.179,11.179,0,0,1-.952,3.4,13.662,13.662,0,0,1-2.083,2.983,8.817,8.817,0,0,0-1.016,1.545,16.505,16.505,0,0,0-1.032,1.873,10.574,10.574,0,0,0-.482,1.585c-.36-.979-.424-1.9-.7-2.765a24.683,24.683,0,0,1-1.18-3.44,10.114,10.114,0,0,1,.174-5.562c.2-.527,1.526-3.291,2.039-3.589Z" fill="#fff" fill-rule="evenodd"/>
    <path id="Path_581" data-name="Path 581" d="M375.311,244.649c0,.536.118,1.023.092,1.508a23.414,23.414,0,0,1-1.169,5.811,13.545,13.545,0,0,0-1.067,4.445c0,1.646.159,2.732.013,2.427a18.826,18.826,0,0,0-1.739-2.426c-1.44-1.729-2.45-2.807-3.1-5.113a12.23,12.23,0,0,1,.283-8.113,8.794,8.794,0,0,0,.061,2.226c.115.623.487,1.345.7,2.117.278,1.029.972,1.871,1.388,2.945a26.96,26.96,0,0,1,.771,3.2,14.615,14.615,0,0,0,.585,2.005c-.02-.726-.225-1.353-.252-1.95a8.513,8.513,0,0,1,.779-3.85,25.632,25.632,0,0,1,1.4-2.353c.536-1.007,1.251-1.869,1.251-2.875Z" fill="#fff" fill-rule="evenodd"/>
    <path id="Path_582" data-name="Path 582" d="M367.879,252.835a11.158,11.158,0,0,0,1.505,3.2c1.114,1.449,2.966,2.949,4.069,4.3a22.544,22.544,0,0,1,1.233,1.914,10.442,10.442,0,0,0,.888,1.015,9.521,9.521,0,0,1-1.288-3.926,31.918,31.918,0,0,1,.592-4.8c.066-1.5.18-2.731.339-2.156a22.2,22.2,0,0,1,.774,2.765,29.893,29.893,0,0,1,.528,4.311,15.729,15.729,0,0,0,.591,4.522,14.8,14.8,0,0,0,.969,2.219c.26.527-5.636-3.3-7.039-4.822a11.1,11.1,0,0,1-3.174-5.7,19.551,19.551,0,0,1,.013-2.84Z" fill="#fff" fill-rule="evenodd"/>
    <path id="Path_583" data-name="Path 583" d="M377.153,258.582a12.857,12.857,0,0,1,1.327,1.743,15.438,15.438,0,0,1,1.562,2.446c.645,1.374,1.083,2.96,1.747,4.634a11.751,11.751,0,0,0,1.271,2.57c.669.865,1.338,1.528,1.27,1.548a4.807,4.807,0,0,0-1.171-.373c-2.155-.414-3.691-.559-5.074-.972a13.081,13.081,0,0,1-5.3-3.461,11.911,11.911,0,0,1-2.8-5.18,14.972,14.972,0,0,0,2.8,3.1,15.421,15.421,0,0,0,2.565,1.312,33.122,33.122,0,0,1,3.333,1.836c.621.409,1.225.945,1.906,1.4s1.192.664,1.252.735c.406.487-1.162-.816-2.125-2.389a8.932,8.932,0,0,1-1.061-2.08c-.387-1.325-.426-2.818-.714-4.18a26.173,26.173,0,0,0-.788-2.687Z" fill="#fff" fill-rule="evenodd"/>
    <path id="Path_584" data-name="Path 584" d="M381.906,265.42c.884.676,2.124,1.679,3.542,2.973.664.607,1.234,1.327,1.945,1.965a17.584,17.584,0,0,0,2.008,1.468,8.407,8.407,0,0,0,3.107,1.126c.165.04-.288.1-1.164.36a27.058,27.058,0,0,1-3.971,1,20.079,20.079,0,0,1-3.725.362,10.362,10.362,0,0,1-6.221-2.127,11.314,11.314,0,0,1-2.4-2.722,14.152,14.152,0,0,0,4.308,2,36.4,36.4,0,0,0,4.583.431c.547.06,1.243.044,1.8.13a18.3,18.3,0,0,0,2.887.416,8.622,8.622,0,0,1-3.546-1.824c-1.824-1.733-2.628-4.465-3.156-5.557Z" fill="#fff" fill-rule="evenodd"/>
    <path id="Path_585" data-name="Path 585" d="M380.4,275.04a15.184,15.184,0,0,0,1.654,1.466c4.752,3.309,8.7,1.363,11.454-.5a17.968,17.968,0,0,1,2.663-1.783,4.18,4.18,0,0,1,1.5-.418,7.567,7.567,0,0,1,3.392.752,24.386,24.386,0,0,1,3.252,2.227,32.873,32.873,0,0,1,3.522,3.427,6.607,6.607,0,0,0,1.425-1.143c-1.009-.756-1.87-1.694-2.9-2.516a23.777,23.777,0,0,0-2.613-1.692,12.233,12.233,0,0,0-2.786-1.215,12.552,12.552,0,0,0-2.744-.617,9.8,9.8,0,0,0-4.764.377l-5.982,2.505c-1.067-.158-2.31.459-3.376.3a12.154,12.154,0,0,1-3.7-1.167Z" fill="#fff" fill-rule="evenodd"/>
    <path id="Path_586" data-name="Path 586" d="M418.087,227.362a5.928,5.928,0,0,1,2.042.847,11.378,11.378,0,0,1,3.25,2.184c1.369,1.439,1.94,3.991,2.313,5.306.063.221-.566-.3-1.512-1.159a19.962,19.962,0,0,1-2.818-2.967c-1.407-1.925-1.89-2.6-3.275-4.211Z" fill="#fff" fill-rule="evenodd"/>
    <path id="Path_587" data-name="Path 587" d="M424.1,230.468a4.45,4.45,0,0,1,1.838,2.68c.191.529.307,1.332.481,1.826a21.664,21.664,0,0,1,.512,2.131c.233.954.511,1.793.741,2.5a9.239,9.239,0,0,0-1.516-2.315,10.679,10.679,0,0,0-1.74-1.474,6.27,6.27,0,0,1-1.154-.814c-.538-.6-1.383-1.263-1.854-1.849-.366-.456-.431-.907-.424-.747a6.7,6.7,0,0,0,.276,1.861,6.948,6.948,0,0,0,.813,1.442,6.692,6.692,0,0,0,1.658,1.916c1.176.991,2.183,1.853,2.545,2.121a9.161,9.161,0,0,1,1.893,2.129c.221.329.3.643.3.433,0-.932.218-2.264.2-4.715a9.593,9.593,0,0,0-.73-3.9,6.063,6.063,0,0,0-1.188-1.625,4.29,4.29,0,0,0-2.651-1.6Z" fill="#fff" fill-rule="evenodd"/>
    <path id="Path_588" data-name="Path 588" d="M429.18,234.849a9.858,9.858,0,0,1,.509,1.852,13.751,13.751,0,0,1,.057,2.407c-.037,1.094-.34,2.162-.395,3.257a41.241,41.241,0,0,0,.088,4.248,10.471,10.471,0,0,0-.907-2.71,7.95,7.95,0,0,0-1.53-2.114c-1.169-1.133-2.345-2.39-3.055-2.967a11.249,11.249,0,0,0,.952,3.4,13.7,13.7,0,0,0,2.083,2.983A8.759,8.759,0,0,1,428,246.747a16.514,16.514,0,0,1,1.033,1.873,10.884,10.884,0,0,1,.482,1.585c.359-.979.423-1.9.7-2.765a24.811,24.811,0,0,0,1.18-3.44,10.114,10.114,0,0,0-.174-5.562c-.2-.527-1.528-3.291-2.04-3.589Z" fill="#fff" fill-rule="evenodd"/>
    <path id="Path_589" data-name="Path 589" d="M425.725,244.649c0,.536-.119,1.023-.092,1.508a23.323,23.323,0,0,0,1.169,5.811,13.571,13.571,0,0,1,1.066,4.445c0,1.646-.158,2.732-.012,2.427a18.767,18.767,0,0,1,1.74-2.426c1.438-1.729,2.448-2.807,3.1-5.113a12.255,12.255,0,0,0-.284-8.113,8.794,8.794,0,0,1-.061,2.226c-.115.623-.486,1.345-.694,2.117-.278,1.029-.972,1.871-1.388,2.945a26.757,26.757,0,0,0-.771,3.2,14.679,14.679,0,0,1-.586,2.005c.021-.726.226-1.353.252-1.95a8.5,8.5,0,0,0-.779-3.85,25.623,25.623,0,0,0-1.4-2.353c-.537-1.007-1.251-1.869-1.251-2.875Z" fill="#fff" fill-rule="evenodd"/>
    <path id="Path_590" data-name="Path 590" d="M433.156,252.835a11.159,11.159,0,0,1-1.505,3.2c-1.113,1.449-2.966,2.949-4.069,4.3a22.508,22.508,0,0,0-1.232,1.914,10.883,10.883,0,0,1-.888,1.015,9.521,9.521,0,0,0,1.288-3.926,32.034,32.034,0,0,0-.593-4.8c-.065-1.5-.18-2.731-.338-2.156a22.114,22.114,0,0,0-.775,2.765,30.151,30.151,0,0,0-.527,4.311,15.764,15.764,0,0,1-.591,4.522,15,15,0,0,1-.969,2.219c-.26.527,5.635-3.3,7.039-4.822a11.106,11.106,0,0,0,3.174-5.7,19.417,19.417,0,0,0-.014-2.84Z" fill="#fff" fill-rule="evenodd"/>
    <path id="Path_591" data-name="Path 591" d="M423.883,258.582a12.775,12.775,0,0,0-1.327,1.743,15.374,15.374,0,0,0-1.563,2.446c-.645,1.374-1.083,2.96-1.746,4.634a11.8,11.8,0,0,1-1.271,2.57c-.669.865-1.339,1.528-1.27,1.548a4.785,4.785,0,0,1,1.171-.373c2.154-.414,3.691-.559,5.073-.972a13.075,13.075,0,0,0,5.3-3.461,11.919,11.919,0,0,0,2.8-5.18,14.96,14.96,0,0,1-2.8,3.1,15.372,15.372,0,0,1-2.564,1.312,33.032,33.032,0,0,0-3.334,1.836c-.621.409-1.224.945-1.906,1.4s-1.192.664-1.251.735c-.406.487,1.161-.816,2.124-2.389a8.934,8.934,0,0,0,1.062-2.08c.387-1.325.426-2.818.713-4.18a25.919,25.919,0,0,1,.789-2.687Z" fill="#fff" fill-rule="evenodd"/>
    <path id="Path_592" data-name="Path 592" d="M419.129,265.42c-.884.676-2.123,1.679-3.541,2.973-.664.607-1.235,1.327-1.945,1.965a17.591,17.591,0,0,1-2.009,1.468,8.394,8.394,0,0,1-3.107,1.126c-.166.04.288.1,1.164.36a27.057,27.057,0,0,0,3.971,1,20.071,20.071,0,0,0,3.725.362,10.357,10.357,0,0,0,6.221-2.127,11.327,11.327,0,0,0,2.4-2.722,14.136,14.136,0,0,1-4.309,2,36.4,36.4,0,0,1-4.584.431c-.545.06-1.242.044-1.8.13a18.3,18.3,0,0,1-2.887.416,8.617,8.617,0,0,0,3.547-1.824c1.824-1.733,2.628-4.465,3.155-5.557Z" fill="#fff" fill-rule="evenodd"/>
    <path id="Path_593" data-name="Path 593" d="M420.636,275.04a15.182,15.182,0,0,1-1.653,1.466c-4.752,3.309-8.7,1.363-11.455-.5a17.968,17.968,0,0,0-2.663-1.783,4.18,4.18,0,0,0-1.5-.418,7.569,7.569,0,0,0-3.391.752,24.527,24.527,0,0,0-3.252,2.227,33.065,33.065,0,0,0-3.522,3.427,6.632,6.632,0,0,1-1.425-1.143c1.01-.756,1.871-1.694,2.9-2.516a23.884,23.884,0,0,1,2.614-1.692,12.247,12.247,0,0,1,2.785-1.215,12.538,12.538,0,0,1,2.744-.617,9.8,9.8,0,0,1,4.764.377l5.982,2.505c1.067-.158,2.31.459,3.377.3a12.157,12.157,0,0,0,3.7-1.167Z" fill="#fff" fill-rule="evenodd"/>
    <path id="Path_594" data-name="Path 594" d="M400.425,225.542a22.8,22.8,0,1,1-22.814,22.8,22.849,22.849,0,0,1,22.814-22.8m0,4.6a18.2,18.2,0,1,1-18.209,18.195,18.238,18.238,0,0,1,18.209-18.195m0,5.146a13.05,13.05,0,1,1-13.059,13.049,13.079,13.079,0,0,1,13.059-13.049m0,3.952a9.1,9.1,0,1,1-9.1,9.1,9.118,9.118,0,0,1,9.1-9.1" fill="none" stroke="#fff" stroke-miterlimit="2.613" stroke-width="0.453"/>
    <path id="Path_595" data-name="Path 595" d="M400.425,243.737a4.6,4.6,0,1,1-4.6,4.6,4.611,4.611,0,0,1,4.6-4.6Z" fill="#009ee2" fill-rule="evenodd"/>
    <path id="Path_596" data-name="Path 596" d="M403.191,229.2a6.033,6.033,0,0,0,1.571-.045c.7-.336.987-.583.046-.942a3.05,3.05,0,0,0-2-.089c-.494.066-.718.515-1.189.515-.314,0-.337.471-.09.651.538.4,1.683.179,1.66-.09Z" fill="#fff" fill-rule="evenodd"/>
    <path id="Path_597" data-name="Path 597" d="M411.022,230.742c-.421,0-.464.217-.215.523.318.4,1.058.9,1.069.777.017-.185-.107-.555.044-.83.058-.106-.186-.231-.541-.325-.118-.032-.173-.145-.357-.145Z" fill="#fff" fill-rule="evenodd"/>
    <path id="Path_598" data-name="Path 598" d="M410.385,231.509a4.881,4.881,0,0,0-1.18.189c-.17.049-.428-.008-.435.134l-.108,2.174c-.017.349.538.418.617.552.048.081-.056.207-.056.327,0,.205.161.524.171.806s-.128.527.022.678c.045.044.485-.413.834-.543.158-.058.3.156.371.156.215,0,.6.685.626.856.042.285-.175.521-.148.716.064.5.411.731,1.072.815.315.041.4.371.576.614a1.321,1.321,0,0,0,1.274.7c.3-.039.783.7,1.014,1.066s.348.662.7.758c.162.043.376-.156.677-.04.784.305,1.052.384.949-.5a4.319,4.319,0,0,0-.971-2.287,11.568,11.568,0,0,0-2.005-2.488,10.3,10.3,0,0,1-1.745-2.978c-.1-.247-.318-.3-.454-.459a2.105,2.105,0,0,0-.92-.747c-.1-.028-.113-.186-.34-.277a2.525,2.525,0,0,0-.545-.216Z" fill="#fff" fill-rule="evenodd"/>
    <path id="Path_599" data-name="Path 599" d="M408.517,235.779c-.1-.145-.675-.8-.636-.663l.467,1.627c.1.337-.038.966.042,1.1.047.08-.118.222-.057.327.479.837.556.441,1.027.941a.561.561,0,0,0,.371.156c.216,0,.6.685.627.856a15.12,15.12,0,0,1,1.067,1.518c.177.366-.279.835-.219,1.145s.624.47.679.522a3.587,3.587,0,0,1,1,1.234,2.046,2.046,0,0,1-.015,1.052c-.174.939-1.285,1.6-.74,1.6s1.388-.728,1.691-1.734a5.449,5.449,0,0,0-.05-1.616c0-.131.18-.452.163-.581a2.076,2.076,0,0,0-.388-1c-.136-.148-.338-.063-.448-.254-.1-.172.3-.484.262-.576-.105-.233-.4-.006-.482-.259-.028-.1.3-.295.272-.469-.015-.079-.285-.1-.381-.195-.108-.113-.568.345-.7.269-.19-.111-.075-.452-.268-.63a5.949,5.949,0,0,1-1.368-1.882,9.222,9.222,0,0,0-.613-1.251c-.068-.079-.073-.32-.132-.375-.266-.251-.5-.12-.684-.316a5.433,5.433,0,0,1-.489-.549Z" fill="#fff" fill-rule="evenodd"/>
    <path id="Path_600" data-name="Path 600" d="M402.586,263.153c0-.155-.018-.366-.228-.423s-.614.04-.876-.009a5.577,5.577,0,0,1-2.156-.627l-1.1-1.174c-.457-.487-1.191-.976-1.234-1.73-.014-.25,0-.212.239-.569.111-.164.051-.409.18-.61.174-.269.39-.162.633-.4.4-.393,1.016-1.333,1.362-1l.269.259.541.047.467-.273.75-.014c.339-.006,1.024.7,1.447.631.4-.069.473-.368.8-.618a2.3,2.3,0,0,1,1.243-.427c.283.022.589.365.86.456.454.152.86.1,1.241.37a6.977,6.977,0,0,0,2.344,1.42c.252.056.012.477.039.824a.472.472,0,0,0,.437.421.873.873,0,0,1,.528.248.718.718,0,0,1,.323.63c0,.364-.492.4-.7,1.073-.07.227.333.353.334.743a4.745,4.745,0,0,1-.489,1.505,10.069,10.069,0,0,1-1.3,1.831,3.672,3.672,0,0,1-1.581,1.354,1.243,1.243,0,0,1-1.147.06c-.587-.355-1.12-1.246-1.728-1.608-.415-.246-.679-.535-.994-.754s-.992-.609-.735-1.151l.232-.488Z" fill="#fff" fill-rule="evenodd"/>
    <path id="Path_601" data-name="Path 601" d="M412.689,258.448a4.311,4.311,0,0,1,.28.742c.2.531.451.945-.047,1.035-.4.071-.447.743-.726.717a.635.635,0,0,1-.44-.262c-.326-.293-.175-.813-.011-1.564.046-.206.132-.61.211-.874.116-.386.273-.53.733.206Z" fill="#fff" fill-rule="evenodd"/>
    <path id="Path_602" data-name="Path 602" d="M384.024,253.346a12.37,12.37,0,0,1-1.636-.181c-.117-.008-.2-.512-.323-.488-.417.088-.322.281-.676.464-.415.214-.885-.293-1.138.053a1.987,1.987,0,0,0-.382,1.37,2.158,2.158,0,0,0,.505,1.5c.328.327.209-.023.651.318.15.114.157.323.32.442.192.141.424-.167.635-.023.175.119.326.3.512.426.307.2.628.324.96.534.218.137-.131.335.1.473.272.167.469.391.764.552.129.07.2-.22.334-.152.219.112.143.435.372.548.173.086.232.35.415.432.247.111,1.254,1.234,1.515,1.329.8.29.972-.17,1.554-.281.31-.06.495.459.9.508.36.043.946-.384,1.186-.384a7.59,7.59,0,0,0,1.507-.147c.425-.268.062-.081,0-.9-.08-1.039-1.46-.97-2.035-2.381-.121-.3.715-.542.588-.85-.185-.445-.417-.779-.632-1.226-.178-.37.116-1.187-.079-1.544-.375-.69-.142-2.021-.8-2.229-.271-.086-.495-1.467-.786-1.547-.245-.068-.1,1.283-.357,1.288-.553.011-1.294-1.266-1.882-1.214a2.429,2.429,0,0,0-1.523,1.078,17.13,17.13,0,0,0-.57,2.231Z" fill="#fff" fill-rule="evenodd"/>
    <path id="Path_603" data-name="Path 603" d="M388.41,250.021c0-.431.713-.44,1.006-.342.238.078.05-.305.08-.541.045-.362.284-1.782.627-1.978a1.4,1.4,0,0,1,1,.066c.5.28.029,1.435.115,1.993.092.593-.865.216-.512.391.184.092-.207-.515-.545-.287-.111.075-.027.289-.044.487s-.135.381.131.49c.1.039-.774.1-.656.13.321.085.107.63.625.67.186.015.246-.419.315-.623.11-.323-.109-.423.118-.422a.8.8,0,0,1,.294.014c.146.022.4.024.562.054.6.112,1.23.11,1.727.25.183.052.073.235.132.326a.41.41,0,0,0,.481.077c.216-.094.112.2.24.562.048.131.1.439.546.3.124-.038-.318-.382.116-.49.087-.023.083.953.467.953.629,0,.6-.49.626-.83.022-.319.5.183.758.052.5-.248.435-.542.389-1.219-.011-.164.3.226.385.056s.125-.489.276-.765c.119-.216.379-.391.365-.594-.019-.278-.5-.288-.655-.45-.185-.2-.034-.411-.049-.637a1.189,1.189,0,0,1,.37-1.011c.394-.33.865-.908,1.211-.953.27-.034.474.113.709-.273s-.074-.605-.027-1.167c.033-.391.242.495.5.848.336.453.745.465.762.39.01-.041.242-.268.379-.19.258.148.495.841.919,1.137a1.755,1.755,0,0,1,.246.706c.033.134-.46.475-.425.594a.41.41,0,0,0,.38.261c.1.009.283.278.37.625.109.445.118.979.187.848.057-.106.315.659-.074.878-.283.16-1.147.285-1.362.429-.767.511-.488.912-.415.9a2.93,2.93,0,0,1-.792.334,4.644,4.644,0,0,1-1.352-.145,2.023,2.023,0,0,1,.958,1.7c.007.606-.179,1.241.277,1.349a4.307,4.307,0,0,0,1.24-.126,5.771,5.771,0,0,0,2.361-.724c.1-.228.442-.252.591-.308.282-.106.408-.151.45.115.032.219-.294.212-.369.26-.192.123-.466-.008-1.661.364a12.756,12.756,0,0,1-1.762.32,9.912,9.912,0,0,0-1.59.3c-.163.056.014.233-.107.3-.465.248-.2.792-.229.835-.051.073-.058.607.641.3.478-.211,1.613-1.267,1.994-1.345.262-.054.322.277.423.317.206.083.325.292.564.315.11.01.106-.36.218-.351.211.018.48.311.681.29.11-.011.1-.348.2-.366a1.65,1.65,0,0,0,.906-.383c.219-.243.6.006.65.092.132.241-.553.746-.393.962.176.238.616-.022,1.09,0s.983.337,1.411.313c.569-.031.982.372,1.338.216.119-.053.4-1.437.487-1.561.374-.537.392-1.587-.285-1.783-.3-.085-.577.7-1.141.984-.257.132-.664-.049-.995-.091-.175-.021.346-.009.5-.062.255-.089.461-.231.546-.229a3.8,3.8,0,0,0,1.19-.851c.318-.313.467-.657.589-.706.165-.065.351.135.509.092.1-.025.162-.306.26-.311a15.225,15.225,0,0,0,4.054-.418c.792-.35-.219-.956-.827-1.065-.17-.031-.653.674-.619.655.184-.1-.247-.568-.795-1.144a6.886,6.886,0,0,1-.653-.959c-.071-.107-.248-.08-.29-.214-.149-.466.844-.886.728-1.647-.081-.54-.406-.264-.435-1-.026-.656-.128-.764.327-.914.479-.158.343-.551.51-.765.1-.127-.406-.543-1-.7-.234-.061-.524.264-.728.269s-.326-.313-.335-.371a1.3,1.3,0,0,0-.353-.946c-.088-.073-.287-.356-.558-.4a10.692,10.692,0,0,1-1.782-.12,13.662,13.662,0,0,1-1.979-.886c-.112-.048-.7.525-.7.87,0,.269.6.332.574.308-.171-.151-.892.363-1.483.911-.4.376-.764.913-.891.837-.436-.262-.629-.607-.735-.613-.308-.016-.674.173-.621.115a8.561,8.561,0,0,1,1.016-.74c.254-.216.271-.427.412-.476.307-.107.025-.451-.1-.625-.1-.135.076-.364-.146-.329-.395.062-1.1.83-1.218.791a6.094,6.094,0,0,0-2.719-.08c-.318.1-.287-.439-.451-.382-.887.308-.188.7-.707,1.194a1.405,1.405,0,0,1-.784.252c-.13,0-.266-.089-.326-.073-.3.078-.347-.32-.553-.247-.341.121-.073.321-.313.262-.266-.064-.093-.36-.14-.584-.029-.134-.246-.227-.38-.271a7.619,7.619,0,0,1-1.327-.519c-.147-.068-.494-.261-.717-.158-.287.133-.464.6-.76.78-.275.168-.475.1-.709.315s-.35.535-.526.7c-.452.431-.766-.008-.869.58a.65.65,0,0,1-.266.433c-.212.113-.315-.084-.543.062-.176.114-.276.413-.344.466-.429.339-.438,1.183-.491,1.794s-.371,1.162-.39,1.647a4.055,4.055,0,0,0-.409.771,2.29,2.29,0,0,0,.029,1.027c.084.323.142.363.183.276a3.174,3.174,0,0,0,.085-.787Z" fill="#fff" fill-rule="evenodd"/>
    <path id="Path_604" data-name="Path 604" d="M398.265,249.384c.048-.173-.059-.456.064-.561a1.515,1.515,0,0,1,1.388-.067.756.756,0,0,1,.421.7,3.558,3.558,0,0,1-.435.934c-.171.333-.145.735-.367.893-.16.114-.906-.035-1.068-.008-.135.022.191.294.221.361.542,1.2-1.566-.3-1.309-1.2.029-.1.231-.025.375-.13a1.758,1.758,0,0,0,.71-.922Z" fill="#fff" fill-rule="evenodd"/>
    <path id="Path_605" data-name="Path 605" d="M408.84,257.077c.923-1.243.473-1.212.919-1.286.051-.008.1.081.173.353.031.1-.011.38.07.476s.309,0,.506.057.344.285.592.341c.114.026-.56.32-.72.575-.141.225.3.425-.5.33-.753-.09-.8-.926-1.041-.846Z" fill="#fff" fill-rule="evenodd"/>
    <path id="Path_606" data-name="Path 606" d="M395.694,248.037c-.341.207-.287.222-.287.614,0,.185-.366.158-.366.36,0,.106-.212.41-.13.309a.546.546,0,0,1,.688-.169c.075.086.158-.036.254-.03.186.011.624.155.624-.126,0-.16.458-.057.467-.006.024.152.182.378.294.171.077-.142.157-.188.078-.349-.039-.079-.36-.087-.422-.076-.333.057-.224-.33-.322-.544-.141-.308-.363-.024-.552-.177-.135-.109-.067-.148-.315-.067-.025.008-.011.1-.011.09Z" fill="#009ee2" fill-rule="evenodd"/>
    <path id="Path_607" data-name="Path 607" d="M446.957,211.516h42.218v42H446.957v-42Z" fill="#009ee2" stroke="#fff" stroke-miterlimit="2.613" stroke-width="0.086" fill-rule="evenodd"/>
    <path id="Path_608" data-name="Path 608" d="M446.957,256.065h42.218v42H446.957v-42Z" fill="#009ee2" stroke="#fff" stroke-miterlimit="2.613" stroke-width="0.086" fill-rule="evenodd"/>
    <path id="Path_609" data-name="Path 609" d="M491.556,211.516h42.218v42H491.556v-42Z" fill="#009ee2" stroke="#fff" stroke-miterlimit="2.613" stroke-width="0.086" fill-rule="evenodd"/>
    <path id="Path_610" data-name="Path 610" d="M491.556,256.065h42.218v42H491.556v-42Z" fill="#009ee2" stroke="#fff" stroke-miterlimit="2.613" stroke-width="0.086" fill-rule="evenodd"/>
    <path id="Path_611" data-name="Path 611" d="M522.537,243.7l-.346-25.885h2.87v29.4h-3.477L505.44,221.29l.324,25.927h-2.849v-29.4h3.477L522.537,243.7Z" fill="#fff" stroke="#fff" stroke-miterlimit="2.613" stroke-width="0.086" fill-rule="evenodd"/>
    <path id="Path_612" data-name="Path 612" d="M460.458,265.17V289h6q5.617,0,8.648-3.149t3.035-8.924a13.641,13.641,0,0,0-1.028-5.334,11.03,11.03,0,0,0-2.951-4.1,8.574,8.574,0,0,0-3.214-1.785,18.962,18.962,0,0,0-5.173-.537Zm-2.847-2.8h8.365a20.827,20.827,0,0,1,5.807.689,11.094,11.094,0,0,1,4.152,2.2,14.47,14.47,0,0,1,3.924,5.19,15.641,15.641,0,0,1,1.393,6.56,16.149,16.149,0,0,1-1.538,7.1,13.407,13.407,0,0,1-4.344,5.216,12.325,12.325,0,0,1-4.021,1.882,28.54,28.54,0,0,1-6.669.565h-7.069v-29.4Z" fill="#fff" stroke="#fff" stroke-miterlimit="2.613" stroke-width="0.086" fill-rule="evenodd"/>
    <path id="Path_613" data-name="Path 613" d="M508.13,265.252v11.206h4.263q3.558,0,5.254-1.351a5.024,5.024,0,0,0,1.7-4.183,5.181,5.181,0,0,0-1.71-4.306q-1.708-1.367-5.483-1.366Zm-2.89-2.886h6.242a26.306,26.306,0,0,1,4.3.282,7.954,7.954,0,0,1,2.69.909,8.072,8.072,0,0,1,2.979,3.039,8.479,8.479,0,0,1,1.041,4.211,9.083,9.083,0,0,1-.937,4.108,7.559,7.559,0,0,1-2.621,3,7.992,7.992,0,0,1-2.793,1.143,20.263,20.263,0,0,1-4.152.352H508.13v12.356h-2.89v-29.4Z" fill="#fff" stroke="#fff" stroke-miterlimit="2.613" stroke-width="0.086" fill-rule="evenodd"/>
    <path id="Path_614" data-name="Path 614" d="M459.821,217.5h2.89V236.1a21.869,21.869,0,0,0,.172,3.234,6.8,6.8,0,0,0,.573,1.894,6.007,6.007,0,0,0,2.317,2.626,6.38,6.38,0,0,0,3.448.95,5.619,5.619,0,0,0,4.931-2.274c1.062-1.509,1.593-3.859,1.593-7.035V217.5h2.849v18.7q0,5.717-2.276,8.525t-6.9,2.8q-4.954,0-7.276-2.75t-2.324-8.58V217.5Z" fill="#fff" stroke="#fff" stroke-miterlimit="2.613" stroke-width="0.086" fill-rule="evenodd"/>
  </g>
</svg>
