<svg id="twitter" xmlns="http://www.w3.org/2000/svg" width="56.5" height="56.5" viewBox="0 0 56.5 56.5">
  <path id="twitter-2" data-name="twitter" d="M28.25,0A28.25,28.25,0,1,0,56.5,28.25,28.253,28.253,0,0,0,28.25,0Zm12.9,22.026q.019.417.019.838c0,8.568-6.522,18.449-18.449,18.449h0A18.354,18.354,0,0,1,12.779,38.4a13.188,13.188,0,0,0,1.547.09,13.011,13.011,0,0,0,8.054-2.776,6.491,6.491,0,0,1-6.058-4.5A6.463,6.463,0,0,0,19.25,31.1a6.486,6.486,0,0,1-5.2-6.356c0-.029,0-.056,0-.083a6.439,6.439,0,0,0,2.937.811,6.49,6.49,0,0,1-2.007-8.657A18.409,18.409,0,0,0,28.344,23.59a6.488,6.488,0,0,1,11.049-5.913A13.005,13.005,0,0,0,43.511,16.1a6.509,6.509,0,0,1-2.851,3.586,12.932,12.932,0,0,0,3.724-1.021A13.177,13.177,0,0,1,41.149,22.026Zm0,0" fill="#fff"/>
</svg>
